<?xml version="1.0" encoding="UTF-8" standalone="no"?>
<!-- Created with Bouml (http://bouml.free.fr/) -->
<!DOCTYPE svg PUBLIC "-//W3C//DTD SVG 1.1//EN" "http://www.w3.org/Graphics/SVG/1.1/DTD/svg11.dtd">
<svg width="796" height="443" version="1.1" xmlns="http://www.w3.org/2000/svg">
<g>
	<ellipse fill="none" stroke="black" stroke-width="1" stroke-opacity="1" cx="88" cy="222" rx="6" ry="6" />
	<line stroke="black" stroke-opacity="1" x1="77" y1="233" x2="99" y2="233" />
	<line stroke="black" stroke-opacity="1" x1="88" y1="228" x2="88" y2="243" />
	<line stroke="black" stroke-opacity="1" x1="88" y1="243" x2="78" y2="255" />
	<line stroke="black" stroke-opacity="1" x1="88" y1="243" x2="98" y2="255" />
	<text font-family="Helvetica" font-size="12" fill="#000000" xml:space="preserve" text-anchor="middle" x="90" y="270">kehu</text>
</g>
<g>
	<text font-family="Helvetica" font-size="12" fill="#000000" xml:space="preserve" x="513" y="147">&lt;&lt;include&gt;&gt;</text>
</g>
<g>
	<text font-family="Helvetica" font-size="12" fill="#000000" xml:space="preserve" x="500" y="242">&lt;&lt;include&gt;&gt;</text>
</g>
<g>
	<text font-family="Helvetica" font-size="12" fill="#000000" xml:space="preserve" x="515" y="174">&lt;&lt;include&gt;&gt;</text>
</g>
<g>
	<text font-family="Helvetica" font-size="12" fill="#000000" xml:space="preserve" x="514" y="117">&lt;&lt;include&gt;&gt;</text>
</g>
<g>
	<text font-family="Helvetica" font-size="12" fill="#000000" xml:space="preserve" x="507" y="206">&lt;&lt;include&gt;&gt;</text>
</g>
<g>
	<text font-family="Helvetica" font-size="12" fill="#000000" xml:space="preserve" x="503" y="292">&lt;&lt;include&gt;&gt;</text>
</g>
<g>
	<ellipse fill="#cbcbcb" stroke="none" cx="359" cy="225" rx="31" ry="15" />
	<ellipse fill="#ffffc0" stroke="black" stroke-width="1" stroke-opacity="1" cx="356" cy="222" rx="31" ry="15" />
</g>
<g>
	<ellipse fill="#cbcbcb" stroke="none" cx="370" cy="106" rx="31" ry="15" />
	<ellipse fill="#ffffc0" stroke="black" stroke-width="1" stroke-opacity="1" cx="367" cy="103" rx="31" ry="15" />
</g>
<g>
	<ellipse fill="#cbcbcb" stroke="none" cx="755" cy="173" rx="31" ry="15" />
	<ellipse fill="#ffffc0" stroke="black" stroke-width="1" stroke-opacity="1" cx="752" cy="170" rx="31" ry="15" />
</g>
<g>
	<ellipse fill="#cbcbcb" stroke="none" cx="93" cy="31" rx="31" ry="15" />
	<ellipse fill="#ffffc0" stroke="black" stroke-width="1" stroke-opacity="1" cx="90" cy="28" rx="31" ry="15" />
</g>
<g>
	<ellipse fill="#cbcbcb" stroke="none" cx="372" cy="44" rx="31" ry="15" />
	<ellipse fill="#ffffc0" stroke="black" stroke-width="1" stroke-opacity="1" cx="369" cy="41" rx="31" ry="15" />
</g>
<g>
	<ellipse fill="#cbcbcb" stroke="none" cx="373" cy="160" rx="31" ry="15" />
	<ellipse fill="#ffffc0" stroke="black" stroke-width="1" stroke-opacity="1" cx="370" cy="157" rx="31" ry="15" />
</g>
<g>
	<ellipse fill="#cbcbcb" stroke="none" cx="344" cy="297" rx="31" ry="15" />
	<ellipse fill="#ffffc0" stroke="black" stroke-width="1" stroke-opacity="1" cx="341" cy="294" rx="31" ry="15" />
</g>
<g>
	<text font-family="Helvetica" font-size="12" fill="#000000" xml:space="preserve" x="729" y="199">login_</text>
</g>
<g>
	<text font-family="Helvetica" font-size="12" fill="#000000" xml:space="preserve" x="309" y="186">transfer_money</text>
</g>
<g>
	<text font-family="Helvetica" font-size="12" fill="#000000" xml:space="preserve" x="19" y="56">open_online_bank</text>
</g>
<g>
	<text font-family="Helvetica" font-size="12" fill="#000000" xml:space="preserve" x="301" y="332">report _loss</text>
</g>
<g>
	<text font-family="Helvetica" font-size="12" fill="#000000" xml:space="preserve" x="255" y="70">inquire_onecard_information</text>
</g>
<g>
	<text font-family="Helvetica" font-size="12" fill="#000000" xml:space="preserve" x="295" y="254">analyse_economy</text>
</g>
<g>
	<text font-family="Helvetica" font-size="12" fill="#000000" xml:space="preserve" x="299" y="132">change_password</text>
</g>
<g>
	<line stroke="black" stroke-opacity="1" x1="345" y1="57" x2="336" y2="55" />
	<line stroke="black" stroke-opacity="1" x1="345" y1="57" x2="343" y2="65" />
	<line stroke="black" stroke-opacity="1" x1="113" y1="231" x2="345" y2="57" />
</g>
<g>
	<line stroke="black" stroke-opacity="1" x1="324" y1="225" x2="317" y2="219" />
	<line stroke="black" stroke-opacity="1" x1="324" y1="225" x2="318" y2="231" />
	<line stroke="black" stroke-opacity="1" x1="113" y1="249" x2="324" y2="225" />
</g>
<g>
	<line stroke="black" stroke-opacity="1" x1="309" y1="288" x2="304" y2="281" />
	<line stroke="black" stroke-opacity="1" x1="309" y1="288" x2="302" y2="292" />
	<line stroke="black" stroke-opacity="1" x1="113" y1="255" x2="309" y2="288" />
</g>
<g>
	<line stroke="black" stroke-opacity="1" x1="720" y1="164" x2="715" y2="157" />
	<line stroke="black" stroke-opacity="1" x1="720" y1="164" x2="713" y2="168" />
	<line stroke-dasharray="4,4" stroke="black" stroke-opacity="1" x1="399" y1="108" x2="720" y2="164" />
</g>
<g>
	<line stroke="black" stroke-opacity="1" x1="335" y1="118" x2="326" y2="115" />
	<line stroke="black" stroke-opacity="1" x1="335" y1="118" x2="332" y2="126" />
	<line stroke="black" stroke-opacity="1" x1="113" y1="237" x2="335" y2="118" />
</g>
<g>
	<line stroke="black" stroke-opacity="1" x1="338" y1="166" x2="330" y2="162" />
	<line stroke="black" stroke-opacity="1" x1="338" y1="166" x2="334" y2="173" />
	<line stroke="black" stroke-opacity="1" x1="113" y1="243" x2="338" y2="166" />
</g>
<g>
	<line stroke="black" stroke-opacity="1" x1="720" y1="168" x2="714" y2="161" />
	<line stroke="black" stroke-opacity="1" x1="720" y1="168" x2="713" y2="173" />
	<line stroke-dasharray="4,4" stroke="black" stroke-opacity="1" x1="402" y1="157" x2="720" y2="168" />
</g>
<g>
	<line stroke="black" stroke-opacity="1" x1="720" y1="172" x2="713" y2="166" />
	<line stroke="black" stroke-opacity="1" x1="720" y1="172" x2="714" y2="178" />
	<line stroke-dasharray="4,4" stroke="black" stroke-opacity="1" x1="388" y1="216" x2="720" y2="172" />
</g>
<g>
	<line stroke="black" stroke-opacity="1" x1="720" y1="158" x2="716" y2="150" />
	<line stroke="black" stroke-opacity="1" x1="720" y1="158" x2="712" y2="161" />
	<line stroke-dasharray="4,4" stroke="black" stroke-opacity="1" x1="401" y1="52" x2="720" y2="158" />
</g>
<g>
	<line stroke="black" stroke-opacity="1" x1="88" y1="44" x2="81" y2="49" />
	<line stroke="black" stroke-opacity="1" x1="88" y1="44" x2="93" y2="50" />
	<line stroke="black" stroke-opacity="1" x1="74" y1="215" x2="88" y2="44" />
</g>
<g>
	<line stroke="black" stroke-opacity="1" x1="720" y1="178" x2="712" y2="173" />
	<line stroke="black" stroke-opacity="1" x1="720" y1="178" x2="715" y2="185" />
	<line stroke-dasharray="4,4" stroke="black" stroke-opacity="1" x1="373" y1="283" x2="720" y2="178" />
</g>
<g>
	<ellipse fill="#cbcbcb" stroke="none" cx="358" cy="395" rx="31" ry="15" />
	<ellipse fill="#ffffc0" stroke="black" stroke-width="1" stroke-opacity="1" cx="355" cy="392" rx="31" ry="15" />
</g>
<g>
	<text font-family="Helvetica" font-size="12" fill="#000000" xml:space="preserve" x="236" y="421">inquire_allcards_information   </text>
</g>
<g>
	<line stroke="black" stroke-opacity="1" x1="720" y1="185" x2="711" y2="182" />
	<line stroke="black" stroke-opacity="1" x1="720" y1="185" x2="717" y2="193" />
	<line stroke-dasharray="4,4" stroke="black" stroke-opacity="1" x1="380" y1="376" x2="720" y2="185" />
</g>
<g>
	<line stroke="black" stroke-opacity="1" x1="326" y1="376" x2="323" y2="367" />
	<line stroke="black" stroke-opacity="1" x1="326" y1="376" x2="317" y2="378" />
	<line stroke="black" stroke-opacity="1" x1="113" y1="263" x2="326" y2="376" />
</g>
</svg>
