<?xml version="1.0" encoding="UTF-8" standalone="no"?>
<!-- Created with Bouml (http://bouml.free.fr/) -->
<!DOCTYPE svg PUBLIC "-//W3C//DTD SVG 1.1//EN" "http://www.w3.org/Graphics/SVG/1.1/DTD/svg11.dtd">
<svg width="699" height="400" version="1.1" xmlns="http://www.w3.org/2000/svg">
<g>
	<line stroke="black" stroke-opacity="1" x1="414" y1="123" x2="434" y2="123" />
	<ellipse fill="#ffffc0" stroke="black" stroke-width="1" stroke-opacity="1" cx="424" cy="113" rx="10" ry="10" />
	<text font-family="Helvetica" font-size="12" fill="#000000" xml:space="preserve" font-weight="bold" text-anchor="middle" x="424" y="137">sys_account</text>
	<line stroke="black" stroke-opacity="1" x1="371" y1="152" x2="477" y2="152" />
	<line stroke="black" stroke-opacity="1" x1="371" y1="160" x2="477" y2="160" />
</g>
<g>
	<ellipse fill="none" stroke="black" stroke-width="1" stroke-opacity="1" cx="223" cy="167" rx="6" ry="6" />
	<line stroke="black" stroke-opacity="1" x1="212" y1="178" x2="234" y2="178" />
	<line stroke="black" stroke-opacity="1" x1="223" y1="173" x2="223" y2="188" />
	<line stroke="black" stroke-opacity="1" x1="223" y1="188" x2="213" y2="200" />
	<line stroke="black" stroke-opacity="1" x1="223" y1="188" x2="233" y2="200" />
	<text font-family="Helvetica" font-size="12" fill="#000000" xml:space="preserve" font-weight="bold" text-anchor="middle" x="225" y="215">bank_assistant</text>
	<line stroke="black" stroke-opacity="1" x1="161" y1="230" x2="289" y2="230" />
	<line stroke="black" stroke-opacity="1" x1="161" y1="238" x2="289" y2="238" />
</g>
<g>
	<line stroke="black" stroke-opacity="1" x1="605" y1="242" x2="625" y2="242" />
	<ellipse fill="#ffffc0" stroke="black" stroke-width="1" stroke-opacity="1" cx="615" cy="232" rx="10" ry="10" />
	<text font-family="Helvetica" font-size="12" fill="#000000" xml:space="preserve" font-weight="bold" text-anchor="middle" x="615" y="256">modify_plan</text>
	<line stroke="black" stroke-opacity="1" x1="543" y1="271" x2="687" y2="271" />
	<line stroke="black" stroke-opacity="1" x1="543" y1="279" x2="687" y2="279" />
	<text font-family="Helvetica" font-size="12" fill="#000000" xml:space="preserve" x="547" y="293">set_start_time()</text>
	<text font-family="Helvetica" font-size="12" fill="#000000" xml:space="preserve" x="547" y="320">set_modify_info()</text>
	<text font-family="Helvetica" font-size="12" fill="#000000" xml:space="preserve" x="547" y="347">start()</text>
	<text font-family="Helvetica" font-size="12" fill="#000000" xml:space="preserve" x="547" y="374">stop()</text>
</g>
<g>
	<line stroke="black" stroke-opacity="1" x1="461" y1="167" x2="542" y2="240" />
</g>
<g>
	<line stroke="black" stroke-opacity="1" x1="289" y1="179" x2="370" y2="151" />
</g>
<g>
	<text font-family="Helvetica" font-size="12" fill="#000000" xml:space="preserve" x="351" y="172">1</text>
</g>
<g>
	<text font-family="Helvetica" font-size="12" fill="#000000" xml:space="preserve" x="299" y="200">1</text>
</g>
</svg>
