<?xml version="1.0" encoding="UTF-8" standalone="no"?>
<!-- Created with Bouml (http://bouml.free.fr/) -->
<!DOCTYPE svg PUBLIC "-//W3C//DTD SVG 1.1//EN" "http://www.w3.org/Graphics/SVG/1.1/DTD/svg11.dtd">
<svg width="747" height="428" version="1.1" xmlns="http://www.w3.org/2000/svg">
<g>
	<ellipse fill="none" stroke="black" stroke-width="1" stroke-opacity="1" cx="143" cy="249" rx="6" ry="6" />
	<line stroke="black" stroke-opacity="1" x1="132" y1="260" x2="154" y2="260" />
	<line stroke="black" stroke-opacity="1" x1="143" y1="255" x2="143" y2="270" />
	<line stroke="black" stroke-opacity="1" x1="143" y1="270" x2="133" y2="282" />
	<line stroke="black" stroke-opacity="1" x1="143" y1="270" x2="153" y2="282" />
	<text font-family="Helvetica" font-size="12" fill="#000000" xml:space="preserve" text-anchor="middle" x="145" y="297">kehu</text>
</g>
<g>
	<text font-family="Helvetica" font-size="12" fill="#000000" xml:space="preserve" x="557" y="248">&lt;&lt;extend&gt;&gt;</text>
</g>
<g>
	<text font-family="Helvetica" font-size="12" fill="#000000" xml:space="preserve" x="533" y="322">&lt;&lt;extend&gt;&gt;</text>
</g>
<g>
	<ellipse fill="#cbcbcb" stroke="none" cx="699" cy="248" rx="31" ry="15" />
	<ellipse fill="#ffffc0" stroke="black" stroke-width="1" stroke-opacity="1" cx="696" cy="245" rx="31" ry="15" />
</g>
<g>
	<ellipse fill="#cbcbcb" stroke="none" cx="469" cy="380" rx="31" ry="15" />
	<ellipse fill="#ffffc0" stroke="black" stroke-width="1" stroke-opacity="1" cx="466" cy="377" rx="31" ry="15" />
</g>
<g>
	<ellipse fill="#cbcbcb" stroke="none" cx="435" cy="90" rx="31" ry="15" />
	<ellipse fill="#ffffc0" stroke="black" stroke-width="1" stroke-opacity="1" cx="432" cy="87" rx="31" ry="15" />
</g>
<g>
	<ellipse fill="#cbcbcb" stroke="none" cx="510" cy="234" rx="31" ry="15" />
	<ellipse fill="#ffffc0" stroke="black" stroke-width="1" stroke-opacity="1" cx="507" cy="231" rx="31" ry="15" />
</g>
<g>
	<text font-family="Helvetica" font-size="12" fill="#000000" xml:space="preserve" x="365" y="116">open_credit_card</text>
</g>
<g>
	<text font-family="Helvetica" font-size="12" fill="#000000" xml:space="preserve" x="660" y="274">repament</text>
</g>
<g>
	<text font-family="Helvetica" font-size="12" fill="#000000" xml:space="preserve" x="494" y="260">pay</text>
</g>
<g>
	<text font-family="Helvetica" font-size="12" fill="#000000" xml:space="preserve" x="415" y="406">enchashment</text>
</g>
<g>
	<line stroke="black" stroke-opacity="1" x1="664" y1="241" x2="658" y2="234" />
	<line stroke="black" stroke-opacity="1" x1="664" y1="241" x2="657" y2="246" />
	<line stroke-dasharray="4,4" stroke="black" stroke-opacity="1" x1="539" y1="232" x2="664" y2="241" />
</g>
<g>
	<line stroke="black" stroke-opacity="1" x1="475" y1="233" x2="468" y2="227" />
	<line stroke="black" stroke-opacity="1" x1="475" y1="233" x2="469" y2="239" />
	<line stroke="black" stroke-opacity="1" x1="168" y1="275" x2="475" y2="233" />
</g>
<g>
	<line stroke="black" stroke-opacity="1" x1="404" y1="103" x2="395" y2="101" />
	<line stroke="black" stroke-opacity="1" x1="404" y1="103" x2="402" y2="111" />
	<line stroke="black" stroke-opacity="1" x1="168" y1="261" x2="404" y2="103" />
</g>
<g>
	<line stroke="black" stroke-opacity="1" x1="664" y1="260" x2="655" y2="257" />
	<line stroke="black" stroke-opacity="1" x1="664" y1="260" x2="661" y2="268" />
	<line stroke-dasharray="4,4" stroke="black" stroke-opacity="1" x1="490" y1="361" x2="664" y2="260" />
</g>
<g>
	<line stroke="black" stroke-opacity="1" x1="434" y1="367" x2="430" y2="359" />
	<line stroke="black" stroke-opacity="1" x1="434" y1="367" x2="426" y2="370" />
	<line stroke="black" stroke-opacity="1" x1="168" y1="285" x2="434" y2="367" />
</g>
</svg>
