<?xml version="1.0" encoding="UTF-8" standalone="no"?>
<!-- Created with Bouml (http://bouml.free.fr/) -->
<!DOCTYPE svg PUBLIC "-//W3C//DTD SVG 1.1//EN" "http://www.w3.org/Graphics/SVG/1.1/DTD/svg11.dtd">
<svg width="787" height="418" version="1.1" xmlns="http://www.w3.org/2000/svg">
<g>
	<line stroke="black" stroke-dasharray="18,6"  stroke-opacity="1" x1="719" y1="52" x2="719" y2="418" />
</g>
<g>
	<line stroke="black" stroke-dasharray="18,6"  stroke-opacity="1" x1="555" y1="48" x2="555" y2="418" />
</g>
<g>
	<line stroke="black" stroke-dasharray="18,6"  stroke-opacity="1" x1="203" y1="55" x2="203" y2="418" />
</g>
<g>
	<line stroke="black" stroke-dasharray="18,6"  stroke-opacity="1" x1="394" y1="56" x2="394" y2="418" />
</g>
<g>
	<ellipse fill="#ffffc0" stroke="black" stroke-width="1" stroke-opacity="1" cx="394" cy="30" rx="10" ry="10" />
	<line stroke="black" stroke-opacity="1" x1="394" y1="20" x2="399" y2="15" />
	<line stroke="black" stroke-opacity="1" x1="394" y1="20" x2="399" y2="25" />
	<text font-family="Helvetica" font-size="12" fill="#000000" xml:space="preserve" text-anchor="middle" x="394" y="60">:online_bank_control</text>
</g>
<g>
	<rect fill="#cbcbcb" stroke="none" stroke-opacity="1" x="771" y="15" width="3" height="31" />
	<rect fill="#cbcbcb" stroke="none" stroke-opacity="1" x="668" y="43" width="106" height="3" />
	<rect fill="#ffffc0" stroke="black" stroke-width="1" stroke-opacity="1" x="664" y="11" width="107" height="32" />
	<text font-family="Helvetica" font-size="12" fill="#000000" xml:space="preserve" text-decoration="underline" text-anchor="middle" x="718" y="33">:online_bank</text>
</g>
<g>
	<ellipse fill="none" stroke="black" stroke-width="1" stroke-opacity="1" cx="76" cy="26" rx="3" ry="3" />
	<line stroke="black" stroke-opacity="1" x1="70" y1="31" x2="81" y2="31" />
	<line stroke="black" stroke-opacity="1" x1="76" y1="29" x2="76" y2="36" />
	<line stroke="black" stroke-opacity="1" x1="76" y1="36" x2="71" y2="42" />
	<line stroke="black" stroke-opacity="1" x1="76" y1="36" x2="81" y2="42" />
	<text font-family="Helvetica" font-size="12" fill="#000000" xml:space="preserve" text-anchor="middle" x="77" y="63">:kehu</text>
</g>
<g>
	<line stroke="black" stroke-dasharray="18,6"  stroke-opacity="1" x1="77" y1="64" x2="77" y2="418" />
</g>
<g>
	<line stroke="black" stroke-opacity="1" x1="185" y1="24" x2="193" y2="24" />
	<line stroke="black" stroke-opacity="1" x1="185" y1="14" x2="185" y2="34" />
	<ellipse fill="#ffffc0" stroke="black" stroke-width="1" stroke-opacity="1" cx="203" cy="24" rx="10" ry="10" />
	<text font-family="Helvetica" font-size="12" fill="#000000" xml:space="preserve" text-anchor="middle" x="204" y="54">:online_bank_boundary</text>
</g>
<g>
	<line stroke="black" stroke-opacity="1" x1="545" y1="27" x2="565" y2="27" />
	<ellipse fill="#ffffc0" stroke="black" stroke-width="1" stroke-opacity="1" cx="555" cy="17" rx="10" ry="10" />
	<text font-family="Helvetica" font-size="12" fill="#000000" xml:space="preserve" text-anchor="middle" x="555" y="47">:;online_bank</text>
</g>
<g>
	<rect fill="none" stroke="black" stroke-width="1" stroke-opacity="1" x="389" y="322" width="10" height="24" />
</g>
<g>
	<rect fill="none" stroke="black" stroke-width="1" stroke-opacity="1" x="72" y="169" width="10" height="39" />
</g>
<g>
	<rect fill="none" stroke="black" stroke-width="1" stroke-opacity="1" x="198" y="169" width="10" height="24" />
</g>
<g>
	<rect fill="none" stroke="black" stroke-width="1" stroke-opacity="1" x="389" y="367" width="10" height="39" />
</g>
<g>
	<rect fill="none" stroke="black" stroke-width="1" stroke-opacity="1" x="714" y="270" width="10" height="24" />
</g>
<g>
	<rect fill="none" stroke="black" stroke-width="1" stroke-opacity="1" x="714" y="322" width="10" height="39" />
</g>
<g>
	<rect fill="none" stroke="black" stroke-width="1" stroke-opacity="1" x="389" y="270" width="10" height="39" />
</g>
<g>
	<rect fill="none" stroke="black" stroke-width="1" stroke-opacity="1" x="198" y="230" width="10" height="39" />
</g>
<g>
	<rect fill="none" stroke="black" stroke-width="1" stroke-opacity="1" x="389" y="230" width="10" height="24" />
</g>
<g>
	<rect fill="none" stroke="black" stroke-width="1" stroke-opacity="1" x="198" y="367" width="10" height="24" />
</g>
<g>
	<line stroke="black" stroke-opacity="1" stroke-dasharray="4,4" x1="209" y1="372" x2="389" y2="372" />
	<path fill="none" stroke="black" stroke-opacity="1" d="M 213 368 L 209 372 L 213 376" />
</g>
<g>
	<line stroke="black" stroke-opacity="1" x1="400" y1="275" x2="714" y2="275" />
	<polygon fill="#000000" stroke="none" points="714,275 710,271 710,279" />
</g>
<g>
	<line stroke="black" stroke-opacity="1" stroke-dasharray="4,4" x1="400" y1="327" x2="714" y2="327" />
	<path fill="none" stroke="black" stroke-opacity="1" d="M 404 323 L 400 327 L 404 331" />
</g>
<g>
	<line stroke="black" stroke-opacity="1" x1="83" y1="174" x2="198" y2="174" />
	<polygon fill="#000000" stroke="none" points="198,174 194,170 194,178" />
</g>
<g>
	<line stroke="black" stroke-opacity="1" x1="209" y1="235" x2="389" y2="235" />
	<polygon fill="#000000" stroke="none" points="389,235 385,231 385,239" />
</g>
<g>
	<text font-family="Helvetica" font-size="12" fill="#000000" xml:space="preserve" x="489" y="257">check_if_existss()</text>
</g>
<g>
	<text font-family="Helvetica" font-size="12" fill="#000000" xml:space="preserve" x="83" y="158">set credit card</text>
</g>
<g>
	<text font-family="Helvetica" font-size="12" fill="#000000" xml:space="preserve" x="519" y="311">return info</text>
</g>
<g>
	<text font-family="Helvetica" font-size="12" fill="#000000" xml:space="preserve" x="258" y="356">display info</text>
</g>
<g>
	<text font-family="Helvetica" font-size="12" fill="#000000" xml:space="preserve" x="245" y="217">inquire_info()</text>
</g>
</svg>
