<?xml version="1.0" encoding="UTF-8" standalone="no"?>
<!-- Created with Bouml (http://bouml.free.fr/) -->
<!DOCTYPE svg PUBLIC "-//W3C//DTD SVG 1.1//EN" "http://www.w3.org/Graphics/SVG/1.1/DTD/svg11.dtd">
<svg width="660" height="571" version="1.1" xmlns="http://www.w3.org/2000/svg">
<g>
	<line stroke="black" stroke-dasharray="18,6"  stroke-opacity="1" x1="409" y1="45" x2="409" y2="571" />
</g>
<g>
	<rect fill="#cbcbcb" stroke="none" stroke-opacity="1" x="644" y="8" width="3" height="31" />
	<rect fill="#cbcbcb" stroke="none" stroke-opacity="1" x="603" y="36" width="44" height="3" />
	<rect fill="#ffffc0" stroke="black" stroke-width="1" stroke-opacity="1" x="599" y="4" width="45" height="32" />
	<text font-family="Helvetica" font-size="12" fill="#000000" xml:space="preserve" text-decoration="underline" text-anchor="middle" x="622" y="26">:DB</text>
</g>
<g>
	<ellipse fill="none" stroke="black" stroke-width="1" stroke-opacity="1" cx="68" cy="7" rx="3" ry="3" />
	<line stroke="black" stroke-opacity="1" x1="62" y1="12" x2="73" y2="12" />
	<line stroke="black" stroke-opacity="1" x1="68" y1="10" x2="68" y2="17" />
	<line stroke="black" stroke-opacity="1" x1="68" y1="17" x2="63" y2="23" />
	<line stroke="black" stroke-opacity="1" x1="68" y1="17" x2="73" y2="23" />
	<text font-family="Helvetica" font-size="12" fill="#000000" xml:space="preserve" text-anchor="middle" x="69" y="44">:kehu</text>
</g>
<g>
	<line stroke="black" stroke-dasharray="18,6"  stroke-opacity="1" x1="69" y1="45" x2="69" y2="571" />
</g>
<g>
	<line stroke="black" stroke-dasharray="18,6"  stroke-opacity="1" x1="623" y1="45" x2="623" y2="571" />
</g>
<g>
	<line stroke="black" stroke-dasharray="18,6"  stroke-opacity="1" x1="210" y1="45" x2="210" y2="571" />
</g>
<g>
	<line stroke="black" stroke-opacity="1" x1="192" y1="14" x2="200" y2="14" />
	<line stroke="black" stroke-opacity="1" x1="192" y1="4" x2="192" y2="24" />
	<ellipse fill="#ffffc0" stroke="black" stroke-width="1" stroke-opacity="1" cx="210" cy="14" rx="10" ry="10" />
	<text font-family="Helvetica" font-size="12" fill="#000000" xml:space="preserve" text-anchor="middle" x="211" y="44">:online_bank_boundary</text>
</g>
<g>
	<rect fill="none" stroke="black" stroke-width="1" stroke-opacity="1" x="64" y="117" width="10" height="39" />
</g>
<g>
	<rect fill="none" stroke="black" stroke-width="1" stroke-opacity="1" x="618" y="445" width="10" height="24" />
</g>
<g>
	<rect fill="none" stroke="black" stroke-width="1" stroke-opacity="1" x="404" y="520" width="10" height="39" />
</g>
<g>
	<rect fill="none" stroke="black" stroke-width="1" stroke-opacity="1" x="205" y="520" width="10" height="24" />
</g>
<g>
	<rect fill="none" stroke="black" stroke-width="1" stroke-opacity="1" x="618" y="363" width="10" height="39" />
</g>
<g>
	<rect fill="none" stroke="black" stroke-width="1" stroke-opacity="1" x="404" y="363" width="10" height="24" />
</g>
<g>
	<rect fill="none" stroke="black" stroke-width="1" stroke-opacity="1" x="404" y="445" width="10" height="39" />
</g>
<g>
	<ellipse fill="#ffffc0" stroke="black" stroke-width="1" stroke-opacity="1" cx="409" cy="19" rx="10" ry="10" />
	<line stroke="black" stroke-opacity="1" x1="409" y1="9" x2="414" y2="4" />
	<line stroke="black" stroke-opacity="1" x1="409" y1="9" x2="414" y2="14" />
	<text font-family="Helvetica" font-size="12" fill="#000000" xml:space="preserve" text-anchor="middle" x="409" y="49">:online_bank_control</text>
</g>
<g>
	<rect fill="none" stroke="black" stroke-width="1" stroke-opacity="1" x="205" y="117" width="10" height="24" />
</g>
<g>
	<rect fill="none" stroke="black" stroke-width="1" stroke-opacity="1" x="64" y="205" width="10" height="39" />
</g>
<g>
	<rect fill="none" stroke="black" stroke-width="1" stroke-opacity="1" x="404" y="261" width="10" height="24" />
</g>
<g>
	<rect fill="none" stroke="black" stroke-width="1" stroke-opacity="1" x="404" y="307" width="10" height="39" />
</g>
<g>
	<rect fill="none" stroke="black" stroke-width="1" stroke-opacity="1" x="618" y="307" width="10" height="24" />
</g>
<g>
	<rect fill="none" stroke="black" stroke-width="1" stroke-opacity="1" x="205" y="205" width="10" height="24" />
</g>
<g>
	<rect fill="none" stroke="black" stroke-width="1" stroke-opacity="1" x="205" y="161" width="10" height="39" />
</g>
<g>
	<rect fill="none" stroke="black" stroke-width="1" stroke-opacity="1" x="205" y="261" width="10" height="39" />
</g>
<g>
	<line stroke="black" stroke-opacity="1" x1="415" y1="450" x2="618" y2="450" />
	<polygon fill="#000000" stroke="none" points="618,450 614,446 614,454" />
</g>
<g>
	<line stroke="black" stroke-opacity="1" stroke-dasharray="4,4" x1="415" y1="368" x2="618" y2="368" />
	<path fill="none" stroke="black" stroke-opacity="1" d="M 419 364 L 415 368 L 419 372" />
</g>
<g>
	<line stroke="black" stroke-opacity="1" x1="75" y1="122" x2="205" y2="122" />
	<polygon fill="#000000" stroke="none" points="205,122 201,118 201,126" />
</g>
<g>
	<path fill="none" stroke="black" stroke-opacity="1" d="M 217 162 L 234 162 L 234 169 L 217 169" />
	<polygon fill="#000000" stroke="none" points="217,169 221,173 221,165" />
</g>
<g>
	<line stroke="black" stroke-opacity="1" x1="415" y1="312" x2="618" y2="312" />
	<polygon fill="#000000" stroke="none" points="618,312 614,308 614,316" />
</g>
<g>
	<line stroke="black" stroke-opacity="1" x1="75" y1="210" x2="205" y2="210" />
	<polygon fill="#000000" stroke="none" points="205,210 201,206 201,214" />
</g>
<g>
	<line stroke="black" stroke-opacity="1" stroke-dasharray="4,4" x1="216" y1="525" x2="404" y2="525" />
	<path fill="none" stroke="black" stroke-opacity="1" d="M 220 521 L 216 525 L 220 529" />
</g>
<g>
	<line stroke="black" stroke-opacity="1" x1="216" y1="266" x2="404" y2="266" />
	<polygon fill="#000000" stroke="none" points="404,266 400,262 400,270" />
</g>
<g>
	<text font-family="Helvetica" font-size="12" fill="#000000" xml:space="preserve" x="486" y="432">delete()</text>
</g>
<g>
	<text font-family="Helvetica" font-size="12" fill="#000000" xml:space="preserve" x="487" y="350">if exists</text>
</g>
<g>
	<text font-family="Helvetica" font-size="12" fill="#000000" xml:space="preserve" x="110" y="192">enter id</text>
</g>
<g>
	<text font-family="Helvetica" font-size="12" fill="#000000" xml:space="preserve" x="180" y="148">get_user_id</text>
</g>
<g>
	<text font-family="Helvetica" font-size="12" fill="#000000" xml:space="preserve" x="488" y="294">query()</text>
</g>
<g>
	<text font-family="Helvetica" font-size="12" fill="#000000" xml:space="preserve" x="72" y="104">open_credit_card</text>
</g>
<g>
	<text font-family="Helvetica" font-size="12" fill="#000000" xml:space="preserve" x="280" y="507">success</text>
</g>
<g>
	<text font-family="Helvetica" font-size="12" fill="#000000" xml:space="preserve" x="262" y="248">delete user()</text>
</g>
</svg>
