<?xml version="1.0" encoding="UTF-8" standalone="no"?>
<!-- Created with Bouml (http://bouml.free.fr/) -->
<!DOCTYPE svg PUBLIC "-//W3C//DTD SVG 1.1//EN" "http://www.w3.org/Graphics/SVG/1.1/DTD/svg11.dtd">
<svg width="936" height="603" version="1.1" xmlns="http://www.w3.org/2000/svg">
<g>
	<line stroke="black" stroke-opacity="1" x1="245" y1="14" x2="253" y2="14" />
	<line stroke="black" stroke-opacity="1" x1="245" y1="4" x2="245" y2="24" />
	<ellipse fill="#ffffc0" stroke="black" stroke-width="1" stroke-opacity="1" cx="263" cy="14" rx="10" ry="10" />
	<text font-family="Helvetica" font-size="12" fill="#000000" xml:space="preserve" text-anchor="middle" x="263" y="44">:BankBoundry</text>
</g>
<g>
	<line stroke="black" stroke-dasharray="18,6"  stroke-opacity="1" x1="437" y1="45" x2="437" y2="603" />
</g>
<g>
	<line stroke="black" stroke-dasharray="18,6"  stroke-opacity="1" x1="118" y1="45" x2="118" y2="603" />
</g>
<g>
	<ellipse fill="#ffffc0" stroke="black" stroke-width="1" stroke-opacity="1" cx="437" cy="19" rx="10" ry="10" />
	<line stroke="black" stroke-opacity="1" x1="437" y1="9" x2="442" y2="4" />
	<line stroke="black" stroke-opacity="1" x1="437" y1="9" x2="442" y2="14" />
	<text font-family="Helvetica" font-size="12" fill="#000000" xml:space="preserve" text-anchor="middle" x="437" y="49">:one_card_control</text>
</g>
<g>
	<rect fill="#cbcbcb" stroke="none" stroke-opacity="1" x="920" y="16" width="3" height="31" />
	<rect fill="#cbcbcb" stroke="none" stroke-opacity="1" x="741" y="44" width="182" height="3" />
	<rect fill="#ffffc0" stroke="black" stroke-width="1" stroke-opacity="1" x="737" y="12" width="183" height="32" />
	<text font-family="Helvetica" font-size="12" fill="#000000" xml:space="preserve" text-decoration="underline" text-anchor="middle" x="829" y="34">:one_card_account_db</text>
</g>
<g>
	<line stroke="black" stroke-dasharray="18,6"  stroke-opacity="1" x1="263" y1="45" x2="263" y2="603" />
</g>
<g>
	<line stroke="black" stroke-dasharray="18,6"  stroke-opacity="1" x1="830" y1="53" x2="830" y2="603" />
</g>
<g>
	<line stroke="black" stroke-opacity="1" x1="645" y1="24" x2="665" y2="24" />
	<ellipse fill="#ffffc0" stroke="black" stroke-width="1" stroke-opacity="1" cx="655" cy="14" rx="10" ry="10" />
	<text font-family="Helvetica" font-size="12" fill="#000000" xml:space="preserve" text-anchor="middle" x="655" y="44">:one_card_account</text>
</g>
<g>
	<line stroke="black" stroke-dasharray="18,6"  stroke-opacity="1" x1="655" y1="45" x2="655" y2="603" />
</g>
<g>
	<ellipse fill="none" stroke="black" stroke-width="1" stroke-opacity="1" cx="117" cy="7" rx="3" ry="3" />
	<line stroke="black" stroke-opacity="1" x1="111" y1="12" x2="122" y2="12" />
	<line stroke="black" stroke-opacity="1" x1="117" y1="10" x2="117" y2="17" />
	<line stroke="black" stroke-opacity="1" x1="117" y1="17" x2="112" y2="23" />
	<line stroke="black" stroke-opacity="1" x1="117" y1="17" x2="122" y2="23" />
	<text font-family="Helvetica" font-size="12" fill="#000000" xml:space="preserve" text-anchor="middle" x="118" y="44">:bank_assistant</text>
</g>
<g>
	<rect fill="none" stroke="black" stroke-width="1" stroke-opacity="1" x="432" y="359" width="10" height="24" />
</g>
<g>
	<rect fill="none" stroke="black" stroke-width="1" stroke-opacity="1" x="258" y="105" width="10" height="24" />
</g>
<g>
	<rect fill="none" stroke="black" stroke-width="1" stroke-opacity="1" x="113" y="204" width="10" height="39" />
</g>
<g>
	<rect fill="none" stroke="black" stroke-width="1" stroke-opacity="1" x="113" y="105" width="10" height="39" />
</g>
<g>
	<rect fill="none" stroke="black" stroke-width="1" stroke-opacity="1" x="650" y="480" width="10" height="24" />
</g>
<g>
	<rect fill="none" stroke="black" stroke-width="1" stroke-opacity="1" x="432" y="500" width="10" height="24" />
</g>
<g>
	<rect fill="none" stroke="black" stroke-width="1" stroke-opacity="1" x="825" y="500" width="10" height="39" />
</g>
<g>
	<rect fill="none" stroke="black" stroke-width="1" stroke-opacity="1" x="258" y="359" width="10" height="39" />
</g>
<g>
	<rect fill="none" stroke="black" stroke-width="1" stroke-opacity="1" x="432" y="552" width="10" height="39" />
</g>
<g>
	<rect fill="none" stroke="black" stroke-width="1" stroke-opacity="1" x="432" y="425" width="10" height="39" />
</g>
<g>
	<rect fill="none" stroke="black" stroke-width="1" stroke-opacity="1" x="113" y="300" width="10" height="39" />
</g>
<g>
	<rect fill="none" stroke="black" stroke-width="1" stroke-opacity="1" x="432" y="480" width="10" height="39" />
</g>
<g>
	<rect fill="none" stroke="black" stroke-width="1" stroke-opacity="1" x="825" y="552" width="10" height="24" />
</g>
<g>
	<rect fill="none" stroke="black" stroke-width="1" stroke-opacity="1" x="258" y="300" width="10" height="24" />
</g>
<g>
	<rect fill="none" stroke="black" stroke-width="1" stroke-opacity="1" x="258" y="204" width="10" height="24" />
</g>
<g>
	<rect fill="none" stroke="black" stroke-width="1" stroke-opacity="1" x="825" y="425" width="10" height="24" />
</g>
<g>
	<line stroke="black" stroke-opacity="1" x1="443" y1="485" x2="650" y2="485" />
	<polygon fill="#000000" stroke="none" points="650,485 646,481 646,489" />
</g>
<g>
	<line stroke="black" stroke-opacity="1" x1="124" y1="110" x2="258" y2="110" />
	<polygon fill="#000000" stroke="none" points="258,110 254,106 254,114" />
</g>
<g>
	<line stroke="black" stroke-opacity="1" x1="269" y1="364" x2="432" y2="364" />
	<polygon fill="#000000" stroke="none" points="432,364 428,360 428,368" />
</g>
<g>
	<line stroke="black" stroke-opacity="1" x1="124" y1="305" x2="258" y2="305" />
	<polygon fill="#000000" stroke="none" points="258,305 254,301 254,309" />
</g>
<g>
	<line stroke="black" stroke-opacity="1" x1="443" y1="557" x2="825" y2="557" />
	<polygon fill="#000000" stroke="none" points="825,557 821,553 821,561" />
</g>
<g>
	<line stroke="black" stroke-opacity="1" x1="124" y1="209" x2="258" y2="209" />
	<polygon fill="#000000" stroke="none" points="258,209 254,205 254,213" />
</g>
<g>
	<line stroke="black" stroke-opacity="1" stroke-dasharray="4,4" x1="443" y1="505" x2="825" y2="505" />
	<path fill="none" stroke="black" stroke-opacity="1" d="M 447 501 L 443 505 L 447 509" />
</g>
<g>
	<line stroke="black" stroke-opacity="1" x1="443" y1="430" x2="825" y2="430" />
	<polygon fill="#000000" stroke="none" points="825,430 821,426 821,434" />
</g>
<g>
	<text font-family="Helvetica" font-size="12" fill="#000000" xml:space="preserve" x="139" y="198">enter_idcard</text>
</g>
<g>
	<text font-family="Helvetica" font-size="12" fill="#000000" xml:space="preserve" x="120" y="294">enter_new_passwd</text>
</g>
<g>
	<text font-family="Helvetica" font-size="12" fill="#000000" xml:space="preserve" x="274" y="353">change_passwd_of()</text>
</g>
<g>
	<text font-family="Helvetica" font-size="12" fill="#000000" xml:space="preserve" x="103" y="99">want_to_change_passwd</text>
</g>
<g>
	<text font-family="Helvetica" font-size="12" fill="#000000" xml:space="preserve" x="528" y="546">update()</text>
</g>
<g>
	<text font-family="Helvetica" font-size="12" fill="#000000" xml:space="preserve" x="476" y="480">change_passwd()</text>
</g>
<g>
	<text font-family="Helvetica" font-size="12" fill="#000000" xml:space="preserve" x="507" y="419">check_if_exist()</text>
</g>
</svg>
