<?xml version="1.0" encoding="UTF-8" standalone="no"?>
<!-- Created with Bouml (http://bouml.free.fr/) -->
<!DOCTYPE svg PUBLIC "-//W3C//DTD SVG 1.1//EN" "http://www.w3.org/Graphics/SVG/1.1/DTD/svg11.dtd">
<svg width="849" height="849" version="1.1" xmlns="http://www.w3.org/2000/svg">
<g>
	<line stroke="black" stroke-opacity="1" x1="685" y1="542" x2="705" y2="542" />
	<ellipse fill="#ffffc0" stroke="black" stroke-width="1" stroke-opacity="1" cx="695" cy="532" rx="10" ry="10" />
	<text font-family="Helvetica" font-size="12" fill="#000000" xml:space="preserve" font-weight="bold" text-anchor="middle" x="695" y="556">fixed_deposit</text>
	<line stroke="black" stroke-opacity="1" x1="630" y1="571" x2="760" y2="571" />
	<text font-family="Helvetica" font-size="12" fill="#000000" xml:space="preserve" x="634" y="585">dingqi_lilv</text>
	<text font-family="Helvetica" font-size="12" fill="#000000" xml:space="preserve" x="634" y="612">dingqi_nianxian</text>
	<text font-family="Helvetica" font-size="12" fill="#000000" xml:space="preserve" x="634" y="639">dingqi_shijian</text>
	<text font-family="Helvetica" font-size="12" fill="#000000" xml:space="preserve" x="634" y="666">benjin</text>
	<line stroke="black" stroke-opacity="1" x1="630" y1="681" x2="760" y2="681" />
</g>
<g>
	<line stroke="black" stroke-opacity="1" x1="724" y1="717" x2="744" y2="717" />
	<ellipse fill="#ffffc0" stroke="black" stroke-width="1" stroke-opacity="1" cx="734" cy="707" rx="10" ry="10" />
	<text font-family="Helvetica" font-size="12" fill="#000000" xml:space="preserve" font-weight="bold" text-anchor="middle" x="734" y="731">interest_table</text>
	<line stroke="black" stroke-opacity="1" x1="668" y1="746" x2="800" y2="746" />
	<text font-family="Helvetica" font-size="12" fill="#000000" xml:space="preserve" x="672" y="760">current_interest</text>
	<text font-family="Helvetica" font-size="12" fill="#000000" xml:space="preserve" x="672" y="787">fixed_interest_1</text>
	<text font-family="Helvetica" font-size="12" fill="#000000" xml:space="preserve" x="672" y="814">fixed_interest_5</text>
	<line stroke="black" stroke-opacity="1" x1="668" y1="829" x2="800" y2="829" />
</g>
<g>
	<line stroke="black" stroke-opacity="1" x1="354" y1="699" x2="374" y2="699" />
	<ellipse fill="#ffffc0" stroke="black" stroke-width="1" stroke-opacity="1" cx="364" cy="689" rx="10" ry="10" />
	<text font-family="Helvetica" font-size="12" fill="#000000" xml:space="preserve" font-weight="bold" text-anchor="middle" x="364" y="713">entity_consume_log</text>
	<line stroke="black" stroke-opacity="1" x1="280" y1="728" x2="448" y2="728" />
	<line stroke="black" stroke-opacity="1" x1="280" y1="736" x2="448" y2="736" />
	<text font-family="Helvetica" font-size="12" fill="#000000" xml:space="preserve" x="284" y="750">log_pay_info()</text>
	<text font-family="Helvetica" font-size="12" fill="#000000" xml:space="preserve" x="284" y="777">log_enchashment()</text>
	<text font-family="Helvetica" font-size="12" fill="#000000" xml:space="preserve" x="284" y="804">log_repayment()</text>
</g>
<g>
	<line stroke="black" stroke-opacity="1" x1="332" y1="52" x2="352" y2="52" />
	<ellipse fill="#ffffc0" stroke="black" stroke-width="1" stroke-opacity="1" cx="342" cy="42" rx="10" ry="10" />
	<text font-family="Helvetica" font-size="12" fill="#000000" xml:space="preserve" font-weight="bold" text-anchor="middle" x="342" y="66">one_card_account</text>
	<line stroke="black" stroke-opacity="1" x1="241" y1="81" x2="443" y2="81" />
	<text font-family="Helvetica" font-size="12" fill="#000000" xml:space="preserve" x="245" y="95">id</text>
	<text font-family="Helvetica" font-size="12" fill="#000000" xml:space="preserve" x="245" y="122">owner_name</text>
	<text font-family="Helvetica" font-size="12" fill="#000000" xml:space="preserve" x="245" y="149">id_card</text>
	<text font-family="Helvetica" font-size="12" fill="#000000" xml:space="preserve" x="245" y="176">address</text>
	<text font-family="Helvetica" font-size="12" fill="#000000" xml:space="preserve" x="245" y="203">phone_number</text>
	<text font-family="Helvetica" font-size="12" fill="#000000" xml:space="preserve" x="245" y="230">passwd</text>
	<text font-family="Helvetica" font-size="12" fill="#000000" xml:space="preserve" x="245" y="257">online_bank</text>
	<text font-family="Helvetica" font-size="12" fill="#000000" xml:space="preserve" x="245" y="284">online_name</text>
	<text font-family="Helvetica" font-size="12" fill="#000000" xml:space="preserve" x="245" y="311">online_passwd</text>
	<text font-family="Helvetica" font-size="12" fill="#000000" xml:space="preserve" x="245" y="338">lost</text>
	<line stroke="black" stroke-opacity="1" x1="241" y1="353" x2="443" y2="353" />
	<text font-family="Helvetica" font-size="12" fill="#000000" xml:space="preserve" x="245" y="367">set_name()</text>
	<text font-family="Helvetica" font-size="12" fill="#000000" xml:space="preserve" x="245" y="394">set_idcard()</text>
	<text font-family="Helvetica" font-size="12" fill="#000000" xml:space="preserve" x="245" y="421">set_address()</text>
	<text font-family="Helvetica" font-size="12" fill="#000000" xml:space="preserve" x="245" y="448">set_phone_number()</text>
	<text font-family="Helvetica" font-size="12" fill="#000000" xml:space="preserve" x="245" y="475">set_passwd()</text>
	<text font-family="Helvetica" font-size="12" fill="#000000" xml:space="preserve" x="245" y="502">get_sub_account()</text>
	<text font-family="Helvetica" font-size="12" fill="#000000" xml:space="preserve" x="245" y="529">set_online_bank_status()</text>
	<text font-family="Helvetica" font-size="12" fill="#000000" xml:space="preserve" x="245" y="556">withdrawal_money()</text>
	<text font-family="Helvetica" font-size="12" fill="#000000" xml:space="preserve" x="245" y="583">change_passwd()</text>
	<text font-family="Helvetica" font-size="12" fill="#000000" xml:space="preserve" x="245" y="610">deposit()</text>
</g>
<g>
	<line stroke="black" stroke-opacity="1" x1="520" y1="521" x2="540" y2="521" />
	<ellipse fill="#ffffc0" stroke="black" stroke-width="1" stroke-opacity="1" cx="530" cy="511" rx="10" ry="10" />
	<text font-family="Helvetica" font-size="12" fill="#000000" xml:space="preserve" font-weight="bold" text-anchor="middle" x="530" y="535">current_saving</text>
	<line stroke="black" stroke-opacity="1" x1="467" y1="550" x2="593" y2="550" />
	<text font-family="Helvetica" font-size="12" fill="#000000" xml:space="preserve" x="471" y="564">tianshu</text>
	<text font-family="Helvetica" font-size="12" fill="#000000" xml:space="preserve" x="471" y="591">benjin</text>
	<line stroke="black" stroke-opacity="1" x1="467" y1="606" x2="593" y2="606" />
</g>
<g>
	<line stroke="black" stroke-opacity="1" x1="650" y1="337" x2="670" y2="337" />
	<ellipse fill="#ffffc0" stroke="black" stroke-width="1" stroke-opacity="1" cx="660" cy="327" rx="10" ry="10" />
	<text font-family="Helvetica" font-size="12" fill="#000000" xml:space="preserve" font-weight="bold" text-anchor="middle" x="660" y="351">saving_info</text>
	<line stroke="black" stroke-opacity="1" x1="611" y1="366" x2="709" y2="366" />
	<line stroke="black" stroke-opacity="1" x1="611" y1="374" x2="709" y2="374" />
</g>
<g>
	<line stroke="black" stroke-opacity="1" x1="686" y1="34" x2="706" y2="34" />
	<ellipse fill="#ffffc0" stroke="black" stroke-width="1" stroke-opacity="1" cx="696" cy="24" rx="10" ry="10" />
	<text font-family="Helvetica" font-size="12" fill="#000000" xml:space="preserve" font-weight="bold" text-anchor="middle" x="696" y="48">saving_subaccount</text>
	<line stroke="black" stroke-opacity="1" x1="616" y1="63" x2="776" y2="63" />
	<text font-family="Helvetica" font-size="12" fill="#000000" xml:space="preserve" x="620" y="77">id</text>
	<line stroke="black" stroke-opacity="1" x1="616" y1="92" x2="776" y2="92" />
	<text font-family="Helvetica" font-size="12" fill="#000000" xml:space="preserve" x="620" y="106">add_huoqi()</text>
	<text font-family="Helvetica" font-size="12" fill="#000000" xml:space="preserve" x="620" y="133">add_dingqi()</text>
	<text font-family="Helvetica" font-size="12" fill="#000000" xml:space="preserve" x="620" y="160">add_dinghuo()</text>
	<text font-family="Helvetica" font-size="12" fill="#000000" xml:space="preserve" x="620" y="187">deposit()</text>
	<text font-family="Helvetica" font-size="12" fill="#000000" xml:space="preserve" x="620" y="214">withdrawal()</text>
	<text font-family="Helvetica" font-size="12" fill="#000000" xml:space="preserve" x="620" y="241">transfer_money()</text>
</g>
<g>
	<line stroke="black" stroke-opacity="1" x1="664" y1="316" x2="670" y2="311" />
	<line stroke="black" stroke-opacity="1" x1="664" y1="316" x2="659" y2="309" />
	<line stroke="black" stroke-opacity="1" x1="674" y1="256" x2="664" y2="316" />
	<polygon fill="#000000" stroke="black" stroke-opacity="1" points="674,256 678,262 672,267 667,260" />
</g>
<g>
	<line stroke="black" stroke-opacity="1" x1="615" y1="176" x2="606" y2="173" />
	<line stroke="black" stroke-opacity="1" x1="615" y1="176" x2="612" y2="184" />
	<line stroke="black" stroke-opacity="1" x1="443" y1="270" x2="615" y2="176" />
</g>
<g>
	<line stroke="black" stroke-opacity="1" x1="563" y1="500" x2="571" y2="498" />
	<line stroke="black" stroke-opacity="1" x1="563" y1="500" x2="561" y2="491" />
	<line stroke="black" stroke-opacity="1" x1="638" y1="381" x2="563" y2="500" />
	<polygon fill="#ffffff" stroke="black" stroke-opacity="1" points="638,381 639,389 631,391 629,382" />
</g>
<g>
	<line stroke="black" stroke-opacity="1" x1="697" y1="381" x2="752" y2="431" />
	<polygon fill="#ffffff" stroke="black" stroke-opacity="1" points="697,381 705,380 705,389 697,389" />
</g>
<g>
	<line stroke="black" stroke-opacity="1" x1="678" y1="521" x2="682" y2="514" />
	<line stroke="black" stroke-opacity="1" x1="678" y1="521" x2="671" y2="516" />
	<line stroke="black" stroke-opacity="1" x1="652" y1="381" x2="678" y2="521" />
	<polygon fill="#ffffff" stroke="black" stroke-opacity="1" points="652,381 658,385 654,392 647,387" />
</g>
<g>
	<line stroke="black" stroke-opacity="1" x1="720" y1="521" x2="727" y2="517" />
	<line stroke="black" stroke-opacity="1" x1="720" y1="521" x2="716" y2="513" />
	<line stroke="black" stroke-opacity="1" x1="744" y1="450" x2="720" y2="521" />
</g>
<g>
	<line stroke="black" stroke-opacity="1" x1="752" y1="431" x2="770" y2="436" />
</g>
<g>
	<line stroke="black" stroke-opacity="1" x1="770" y1="436" x2="744" y2="450" />
</g>
<g>
	<line stroke="black" stroke-opacity="1" x1="82" y1="508" x2="102" y2="508" />
	<ellipse fill="#ffffc0" stroke="black" stroke-width="1" stroke-opacity="1" cx="92" cy="498" rx="10" ry="10" />
	<text font-family="Helvetica" font-size="12" fill="#000000" xml:space="preserve" font-weight="bold" text-anchor="middle" x="92" y="522">entity_credit_card</text>
	<line stroke="black" stroke-opacity="1" x1="0" y1="537" x2="184" y2="537" />
	<line stroke="black" stroke-opacity="1" x1="0" y1="545" x2="184" y2="545" />
	<text font-family="Helvetica" font-size="12" fill="#000000" xml:space="preserve" x="4" y="559">check_if_enough()</text>
	<text font-family="Helvetica" font-size="12" fill="#000000" xml:space="preserve" x="4" y="586">spend_money()</text>
	<text font-family="Helvetica" font-size="12" fill="#000000" xml:space="preserve" x="4" y="613">enchashment_money()</text>
	<text font-family="Helvetica" font-size="12" fill="#000000" xml:space="preserve" x="4" y="640">check_if_over()</text>
	<text font-family="Helvetica" font-size="12" fill="#000000" xml:space="preserve" x="4" y="667">repaymenty()</text>
</g>
<g>
	<text font-family="Helvetica" font-size="12" fill="#000000" xml:space="preserve" x="221" y="306">1</text>
</g>
<g>
	<text font-family="Helvetica" font-size="12" fill="#000000" xml:space="preserve" x="74" y="466">*</text>
</g>
<g>
	<text font-family="Helvetica" font-size="12" fill="#000000" xml:space="preserve" x="706" y="500">*</text>
</g>
<g>
	<text font-family="Helvetica" font-size="12" fill="#000000" xml:space="preserve" x="552" y="479">*</text>
</g>
<g>
	<text font-family="Helvetica" font-size="12" fill="#000000" xml:space="preserve" x="688" y="413">&lt;&lt;vector&gt;&gt;</text>
</g>
<g>
	<text font-family="Helvetica" font-size="12" fill="#000000" xml:space="preserve" x="70" y="274">1</text>
</g>
<g>
	<text font-family="Helvetica" font-size="12" fill="#000000" xml:space="preserve" x="597" y="195">*</text>
</g>
<g>
	<text font-family="Helvetica" font-size="12" fill="#000000" xml:space="preserve" x="734" y="500">fixed_current</text>
</g>
<g>
	<text font-family="Helvetica" font-size="12" fill="#000000" xml:space="preserve" x="618" y="460">&lt;&lt;vector&gt;&gt;</text>
</g>
<g>
	<text font-family="Helvetica" font-size="12" fill="#000000" xml:space="preserve" x="647" y="295">1</text>
</g>
<g>
	<text font-family="Helvetica" font-size="12" fill="#000000" xml:space="preserve" x="473" y="164">&lt;&lt;vector&gt;&gt;</text>
</g>
<g>
	<text font-family="Helvetica" font-size="12" fill="#000000" xml:space="preserve" x="303" y="657">1</text>
</g>
<g>
	<text font-family="Helvetica" font-size="12" fill="#000000" xml:space="preserve" x="516" y="150">subaccount</text>
</g>
<g>
	<text font-family="Helvetica" font-size="12" fill="#000000" xml:space="preserve" x="122" y="247">1</text>
</g>
<g>
	<text font-family="Helvetica" font-size="12" fill="#000000" xml:space="preserve" x="686" y="500">fixed</text>
</g>
<g>
	<text font-family="Helvetica" font-size="12" fill="#000000" xml:space="preserve" x="97" y="274">1</text>
</g>
<g>
	<text font-family="Helvetica" font-size="12" fill="#000000" xml:space="preserve" x="453" y="289">1</text>
</g>
<g>
	<text font-family="Helvetica" font-size="12" fill="#000000" xml:space="preserve" x="554" y="449">&lt;&lt;vector&gt;&gt;</text>
</g>
<g>
	<text font-family="Helvetica" font-size="12" fill="#000000" xml:space="preserve" x="653" y="280">1</text>
</g>
<g>
	<text font-family="Helvetica" font-size="12" fill="#000000" xml:space="preserve" x="580" y="479">current</text>
</g>
<g>
	<text font-family="Helvetica" font-size="12" fill="#000000" xml:space="preserve" x="658" y="500">*</text>
</g>
<g>
	<ellipse fill="none" stroke="black" stroke-width="1" stroke-opacity="1" cx="87" cy="172" rx="6" ry="6" />
	<line stroke="black" stroke-opacity="1" x1="76" y1="183" x2="98" y2="183" />
	<line stroke="black" stroke-opacity="1" x1="87" y1="178" x2="87" y2="193" />
	<line stroke="black" stroke-opacity="1" x1="87" y1="193" x2="77" y2="205" />
	<line stroke="black" stroke-opacity="1" x1="87" y1="193" x2="97" y2="205" />
	<text font-family="Helvetica" font-size="12" fill="#000000" xml:space="preserve" font-weight="bold" text-anchor="middle" x="89" y="220">kehu</text>
	<line stroke="black" stroke-opacity="1" x1="66" y1="235" x2="112" y2="235" />
	<line stroke="black" stroke-opacity="1" x1="66" y1="243" x2="112" y2="243" />
</g>
<g>
	<line stroke="black" stroke-opacity="1" x1="89" y1="250" x2="92" y2="487" />
</g>
<g>
	<line stroke="black" stroke-opacity="1" x1="112" y1="219" x2="240" y2="278" />
</g>
<g>
	<line stroke="black" stroke-opacity="1" x1="110" y1="250" x2="328" y2="678" />
</g>
</svg>
