<?xml version="1.0" encoding="UTF-8" standalone="no"?>
<!-- Created with Bouml (http://bouml.free.fr/) -->
<!DOCTYPE svg PUBLIC "-//W3C//DTD SVG 1.1//EN" "http://www.w3.org/Graphics/SVG/1.1/DTD/svg11.dtd">
<svg width="827" height="681" version="1.1" xmlns="http://www.w3.org/2000/svg">
<g>
	<ellipse fill="none" stroke="black" stroke-width="1" stroke-opacity="1" cx="78" cy="7" rx="3" ry="3" />
	<line stroke="black" stroke-opacity="1" x1="72" y1="12" x2="83" y2="12" />
	<line stroke="black" stroke-opacity="1" x1="78" y1="10" x2="78" y2="17" />
	<line stroke="black" stroke-opacity="1" x1="78" y1="17" x2="73" y2="23" />
	<line stroke="black" stroke-opacity="1" x1="78" y1="17" x2="83" y2="23" />
	<text font-family="Helvetica" font-size="12" fill="#000000" xml:space="preserve" text-anchor="middle" x="79" y="44">:kehu</text>
</g>
<g>
	<line stroke="black" stroke-dasharray="18,6"  stroke-opacity="1" x1="385" y1="45" x2="385" y2="681" />
</g>
<g>
	<line stroke="black" stroke-opacity="1" x1="530" y1="24" x2="550" y2="24" />
	<ellipse fill="#ffffc0" stroke="black" stroke-width="1" stroke-opacity="1" cx="540" cy="14" rx="10" ry="10" />
	<text font-family="Helvetica" font-size="12" fill="#000000" xml:space="preserve" text-anchor="middle" x="540" y="44">:entity_credit_card</text>
</g>
<g>
	<line stroke="black" stroke-opacity="1" x1="659" y1="24" x2="679" y2="24" />
	<ellipse fill="#ffffc0" stroke="black" stroke-width="1" stroke-opacity="1" cx="669" cy="14" rx="10" ry="10" />
	<text font-family="Helvetica" font-size="12" fill="#000000" xml:space="preserve" text-anchor="middle" x="669" y="44">:entity_consume_log</text>
</g>
<g>
	<line stroke="black" stroke-dasharray="18,6"  stroke-opacity="1" x1="790" y1="45" x2="790" y2="681" />
</g>
<g>
	<rect fill="#cbcbcb" stroke="none" stroke-opacity="1" x="811" y="8" width="3" height="31" />
	<rect fill="#cbcbcb" stroke="none" stroke-opacity="1" x="770" y="36" width="44" height="3" />
	<rect fill="#ffffc0" stroke="black" stroke-width="1" stroke-opacity="1" x="766" y="4" width="45" height="32" />
	<text font-family="Helvetica" font-size="12" fill="#000000" xml:space="preserve" text-decoration="underline" text-anchor="middle" x="789" y="26">:DB</text>
</g>
<g>
	<line stroke="black" stroke-dasharray="18,6"  stroke-opacity="1" x1="669" y1="45" x2="669" y2="681" />
</g>
<g>
	<line stroke="black" stroke-dasharray="18,6"  stroke-opacity="1" x1="229" y1="45" x2="229" y2="681" />
</g>
<g>
	<line stroke="black" stroke-dasharray="18,6"  stroke-opacity="1" x1="79" y1="45" x2="79" y2="681" />
</g>
<g>
	<line stroke="black" stroke-dasharray="18,6"  stroke-opacity="1" x1="540" y1="45" x2="540" y2="681" />
</g>
<g>
	<line stroke="black" stroke-opacity="1" x1="211" y1="14" x2="219" y2="14" />
	<line stroke="black" stroke-opacity="1" x1="211" y1="4" x2="211" y2="24" />
	<ellipse fill="#ffffc0" stroke="black" stroke-width="1" stroke-opacity="1" cx="229" cy="14" rx="10" ry="10" />
	<text font-family="Helvetica" font-size="12" fill="#000000" xml:space="preserve" text-anchor="middle" x="229" y="44">:boundry_credit_card</text>
</g>
<g>
	<rect fill="none" stroke="black" stroke-width="1" stroke-opacity="1" x="224" y="312" width="10" height="39" />
</g>
<g>
	<rect fill="none" stroke="black" stroke-width="1" stroke-opacity="1" x="380" y="440" width="10" height="39" />
</g>
<g>
	<rect fill="none" stroke="black" stroke-width="1" stroke-opacity="1" x="224" y="121" width="10" height="24" />
</g>
<g>
	<rect fill="none" stroke="black" stroke-width="1" stroke-opacity="1" x="380" y="360" width="10" height="39" />
</g>
<g>
	<rect fill="none" stroke="black" stroke-width="1" stroke-opacity="1" x="224" y="630" width="10" height="24" />
</g>
<g>
	<rect fill="none" stroke="black" stroke-width="1" stroke-opacity="1" x="535" y="440" width="10" height="24" />
</g>
<g>
	<ellipse fill="#ffffc0" stroke="black" stroke-width="1" stroke-opacity="1" cx="385" cy="19" rx="10" ry="10" />
	<line stroke="black" stroke-opacity="1" x1="385" y1="9" x2="390" y2="4" />
	<line stroke="black" stroke-opacity="1" x1="385" y1="9" x2="390" y2="14" />
	<text font-family="Helvetica" font-size="12" fill="#000000" xml:space="preserve" text-anchor="middle" x="385" y="49">:control_credit_card</text>
</g>
<g>
	<rect fill="none" stroke="black" stroke-width="1" stroke-opacity="1" x="380" y="562" width="10" height="39" />
</g>
<g>
	<rect fill="none" stroke="black" stroke-width="1" stroke-opacity="1" x="785" y="562" width="10" height="24" />
</g>
<g>
	<rect fill="none" stroke="black" stroke-width="1" stroke-opacity="1" x="664" y="498" width="10" height="24" />
</g>
<g>
	<rect fill="none" stroke="black" stroke-width="1" stroke-opacity="1" x="380" y="630" width="10" height="39" />
</g>
<g>
	<rect fill="none" stroke="black" stroke-width="1" stroke-opacity="1" x="380" y="312" width="10" height="24" />
</g>
<g>
	<rect fill="none" stroke="black" stroke-width="1" stroke-opacity="1" x="380" y="498" width="10" height="39" />
</g>
<g>
	<rect fill="none" stroke="black" stroke-width="1" stroke-opacity="1" x="74" y="121" width="10" height="39" />
</g>
<g>
	<rect fill="none" stroke="black" stroke-width="1" stroke-opacity="1" x="224" y="192" width="10" height="24" />
</g>
<g>
	<rect fill="none" stroke="black" stroke-width="1" stroke-opacity="1" x="74" y="192" width="10" height="39" />
</g>
<g>
	<rect fill="none" stroke="black" stroke-width="1" stroke-opacity="1" x="535" y="360" width="10" height="24" />
</g>
<g>
	<line stroke="black" stroke-opacity="1" x1="391" y1="503" x2="664" y2="503" />
	<polygon fill="#000000" stroke="none" points="664,503 660,499 660,507" />
</g>
<g>
	<line stroke="black" stroke-opacity="1" x1="235" y1="318" x2="380" y2="318" />
	<polygon fill="#000000" stroke="none" points="380,318 376,314 376,322" />
</g>
<g>
	<line stroke="black" stroke-opacity="1" x1="391" y1="446" x2="535" y2="446" />
	<polygon fill="#000000" stroke="none" points="535,446 531,442 531,450" />
</g>
<g>
	<line stroke="black" stroke-opacity="1" x1="85" y1="126" x2="224" y2="126" />
	<polygon fill="#000000" stroke="none" points="224,126 220,122 220,130" />
</g>
<g>
	<line stroke="black" stroke-opacity="1" x1="391" y1="365" x2="535" y2="365" />
	<polygon fill="#000000" stroke="none" points="535,365 531,361 531,369" />
</g>
<g>
	<line stroke="black" stroke-opacity="1" stroke-dasharray="4,4" x1="235" y1="635" x2="380" y2="635" />
	<path fill="none" stroke="black" stroke-opacity="1" d="M 239 631 L 235 635 L 239 639" />
</g>
<g>
	<line stroke="black" stroke-opacity="1" x1="391" y1="567" x2="785" y2="567" />
	<polygon fill="#000000" stroke="none" points="785,567 781,563 781,571" />
</g>
<g>
	<line stroke="black" stroke-opacity="1" x1="85" y1="197" x2="224" y2="197" />
	<polygon fill="#000000" stroke="none" points="224,197 220,193 220,201" />
</g>
<g>
	<text font-family="Helvetica" font-size="12" fill="#000000" xml:space="preserve" x="472" y="485">log_enchashment()</text>
</g>
<g>
	<text font-family="Helvetica" font-size="12" fill="#000000" xml:space="preserve" x="114" y="179">set money</text>
</g>
<g>
	<text font-family="Helvetica" font-size="12" fill="#000000" xml:space="preserve" x="403" y="428">enchashment_money()</text>
</g>
<g>
	<text font-family="Helvetica" font-size="12" fill="#000000" xml:space="preserve" x="392" y="347">check_if_enough()</text>
</g>
<g>
	<text font-family="Helvetica" font-size="12" fill="#000000" xml:space="preserve" x="83" y="108">enter credita_card</text>
</g>
<g>
	<text font-family="Helvetica" font-size="12" fill="#000000" xml:space="preserve" x="277" y="617">success</text>
</g>
<g>
	<text font-family="Helvetica" font-size="12" fill="#000000" xml:space="preserve" x="287" y="300">enchashment()</text>
</g>
<g>
	<text font-family="Helvetica" font-size="12" fill="#000000" xml:space="preserve" x="555" y="549">update()</text>
</g>
</svg>
