<?xml version="1.0" encoding="UTF-8" standalone="no"?>
<!-- Created with Bouml (http://bouml.free.fr/) -->
<!DOCTYPE svg PUBLIC "-//W3C//DTD SVG 1.1//EN" "http://www.w3.org/Graphics/SVG/1.1/DTD/svg11.dtd">
<svg width="859" height="364" version="1.1" xmlns="http://www.w3.org/2000/svg">
<g>
	<ellipse fill="none" stroke="black" stroke-width="1" stroke-opacity="1" cx="166" cy="7" rx="3" ry="3" />
	<line stroke="black" stroke-opacity="1" x1="160" y1="12" x2="171" y2="12" />
	<line stroke="black" stroke-opacity="1" x1="166" y1="10" x2="166" y2="17" />
	<line stroke="black" stroke-opacity="1" x1="166" y1="17" x2="161" y2="23" />
	<line stroke="black" stroke-opacity="1" x1="166" y1="17" x2="171" y2="23" />
	<text font-family="Helvetica" font-size="12" fill="#000000" xml:space="preserve" text-anchor="middle" x="167" y="44">:bank_assistant</text>
</g>
<g>
	<line stroke="black" stroke-opacity="1" x1="595" y1="24" x2="615" y2="24" />
	<ellipse fill="#ffffc0" stroke="black" stroke-width="1" stroke-opacity="1" cx="605" cy="14" rx="10" ry="10" />
	<text font-family="Helvetica" font-size="12" fill="#000000" xml:space="preserve" text-anchor="middle" x="606" y="44">:saving_subaccount</text>
</g>
<g>
	<rect fill="#cbcbcb" stroke="none" stroke-opacity="1" x="843" y="8" width="3" height="31" />
	<rect fill="#cbcbcb" stroke="none" stroke-opacity="1" x="664" y="36" width="182" height="3" />
	<rect fill="#ffffc0" stroke="black" stroke-width="1" stroke-opacity="1" x="660" y="4" width="183" height="32" />
	<text font-family="Helvetica" font-size="12" fill="#000000" xml:space="preserve" text-decoration="underline" text-anchor="middle" x="752" y="26">:one_card_account_db</text>
</g>
<g>
	<line stroke="black" stroke-opacity="1" x1="321" y1="14" x2="329" y2="14" />
	<line stroke="black" stroke-opacity="1" x1="321" y1="4" x2="321" y2="24" />
	<ellipse fill="#ffffc0" stroke="black" stroke-width="1" stroke-opacity="1" cx="339" cy="14" rx="10" ry="10" />
	<text font-family="Helvetica" font-size="12" fill="#000000" xml:space="preserve" text-anchor="middle" x="339" y="44">:BankBoundry</text>
</g>
<g>
	<line stroke="black" stroke-dasharray="18,6"  stroke-opacity="1" x1="753" y1="45" x2="753" y2="364" />
</g>
<g>
	<line stroke="black" stroke-dasharray="18,6"  stroke-opacity="1" x1="167" y1="45" x2="167" y2="364" />
</g>
<g>
	<line stroke="black" stroke-dasharray="18,6"  stroke-opacity="1" x1="605" y1="45" x2="605" y2="364" />
</g>
<g>
	<line stroke="black" stroke-dasharray="18,6"  stroke-opacity="1" x1="339" y1="45" x2="339" y2="364" />
</g>
<g>
	<line stroke="black" stroke-opacity="1" x1="449" y1="24" x2="469" y2="24" />
	<ellipse fill="#ffffc0" stroke="black" stroke-width="1" stroke-opacity="1" cx="459" cy="14" rx="10" ry="10" />
	<text font-family="Helvetica" font-size="12" fill="#000000" xml:space="preserve" text-anchor="middle" x="459" y="44">:one_card_account</text>
</g>
<g>
	<line stroke="black" stroke-dasharray="18,6"  stroke-opacity="1" x1="459" y1="45" x2="459" y2="364" />
</g>
<g>
	<rect fill="none" stroke="black" stroke-width="1" stroke-opacity="1" x="162" y="68" width="10" height="39" />
</g>
<g>
	<rect fill="none" stroke="black" stroke-width="1" stroke-opacity="1" x="334" y="250" width="10" height="24" />
</g>
<g>
	<rect fill="none" stroke="black" stroke-width="1" stroke-opacity="1" x="162" y="250" width="10" height="39" />
</g>
<g>
	<rect fill="none" stroke="black" stroke-width="1" stroke-opacity="1" x="334" y="199" width="10" height="24" />
</g>
<g>
	<rect fill="none" stroke="black" stroke-width="1" stroke-opacity="1" x="600" y="278" width="10" height="43" />
</g>
<g>
	<rect fill="none" stroke="black" stroke-width="1" stroke-opacity="1" x="334" y="290" width="10" height="39" />
</g>
<g>
	<rect fill="none" stroke="black" stroke-width="1" stroke-opacity="1" x="334" y="68" width="10" height="24" />
</g>
<g>
	<rect fill="none" stroke="black" stroke-width="1" stroke-opacity="1" x="162" y="199" width="10" height="39" />
</g>
<g>
	<rect fill="none" stroke="black" stroke-width="1" stroke-opacity="1" x="454" y="279" width="10" height="73" />
</g>
<g>
	<rect fill="none" stroke="black" stroke-width="1" stroke-opacity="1" x="748" y="316" width="10" height="33" />
</g>
<g>
	<line stroke="black" stroke-opacity="1" x1="173" y1="73" x2="334" y2="73" />
	<polygon fill="#000000" stroke="none" points="334,73 330,69 330,77" />
</g>
<g>
	<line stroke="black" stroke-opacity="1" x1="465" y1="342" x2="748" y2="342" />
	<polygon fill="#000000" stroke="none" points="748,342 744,338 744,346" />
</g>
<g>
	<line stroke="black" stroke-opacity="1" x1="345" y1="317" x2="454" y2="317" />
	<polygon fill="#000000" stroke="none" points="454,317 450,313 450,321" />
</g>
<g>
	<line stroke="black" stroke-opacity="1" x1="173" y1="204" x2="334" y2="204" />
	<polygon fill="#000000" stroke="none" points="334,204 330,200 330,208" />
</g>
<g>
	<line stroke="black" stroke-opacity="1" x1="465" y1="314" x2="600" y2="314" />
	<polygon fill="#000000" stroke="none" points="600,314 596,310 596,318" />
</g>
<g>
	<text font-family="Helvetica" font-size="12" fill="#000000" xml:space="preserve" x="200" y="193">enter_money</text>
</g>
<g>
	<text font-family="Helvetica" font-size="12" fill="#000000" xml:space="preserve" x="490" y="303">deposit()</text>
</g>
<g>
	<text font-family="Helvetica" font-size="12" fill="#000000" xml:space="preserve" x="218" y="244">submit</text>
</g>
<g>
	<text font-family="Helvetica" font-size="12" fill="#000000" xml:space="preserve" x="186" y="62">enter_subaccount</text>
</g>
<g>
	<text font-family="Helvetica" font-size="12" fill="#000000" xml:space="preserve" x="323" y="306">withdrawal_money()</text>
</g>
<g>
	<text font-family="Helvetica" font-size="12" fill="#000000" xml:space="preserve" x="561" y="331">update()</text>
</g>
<g>
	<line stroke="black" stroke-opacity="1" x1="173" y1="255" x2="334" y2="255" />
	<polygon fill="#000000" stroke="none" points="334,255 330,251 330,259" />
</g>
</svg>
