<?xml version="1.0" encoding="UTF-8" standalone="no"?>
<!-- Created with Bouml (http://bouml.free.fr/) -->
<!DOCTYPE svg PUBLIC "-//W3C//DTD SVG 1.1//EN" "http://www.w3.org/Graphics/SVG/1.1/DTD/svg11.dtd">
<svg width="728" height="584" version="1.1" xmlns="http://www.w3.org/2000/svg">
<g>
	<ellipse fill="#ffffc0" stroke="black" stroke-width="1" stroke-opacity="1" cx="406" cy="19" rx="10" ry="10" />
	<line stroke="black" stroke-opacity="1" x1="406" y1="9" x2="411" y2="4" />
	<line stroke="black" stroke-opacity="1" x1="406" y1="9" x2="411" y2="14" />
	<text font-family="Helvetica" font-size="12" fill="#000000" xml:space="preserve" text-anchor="middle" x="407" y="49">:plan_ctrl</text>
</g>
<g>
	<line stroke="black" stroke-opacity="1" x1="245" y1="14" x2="253" y2="14" />
	<line stroke="black" stroke-opacity="1" x1="245" y1="4" x2="245" y2="24" />
	<ellipse fill="#ffffc0" stroke="black" stroke-width="1" stroke-opacity="1" cx="263" cy="14" rx="10" ry="10" />
	<text font-family="Helvetica" font-size="12" fill="#000000" xml:space="preserve" text-anchor="middle" x="263" y="44">:sys_boundry</text>
</g>
<g>
	<line stroke="black" stroke-dasharray="18,6"  stroke-opacity="1" x1="263" y1="45" x2="263" y2="584" />
</g>
<g>
	<line stroke="black" stroke-opacity="1" x1="504" y1="24" x2="524" y2="24" />
	<ellipse fill="#ffffc0" stroke="black" stroke-width="1" stroke-opacity="1" cx="514" cy="14" rx="10" ry="10" />
	<text font-family="Helvetica" font-size="12" fill="#000000" xml:space="preserve" text-anchor="middle" x="515" y="44">:modify_plan</text>
</g>
<g>
	<line stroke="black" stroke-dasharray="18,6"  stroke-opacity="1" x1="514" y1="45" x2="514" y2="584" />
</g>
<g>
	<ellipse fill="none" stroke="black" stroke-width="1" stroke-opacity="1" cx="73" cy="7" rx="3" ry="3" />
	<line stroke="black" stroke-opacity="1" x1="67" y1="12" x2="78" y2="12" />
	<line stroke="black" stroke-opacity="1" x1="73" y1="10" x2="73" y2="17" />
	<line stroke="black" stroke-opacity="1" x1="73" y1="17" x2="68" y2="23" />
	<line stroke="black" stroke-opacity="1" x1="73" y1="17" x2="78" y2="23" />
	<text font-family="Helvetica" font-size="12" fill="#000000" xml:space="preserve" text-anchor="middle" x="74" y="44">:bank_assistant</text>
</g>
<g>
	<line stroke="black" stroke-dasharray="18,6"  stroke-opacity="1" x1="74" y1="45" x2="74" y2="584" />
</g>
<g>
	<line stroke="black" stroke-dasharray="18,6"  stroke-opacity="1" x1="406" y1="45" x2="406" y2="584" />
</g>
<g>
	<rect fill="#cbcbcb" stroke="none" stroke-opacity="1" x="712" y="8" width="3" height="31" />
	<rect fill="#cbcbcb" stroke="none" stroke-opacity="1" x="671" y="36" width="44" height="3" />
	<rect fill="#ffffc0" stroke="black" stroke-width="1" stroke-opacity="1" x="667" y="4" width="45" height="32" />
	<text font-family="Helvetica" font-size="12" fill="#000000" xml:space="preserve" text-decoration="underline" text-anchor="middle" x="690" y="26">:DB</text>
</g>
<g>
	<line stroke="black" stroke-dasharray="18,6"  stroke-opacity="1" x1="691" y1="45" x2="691" y2="584" />
</g>
<g>
	<rect fill="none" stroke="black" stroke-width="1" stroke-opacity="1" x="401" y="397" width="10" height="39" />
</g>
<g>
	<rect fill="none" stroke="black" stroke-width="1" stroke-opacity="1" x="509" y="397" width="10" height="24" />
</g>
<g>
	<rect fill="none" stroke="black" stroke-width="1" stroke-opacity="1" x="69" y="112" width="10" height="39" />
</g>
<g>
	<rect fill="none" stroke="black" stroke-width="1" stroke-opacity="1" x="401" y="189" width="10" height="24" />
</g>
<g>
	<rect fill="none" stroke="black" stroke-width="1" stroke-opacity="1" x="401" y="533" width="10" height="39" />
</g>
<g>
	<rect fill="none" stroke="black" stroke-width="1" stroke-opacity="1" x="258" y="533" width="10" height="24" />
</g>
<g>
	<rect fill="none" stroke="black" stroke-width="1" stroke-opacity="1" x="258" y="112" width="10" height="24" />
</g>
<g>
	<rect fill="none" stroke="black" stroke-width="1" stroke-opacity="1" x="258" y="189" width="10" height="39" />
</g>
<g>
	<line stroke="black" stroke-opacity="1" stroke-dasharray="4,4" x1="269" y1="538" x2="401" y2="538" />
	<path fill="none" stroke="black" stroke-opacity="1" d="M 273 534 L 269 538 L 273 542" />
</g>
<g>
	<line stroke="black" stroke-opacity="1" x1="412" y1="402" x2="509" y2="402" />
	<polygon fill="#000000" stroke="none" points="509,402 505,398 505,406" />
</g>
<g>
	<line stroke="black" stroke-opacity="1" x1="80" y1="117" x2="258" y2="117" />
	<polygon fill="#000000" stroke="none" points="258,117 254,113 254,121" />
</g>
<g>
	<line stroke="black" stroke-opacity="1" x1="269" y1="194" x2="401" y2="194" />
	<polygon fill="#000000" stroke="none" points="401,194 397,190 397,198" />
</g>
<g>
	<text font-family="Helvetica" font-size="12" fill="#000000" xml:space="preserve" x="296" y="520">successed</text>
</g>
<g>
	<text font-family="Helvetica" font-size="12" fill="#000000" xml:space="preserve" x="436" y="384">stop()</text>
</g>
<g>
	<text font-family="Helvetica" font-size="12" fill="#000000" xml:space="preserve" x="113" y="99">cancel plan</text>
</g>
<g>
	<text font-family="Helvetica" font-size="12" fill="#000000" xml:space="preserve" x="284" y="177">calcen_current_plan()</text>
</g>
</svg>
