<?xml version="1.0" encoding="UTF-8" standalone="no"?>
<!-- Created with Bouml (http://bouml.free.fr/) -->
<!DOCTYPE svg PUBLIC "-//W3C//DTD SVG 1.1//EN" "http://www.w3.org/Graphics/SVG/1.1/DTD/svg11.dtd">
<svg width="703" height="576" version="1.1" xmlns="http://www.w3.org/2000/svg">
<g>
	<line stroke="black" stroke-dasharray="18,6"  stroke-opacity="1" x1="81" y1="45" x2="81" y2="576" />
</g>
<g>
	<line stroke="black" stroke-dasharray="18,6"  stroke-opacity="1" x1="666" y1="45" x2="666" y2="576" />
</g>
<g>
	<ellipse fill="none" stroke="black" stroke-width="1" stroke-opacity="1" cx="80" cy="7" rx="3" ry="3" />
	<line stroke="black" stroke-opacity="1" x1="74" y1="12" x2="85" y2="12" />
	<line stroke="black" stroke-opacity="1" x1="80" y1="10" x2="80" y2="17" />
	<line stroke="black" stroke-opacity="1" x1="80" y1="17" x2="75" y2="23" />
	<line stroke="black" stroke-opacity="1" x1="80" y1="17" x2="85" y2="23" />
	<text font-family="Helvetica" font-size="12" fill="#000000" xml:space="preserve" text-anchor="middle" x="81" y="44">:bank_assistant</text>
</g>
<g>
	<line stroke="black" stroke-opacity="1" x1="506" y1="24" x2="526" y2="24" />
	<ellipse fill="#ffffc0" stroke="black" stroke-width="1" stroke-opacity="1" cx="516" cy="14" rx="10" ry="10" />
	<text font-family="Helvetica" font-size="12" fill="#000000" xml:space="preserve" text-anchor="middle" x="517" y="44">:sys_account</text>
</g>
<g>
	<line stroke="black" stroke-opacity="1" x1="194" y1="14" x2="202" y2="14" />
	<line stroke="black" stroke-opacity="1" x1="194" y1="4" x2="194" y2="24" />
	<ellipse fill="#ffffc0" stroke="black" stroke-width="1" stroke-opacity="1" cx="212" cy="14" rx="10" ry="10" />
	<text font-family="Helvetica" font-size="12" fill="#000000" xml:space="preserve" text-anchor="middle" x="212" y="44">:sys_boundry</text>
</g>
<g>
	<line stroke="black" stroke-dasharray="18,6"  stroke-opacity="1" x1="212" y1="45" x2="212" y2="576" />
</g>
<g>
	<rect fill="#cbcbcb" stroke="none" stroke-opacity="1" x="687" y="8" width="3" height="31" />
	<rect fill="#cbcbcb" stroke="none" stroke-opacity="1" x="646" y="36" width="44" height="3" />
	<rect fill="#ffffc0" stroke="black" stroke-width="1" stroke-opacity="1" x="642" y="4" width="45" height="32" />
	<text font-family="Helvetica" font-size="12" fill="#000000" xml:space="preserve" text-decoration="underline" text-anchor="middle" x="665" y="26">:DB</text>
</g>
<g>
	<line stroke="black" stroke-dasharray="18,6"  stroke-opacity="1" x1="516" y1="45" x2="516" y2="576" />
</g>
<g>
	<ellipse fill="#ffffc0" stroke="black" stroke-width="1" stroke-opacity="1" cx="344" cy="19" rx="10" ry="10" />
	<line stroke="black" stroke-opacity="1" x1="344" y1="9" x2="349" y2="4" />
	<line stroke="black" stroke-opacity="1" x1="344" y1="9" x2="349" y2="14" />
	<text font-family="Helvetica" font-size="12" fill="#000000" xml:space="preserve" text-anchor="middle" x="344" y="49">:modify_user</text>
</g>
<g>
	<line stroke="black" stroke-dasharray="18,6"  stroke-opacity="1" x1="344" y1="45" x2="344" y2="576" />
</g>
<g>
	<rect fill="none" stroke="black" stroke-width="1" stroke-opacity="1" x="661" y="382" width="10" height="24" />
</g>
<g>
	<rect fill="none" stroke="black" stroke-width="1" stroke-opacity="1" x="661" y="455" width="10" height="39" />
</g>
<g>
	<rect fill="none" stroke="black" stroke-width="1" stroke-opacity="1" x="661" y="498" width="10" height="24" />
</g>
<g>
	<rect fill="none" stroke="black" stroke-width="1" stroke-opacity="1" x="76" y="113" width="10" height="39" />
</g>
<g>
	<rect fill="none" stroke="black" stroke-width="1" stroke-opacity="1" x="339" y="498" width="10" height="39" />
</g>
<g>
	<rect fill="none" stroke="black" stroke-width="1" stroke-opacity="1" x="339" y="523" width="10" height="39" />
</g>
<g>
	<rect fill="none" stroke="black" stroke-width="1" stroke-opacity="1" x="207" y="521" width="10" height="43" />
</g>
<g>
	<rect fill="none" stroke="black" stroke-width="1" stroke-opacity="1" x="339" y="260" width="10" height="24" />
</g>
<g>
	<rect fill="none" stroke="black" stroke-width="1" stroke-opacity="1" x="339" y="382" width="10" height="39" />
</g>
<g>
	<rect fill="none" stroke="black" stroke-width="1" stroke-opacity="1" x="76" y="193" width="10" height="39" />
</g>
<g>
	<rect fill="none" stroke="black" stroke-width="1" stroke-opacity="1" x="207" y="193" width="10" height="24" />
</g>
<g>
	<rect fill="none" stroke="black" stroke-width="1" stroke-opacity="1" x="339" y="455" width="10" height="24" />
</g>
<g>
	<rect fill="none" stroke="black" stroke-width="1" stroke-opacity="1" x="207" y="113" width="10" height="24" />
</g>
<g>
	<rect fill="none" stroke="black" stroke-width="1" stroke-opacity="1" x="207" y="260" width="10" height="39" />
</g>
<g>
	<line stroke="black" stroke-opacity="1" x1="87" y1="198" x2="207" y2="198" />
	<polygon fill="#000000" stroke="none" points="207,198 203,194 203,202" />
</g>
<g>
	<line stroke="black" stroke-opacity="1" stroke-dasharray="4,4" x1="350" y1="460" x2="661" y2="460" />
	<path fill="none" stroke="black" stroke-opacity="1" d="M 354 456 L 350 460 L 354 464" />
</g>
<g>
	<line stroke="black" stroke-opacity="1" stroke-dasharray="4,4" x1="218" y1="545" x2="339" y2="545" />
	<path fill="none" stroke="black" stroke-opacity="1" d="M 222 541 L 218 545 L 222 549" />
</g>
<g>
	<line stroke="black" stroke-opacity="1" x1="350" y1="503" x2="661" y2="503" />
	<polygon fill="#000000" stroke="none" points="661,503 657,499 657,507" />
</g>
<g>
	<line stroke="black" stroke-opacity="1" x1="87" y1="118" x2="207" y2="118" />
	<polygon fill="#000000" stroke="none" points="207,118 203,114 203,122" />
</g>
<g>
	<line stroke="black" stroke-opacity="1" x1="350" y1="387" x2="661" y2="387" />
	<polygon fill="#000000" stroke="none" points="661,387 657,383 657,391" />
</g>
<g>
	<line stroke="black" stroke-opacity="1" x1="218" y1="265" x2="339" y2="265" />
	<polygon fill="#000000" stroke="none" points="339,265 335,261 335,269" />
</g>
<g>
	<text font-family="Helvetica" font-size="12" fill="#000000" xml:space="preserve" x="237" y="247">user_delete()</text>
</g>
<g>
	<text font-family="Helvetica" font-size="12" fill="#000000" xml:space="preserve" x="450" y="442">if exists</text>
</g>
<g>
	<text font-family="Helvetica" font-size="12" fill="#000000" xml:space="preserve" x="249" y="527">disp info</text>
</g>
<g>
	<text font-family="Helvetica" font-size="12" fill="#000000" xml:space="preserve" x="113" y="180">click delete</text>
</g>
<g>
	<text font-family="Helvetica" font-size="12" fill="#000000" xml:space="preserve" x="475" y="485">delete()</text>
</g>
<g>
	<text font-family="Helvetica" font-size="12" fill="#000000" xml:space="preserve" x="475" y="369">query()</text>
</g>
<g>
	<text font-family="Helvetica" font-size="12" fill="#000000" xml:space="preserve" x="93" y="100">inter user info</text>
</g>
</svg>
