<?xml version="1.0" encoding="UTF-8" standalone="no"?>
<!-- Created with Bouml (http://bouml.free.fr/) -->
<!DOCTYPE svg PUBLIC "-//W3C//DTD SVG 1.1//EN" "http://www.w3.org/Graphics/SVG/1.1/DTD/svg11.dtd">
<svg width="900" height="648" version="1.1" xmlns="http://www.w3.org/2000/svg">
<g>
	<line stroke="black" stroke-opacity="1" x1="302" y1="14" x2="310" y2="14" />
	<line stroke="black" stroke-opacity="1" x1="302" y1="4" x2="302" y2="24" />
	<ellipse fill="#ffffc0" stroke="black" stroke-width="1" stroke-opacity="1" cx="320" cy="14" rx="10" ry="10" />
	<text font-family="Helvetica" font-size="12" fill="#000000" xml:space="preserve" text-anchor="middle" x="320" y="44">:BankBoundry</text>
</g>
<g>
	<line stroke="black" stroke-dasharray="18,6"  stroke-opacity="1" x1="142" y1="45" x2="142" y2="648" />
</g>
<g>
	<line stroke="black" stroke-dasharray="18,6"  stroke-opacity="1" x1="474" y1="45" x2="474" y2="648" />
</g>
<g>
	<line stroke="black" stroke-dasharray="18,6"  stroke-opacity="1" x1="640" y1="45" x2="640" y2="648" />
</g>
<g>
	<line stroke="black" stroke-opacity="1" x1="630" y1="24" x2="650" y2="24" />
	<ellipse fill="#ffffc0" stroke="black" stroke-width="1" stroke-opacity="1" cx="640" cy="14" rx="10" ry="10" />
	<text font-family="Helvetica" font-size="12" fill="#000000" xml:space="preserve" text-anchor="middle" x="640" y="44">:one_card_account</text>
</g>
<g>
	<ellipse fill="none" stroke="black" stroke-width="1" stroke-opacity="1" cx="141" cy="7" rx="3" ry="3" />
	<line stroke="black" stroke-opacity="1" x1="135" y1="12" x2="146" y2="12" />
	<line stroke="black" stroke-opacity="1" x1="141" y1="10" x2="141" y2="17" />
	<line stroke="black" stroke-opacity="1" x1="141" y1="17" x2="136" y2="23" />
	<line stroke="black" stroke-opacity="1" x1="141" y1="17" x2="146" y2="23" />
	<text font-family="Helvetica" font-size="12" fill="#000000" xml:space="preserve" text-anchor="middle" x="142" y="44">:bank_assistant</text>
</g>
<g>
	<line stroke="black" stroke-dasharray="18,6"  stroke-opacity="1" x1="794" y1="45" x2="794" y2="648" />
</g>
<g>
	<ellipse fill="#ffffc0" stroke="black" stroke-width="1" stroke-opacity="1" cx="474" cy="19" rx="10" ry="10" />
	<line stroke="black" stroke-opacity="1" x1="474" y1="9" x2="479" y2="4" />
	<line stroke="black" stroke-opacity="1" x1="474" y1="9" x2="479" y2="14" />
	<text font-family="Helvetica" font-size="12" fill="#000000" xml:space="preserve" text-anchor="middle" x="474" y="49">:one_card_control</text>
</g>
<g>
	<line stroke="black" stroke-dasharray="18,6"  stroke-opacity="1" x1="320" y1="45" x2="320" y2="648" />
</g>
<g>
	<rect fill="#cbcbcb" stroke="none" stroke-opacity="1" x="884" y="8" width="3" height="31" />
	<rect fill="#cbcbcb" stroke="none" stroke-opacity="1" x="705" y="36" width="182" height="3" />
	<rect fill="#ffffc0" stroke="black" stroke-width="1" stroke-opacity="1" x="701" y="4" width="183" height="32" />
	<text font-family="Helvetica" font-size="12" fill="#000000" xml:space="preserve" text-decoration="underline" text-anchor="middle" x="793" y="26">:one_card_account_db</text>
</g>
<g>
	<rect fill="none" stroke="black" stroke-width="1" stroke-opacity="1" x="789" y="442" width="10" height="39" />
</g>
<g>
	<rect fill="none" stroke="black" stroke-width="1" stroke-opacity="1" x="137" y="98" width="10" height="39" />
</g>
<g>
	<rect fill="none" stroke="black" stroke-width="1" stroke-opacity="1" x="469" y="597" width="10" height="39" />
</g>
<g>
	<rect fill="none" stroke="black" stroke-width="1" stroke-opacity="1" x="137" y="198" width="10" height="39" />
</g>
<g>
	<rect fill="none" stroke="black" stroke-width="1" stroke-opacity="1" x="469" y="365" width="10" height="39" />
</g>
<g>
	<rect fill="none" stroke="black" stroke-width="1" stroke-opacity="1" x="315" y="303" width="10" height="39" />
</g>
<g>
	<rect fill="none" stroke="black" stroke-width="1" stroke-opacity="1" x="315" y="98" width="10" height="24" />
</g>
<g>
	<rect fill="none" stroke="black" stroke-width="1" stroke-opacity="1" x="789" y="597" width="10" height="24" />
</g>
<g>
	<rect fill="none" stroke="black" stroke-width="1" stroke-opacity="1" x="469" y="506" width="10" height="39" />
</g>
<g>
	<rect fill="none" stroke="black" stroke-width="1" stroke-opacity="1" x="315" y="198" width="10" height="24" />
</g>
<g>
	<rect fill="none" stroke="black" stroke-width="1" stroke-opacity="1" x="469" y="303" width="10" height="24" />
</g>
<g>
	<rect fill="none" stroke="black" stroke-width="1" stroke-opacity="1" x="789" y="365" width="10" height="24" />
</g>
<g>
	<rect fill="none" stroke="black" stroke-width="1" stroke-opacity="1" x="635" y="506" width="10" height="24" />
</g>
<g>
	<rect fill="none" stroke="black" stroke-width="1" stroke-opacity="1" x="469" y="442" width="10" height="24" />
</g>
<g>
	<line stroke="black" stroke-opacity="1" stroke-dasharray="4,4" x1="480" y1="447" x2="789" y2="447" />
	<path fill="none" stroke="black" stroke-opacity="1" d="M 484 443 L 480 447 L 484 451" />
</g>
<g>
	<line stroke="black" stroke-opacity="1" x1="480" y1="602" x2="789" y2="602" />
	<polygon fill="#000000" stroke="none" points="789,602 785,598 785,606" />
</g>
<g>
	<line stroke="black" stroke-opacity="1" x1="480" y1="370" x2="789" y2="370" />
	<polygon fill="#000000" stroke="none" points="789,370 785,366 785,374" />
</g>
<g>
	<line stroke="black" stroke-opacity="1" x1="148" y1="103" x2="315" y2="103" />
	<polygon fill="#000000" stroke="none" points="315,103 311,99 311,107" />
</g>
<g>
	<line stroke="black" stroke-opacity="1" x1="148" y1="203" x2="315" y2="203" />
	<polygon fill="#000000" stroke="none" points="315,203 311,199 311,207" />
</g>
<g>
	<line stroke="black" stroke-opacity="1" x1="326" y1="308" x2="469" y2="308" />
	<polygon fill="#000000" stroke="none" points="469,308 465,304 465,312" />
</g>
<g>
	<line stroke="black" stroke-opacity="1" x1="480" y1="511" x2="635" y2="511" />
	<polygon fill="#000000" stroke="none" points="635,511 631,507 631,515" />
</g>
<g>
	<text font-family="Helvetica" font-size="12" fill="#000000" xml:space="preserve" x="304" y="297">open_online_bank_system_of()</text>
</g>
<g>
	<text font-family="Helvetica" font-size="12" fill="#000000" xml:space="preserve" x="555" y="359">check_if_exist()</text>
</g>
<g>
	<text font-family="Helvetica" font-size="12" fill="#000000" xml:space="preserve" x="134" y="192">enable_online_bank_system</text>
</g>
<g>
	<text font-family="Helvetica" font-size="12" fill="#000000" xml:space="preserve" x="452" y="500">set_online_bank_status()</text>
</g>
<g>
	<text font-family="Helvetica" font-size="12" fill="#000000" xml:space="preserve" x="577" y="436">if_exists</text>
</g>
<g>
	<text font-family="Helvetica" font-size="12" fill="#000000" xml:space="preserve" x="576" y="591">update()</text>
</g>
<g>
	<text font-family="Helvetica" font-size="12" fill="#000000" xml:space="preserve" x="180" y="92">enter_idcard</text>
</g>
</svg>
