<?xml version="1.0" encoding="UTF-8" standalone="no"?>
<!-- Created with Bouml (http://bouml.free.fr/) -->
<!DOCTYPE svg PUBLIC "-//W3C//DTD SVG 1.1//EN" "http://www.w3.org/Graphics/SVG/1.1/DTD/svg11.dtd">
<svg width="875" height="957" version="1.1" xmlns="http://www.w3.org/2000/svg">
<g>
	<line stroke="black" stroke-opacity="1" x1="764" y1="689" x2="784" y2="689" />
	<ellipse fill="#ffffc0" stroke="black" stroke-width="1" stroke-opacity="1" cx="774" cy="679" rx="10" ry="10" />
	<text font-family="Helvetica" font-size="12" fill="#000000" xml:space="preserve" font-weight="bold" text-anchor="middle" x="774" y="703">entity_consume_log</text>
	<line stroke="black" stroke-opacity="1" x1="690" y1="718" x2="858" y2="718" />
	<line stroke="black" stroke-opacity="1" x1="690" y1="726" x2="858" y2="726" />
	<text font-family="Helvetica" font-size="12" fill="#000000" xml:space="preserve" x="694" y="740">log_pay_info()</text>
	<text font-family="Helvetica" font-size="12" fill="#000000" xml:space="preserve" x="694" y="767">log_enchashment()</text>
	<text font-family="Helvetica" font-size="12" fill="#000000" xml:space="preserve" x="694" y="794">log_repayment()</text>
</g>
<g>
	<line stroke="black" stroke-opacity="1" x1="145" y1="40" x2="165" y2="40" />
	<ellipse fill="#ffffc0" stroke="black" stroke-width="1" stroke-opacity="1" cx="155" cy="30" rx="10" ry="10" />
	<text font-family="Helvetica" font-size="12" fill="#000000" xml:space="preserve" font-weight="bold" text-anchor="middle" x="155" y="54">interest_table</text>
	<line stroke="black" stroke-opacity="1" x1="89" y1="69" x2="221" y2="69" />
	<text font-family="Helvetica" font-size="12" fill="#000000" xml:space="preserve" x="93" y="83">current_interest</text>
	<text font-family="Helvetica" font-size="12" fill="#000000" xml:space="preserve" x="93" y="110">fixed_interest_1</text>
	<text font-family="Helvetica" font-size="12" fill="#000000" xml:space="preserve" x="93" y="137">fixed_interest_5</text>
	<line stroke="black" stroke-opacity="1" x1="89" y1="152" x2="221" y2="152" />
</g>
<g>
	<rect fill="#cbcbcb" stroke="none" stroke-opacity="1" x="479" y="22" width="3" height="145" />
	<rect fill="#cbcbcb" stroke="none" stroke-opacity="1" x="409" y="164" width="73" height="3" />
	<rect fill="#ffffc0" stroke="black" stroke-width="1" stroke-opacity="1" x="405" y="18" width="74" height="146" />
	<text font-family="Helvetica" font-size="12" fill="#000000" xml:space="preserve" font-weight="bold" text-anchor="middle" x="442" y="32">DB</text>
	<line stroke="black" stroke-opacity="1" x1="405" y1="47" x2="479" y2="47" />
	<line stroke="black" stroke-opacity="1" x1="405" y1="55" x2="479" y2="55" />
	<text font-family="Helvetica" font-size="12" fill="#000000" xml:space="preserve" x="409" y="69">create()</text>
	<text font-family="Helvetica" font-size="12" fill="#000000" xml:space="preserve" x="409" y="96">delete()</text>
	<text font-family="Helvetica" font-size="12" fill="#000000" xml:space="preserve" x="409" y="123">query()</text>
	<text font-family="Helvetica" font-size="12" fill="#000000" xml:space="preserve" x="409" y="150">update()</text>
</g>
<g>
	<line stroke="black" stroke-opacity="1" x1="727" y1="599" x2="747" y2="599" />
	<ellipse fill="#ffffc0" stroke="black" stroke-width="1" stroke-opacity="1" cx="737" cy="589" rx="10" ry="10" />
	<text font-family="Helvetica" font-size="12" fill="#000000" xml:space="preserve" font-weight="bold" text-anchor="middle" x="737" y="613">sys_account</text>
	<line stroke="black" stroke-opacity="1" x1="684" y1="628" x2="790" y2="628" />
	<line stroke="black" stroke-opacity="1" x1="684" y1="636" x2="790" y2="636" />
</g>
<g>
	<rect fill="#cbcbcb" stroke="none" stroke-opacity="1" x="781" y="34" width="3" height="93" />
	<rect fill="#cbcbcb" stroke="none" stroke-opacity="1" x="601" y="124" width="183" height="3" />
	<rect fill="#ffffc0" stroke="black" stroke-width="1" stroke-opacity="1" x="597" y="30" width="184" height="94" />
	<text font-family="Helvetica" font-size="12" fill="#000000" xml:space="preserve" text-anchor="middle" x="689" y="44">&lt;&lt;utility&gt;&gt;</text>
	<text font-family="Helvetica" font-size="12" fill="#000000" xml:space="preserve" font-weight="bold" text-anchor="middle" x="689" y="73">one_card_account_db</text>
	<line stroke="black" stroke-opacity="1" x1="597" y1="88" x2="781" y2="88" />
	<line stroke="black" stroke-opacity="1" x1="597" y1="96" x2="781" y2="96" />
	<text font-family="Helvetica" font-size="12" fill="#000000" xml:space="preserve" x="601" y="110">check_if_exist()</text>
</g>
<g>
	<line stroke="black" stroke-opacity="1" x1="614" y1="203" x2="634" y2="203" />
	<ellipse fill="#ffffc0" stroke="black" stroke-width="1" stroke-opacity="1" cx="624" cy="193" rx="10" ry="10" />
	<text font-family="Helvetica" font-size="12" fill="#000000" xml:space="preserve" font-weight="bold" text-anchor="middle" x="624" y="217">saving_info</text>
	<line stroke="black" stroke-opacity="1" x1="575" y1="232" x2="673" y2="232" />
	<line stroke="black" stroke-opacity="1" x1="575" y1="240" x2="673" y2="240" />
</g>
<g>
	<line stroke="black" stroke-opacity="1" x1="528" y1="771" x2="548" y2="771" />
	<ellipse fill="#ffffc0" stroke="black" stroke-width="1" stroke-opacity="1" cx="538" cy="761" rx="10" ry="10" />
	<text font-family="Helvetica" font-size="12" fill="#000000" xml:space="preserve" font-weight="bold" text-anchor="middle" x="538" y="785">entity_loan</text>
	<line stroke="black" stroke-opacity="1" x1="458" y1="800" x2="618" y2="800" />
	<line stroke="black" stroke-opacity="1" x1="458" y1="808" x2="618" y2="808" />
	<text font-family="Helvetica" font-size="12" fill="#000000" xml:space="preserve" x="462" y="822">set_info()</text>
	<text font-family="Helvetica" font-size="12" fill="#000000" xml:space="preserve" x="462" y="849">pay_loan()</text>
	<text font-family="Helvetica" font-size="12" fill="#000000" xml:space="preserve" x="462" y="876">checko_if_enough()</text>
	<text font-family="Helvetica" font-size="12" fill="#000000" xml:space="preserve" x="462" y="903">decrease()</text>
	<text font-family="Helvetica" font-size="12" fill="#000000" xml:space="preserve" x="462" y="930">read_info()</text>
</g>
<g>
	<line stroke="black" stroke-opacity="1" x1="140" y1="229" x2="160" y2="229" />
	<ellipse fill="#ffffc0" stroke="black" stroke-width="1" stroke-opacity="1" cx="150" cy="219" rx="10" ry="10" />
	<text font-family="Helvetica" font-size="12" fill="#000000" xml:space="preserve" font-weight="bold" text-anchor="middle" x="150" y="243">one_card_account</text>
	<line stroke="black" stroke-opacity="1" x1="49" y1="258" x2="251" y2="258" />
	<text font-family="Helvetica" font-size="12" fill="#000000" xml:space="preserve" x="53" y="272">id</text>
	<text font-family="Helvetica" font-size="12" fill="#000000" xml:space="preserve" x="53" y="299">owner_name</text>
	<text font-family="Helvetica" font-size="12" fill="#000000" xml:space="preserve" x="53" y="326">id_card</text>
	<text font-family="Helvetica" font-size="12" fill="#000000" xml:space="preserve" x="53" y="353">address</text>
	<text font-family="Helvetica" font-size="12" fill="#000000" xml:space="preserve" x="53" y="380">phone_number</text>
	<text font-family="Helvetica" font-size="12" fill="#000000" xml:space="preserve" x="53" y="407">passwd</text>
	<text font-family="Helvetica" font-size="12" fill="#000000" xml:space="preserve" x="53" y="434">online_bank</text>
	<text font-family="Helvetica" font-size="12" fill="#000000" xml:space="preserve" x="53" y="461">online_name</text>
	<text font-family="Helvetica" font-size="12" fill="#000000" xml:space="preserve" x="53" y="488">online_passwd</text>
	<text font-family="Helvetica" font-size="12" fill="#000000" xml:space="preserve" x="53" y="515">lost</text>
	<line stroke="black" stroke-opacity="1" x1="49" y1="530" x2="251" y2="530" />
	<text font-family="Helvetica" font-size="12" fill="#000000" xml:space="preserve" x="53" y="544">set_name()</text>
	<text font-family="Helvetica" font-size="12" fill="#000000" xml:space="preserve" x="53" y="571">set_idcard()</text>
	<text font-family="Helvetica" font-size="12" fill="#000000" xml:space="preserve" x="53" y="598">set_address()</text>
	<text font-family="Helvetica" font-size="12" fill="#000000" xml:space="preserve" x="53" y="625">set_phone_number()</text>
	<text font-family="Helvetica" font-size="12" fill="#000000" xml:space="preserve" x="53" y="652">set_passwd()</text>
	<text font-family="Helvetica" font-size="12" fill="#000000" xml:space="preserve" x="53" y="679">get_sub_account()</text>
	<text font-family="Helvetica" font-size="12" fill="#000000" xml:space="preserve" x="53" y="706">set_online_bank_status()</text>
	<text font-family="Helvetica" font-size="12" fill="#000000" xml:space="preserve" x="53" y="733">withdrawal_money()</text>
	<text font-family="Helvetica" font-size="12" fill="#000000" xml:space="preserve" x="53" y="760">change_passwd()</text>
	<text font-family="Helvetica" font-size="12" fill="#000000" xml:space="preserve" x="53" y="787">deposit()</text>
</g>
<g>
	<line stroke="#000000" stroke-opacity="1" x1="596" y1="84" x2="488" y2="88" />
	<line stroke="#000000" stroke-opacity="1" x1="483" y1="89" x2="489" y2="94" />
	<line stroke="#000000" stroke-opacity="1" x1="483" y1="89" x2="488" y2="82" />
	<line stroke="#000000" stroke-opacity="1" x1="489" y1="94" x2="488" y2="82" />
</g>
<g>
	<line stroke="black" stroke-opacity="1" x1="585" y1="575" x2="605" y2="575" />
	<ellipse fill="#ffffc0" stroke="black" stroke-width="1" stroke-opacity="1" cx="595" cy="565" rx="10" ry="10" />
	<text font-family="Helvetica" font-size="12" fill="#000000" xml:space="preserve" font-weight="bold" text-anchor="middle" x="595" y="589">modify_plan</text>
	<line stroke="black" stroke-opacity="1" x1="523" y1="604" x2="667" y2="604" />
	<line stroke="black" stroke-opacity="1" x1="523" y1="612" x2="667" y2="612" />
	<text font-family="Helvetica" font-size="12" fill="#000000" xml:space="preserve" x="527" y="626">set_start_time()</text>
	<text font-family="Helvetica" font-size="12" fill="#000000" xml:space="preserve" x="527" y="653">set_modify_info()</text>
	<text font-family="Helvetica" font-size="12" fill="#000000" xml:space="preserve" x="527" y="680">start()</text>
	<text font-family="Helvetica" font-size="12" fill="#000000" xml:space="preserve" x="527" y="707">stop()</text>
</g>
<g>
	<line stroke="black" stroke-opacity="1" x1="683" y1="619" x2="667" y2="621" />
</g>
<g>
	<line stroke="black" stroke-opacity="1" x1="741" y1="498" x2="761" y2="498" />
	<ellipse fill="#ffffc0" stroke="black" stroke-width="1" stroke-opacity="1" cx="751" cy="488" rx="10" ry="10" />
	<text font-family="Helvetica" font-size="12" fill="#000000" xml:space="preserve" font-weight="bold" text-anchor="middle" x="751" y="512">dinghuo_liangbian</text>
	<line stroke="black" stroke-opacity="1" x1="673" y1="527" x2="829" y2="527" />
	<line stroke="black" stroke-opacity="1" x1="673" y1="535" x2="829" y2="535" />
</g>
<g>
	<line stroke="black" stroke-opacity="1" x1="409" y1="458" x2="429" y2="458" />
	<ellipse fill="#ffffc0" stroke="black" stroke-width="1" stroke-opacity="1" cx="419" cy="448" rx="10" ry="10" />
	<text font-family="Helvetica" font-size="12" fill="#000000" xml:space="preserve" font-weight="bold" text-anchor="middle" x="419" y="472">fixed_deposit</text>
	<line stroke="black" stroke-opacity="1" x1="354" y1="487" x2="484" y2="487" />
	<text font-family="Helvetica" font-size="12" fill="#000000" xml:space="preserve" x="358" y="501">dingqi_lilv</text>
	<text font-family="Helvetica" font-size="12" fill="#000000" xml:space="preserve" x="358" y="528">dingqi_nianxian</text>
	<text font-family="Helvetica" font-size="12" fill="#000000" xml:space="preserve" x="358" y="555">dingqi_shijian</text>
	<text font-family="Helvetica" font-size="12" fill="#000000" xml:space="preserve" x="358" y="582">benjin</text>
	<line stroke="black" stroke-opacity="1" x1="354" y1="597" x2="484" y2="597" />
</g>
<g>
	<text font-family="Helvetica" font-size="12" fill="#000000" xml:space="preserve" x="638" y="371">&lt;&lt;vector&gt;&gt;</text>
</g>
<g>
	<line stroke="black" stroke-opacity="1" x1="736" y1="477" x2="739" y2="469" />
	<line stroke="black" stroke-opacity="1" x1="736" y1="477" x2="728" y2="473" />
	<line stroke="black" stroke-opacity="1" x1="637" y1="247" x2="736" y2="477" />
	<polygon fill="#ffffff" stroke="black" stroke-opacity="1" points="637,247 644,250 641,258 633,254" />
</g>
<g>
	<text font-family="Helvetica" font-size="12" fill="#000000" xml:space="preserve" x="488" y="350">&lt;&lt;vector&gt;&gt;</text>
</g>
<g>
	<line stroke="black" stroke-opacity="1" x1="472" y1="437" x2="480" y2="435" />
	<line stroke="black" stroke-opacity="1" x1="472" y1="437" x2="470" y2="428" />
	<line stroke="black" stroke-opacity="1" x1="601" y1="247" x2="472" y2="437" />
	<polygon fill="#ffffff" stroke="black" stroke-opacity="1" points="601,247 602,255 594,256 592,248" />
</g>
<g>
	<text font-family="Helvetica" font-size="12" fill="#000000" xml:space="preserve" x="488" y="350">&lt;&lt;vector&gt;&gt;</text>
</g>
<g>
	<line stroke="black" stroke-opacity="1" x1="472" y1="437" x2="480" y2="435" />
	<line stroke="black" stroke-opacity="1" x1="472" y1="437" x2="470" y2="428" />
	<line stroke="black" stroke-opacity="1" x1="601" y1="247" x2="472" y2="437" />
	<polygon fill="#ffffff" stroke="black" stroke-opacity="1" points="601,247 602,255 594,256 592,248" />
</g>
<g>
	<line stroke="black" stroke-opacity="1" x1="339" y1="660" x2="359" y2="660" />
	<ellipse fill="#ffffc0" stroke="black" stroke-width="1" stroke-opacity="1" cx="349" cy="650" rx="10" ry="10" />
	<text font-family="Helvetica" font-size="12" fill="#000000" xml:space="preserve" font-weight="bold" text-anchor="middle" x="349" y="674">entity_credit_card</text>
	<line stroke="black" stroke-opacity="1" x1="257" y1="689" x2="441" y2="689" />
	<line stroke="black" stroke-opacity="1" x1="257" y1="697" x2="441" y2="697" />
	<text font-family="Helvetica" font-size="12" fill="#000000" xml:space="preserve" x="261" y="711">check_if_enough()</text>
	<text font-family="Helvetica" font-size="12" fill="#000000" xml:space="preserve" x="261" y="738">spend_money()</text>
	<text font-family="Helvetica" font-size="12" fill="#000000" xml:space="preserve" x="261" y="765">enchashment_money()</text>
	<text font-family="Helvetica" font-size="12" fill="#000000" xml:space="preserve" x="261" y="792">check_if_over()</text>
	<text font-family="Helvetica" font-size="12" fill="#000000" xml:space="preserve" x="261" y="819">repaymenty()</text>
</g>
<g>
	<text font-family="Helvetica" font-size="12" fill="#000000" xml:space="preserve" x="669" y="288">current</text>
</g>
<g>
	<text font-family="Helvetica" font-size="12" fill="#000000" xml:space="preserve" x="718" y="333">*</text>
</g>
<g>
	<text font-family="Helvetica" font-size="12" fill="#000000" xml:space="preserve" x="713" y="456">*</text>
</g>
<g>
	<text font-family="Helvetica" font-size="12" fill="#000000" xml:space="preserve" x="555" y="249">1</text>
</g>
<g>
	<text font-family="Helvetica" font-size="12" fill="#000000" xml:space="preserve" x="477" y="283">1</text>
</g>
<g>
	<text font-family="Helvetica" font-size="12" fill="#000000" xml:space="preserve" x="207" y="330">subaccount</text>
</g>
<g>
	<text font-family="Helvetica" font-size="12" fill="#000000" xml:space="preserve" x="288" y="375">*</text>
</g>
<g>
	<text font-family="Helvetica" font-size="12" fill="#000000" xml:space="preserve" x="261" y="425">1</text>
</g>
<g>
	<text font-family="Helvetica" font-size="12" fill="#000000" xml:space="preserve" x="490" y="416">fixed</text>
</g>
<g>
	<text font-family="Helvetica" font-size="12" fill="#000000" xml:space="preserve" x="462" y="416">*</text>
</g>
<g>
	<text font-family="Helvetica" font-size="12" fill="#000000" xml:space="preserve" x="490" y="416">fixed_current</text>
</g>
<g>
	<text font-family="Helvetica" font-size="12" fill="#000000" xml:space="preserve" x="462" y="416">*</text>
</g>
<g>
	<line stroke="black" stroke-opacity="1" x1="790" y1="318" x2="810" y2="318" />
	<ellipse fill="#ffffc0" stroke="black" stroke-width="1" stroke-opacity="1" cx="800" cy="308" rx="10" ry="10" />
	<text font-family="Helvetica" font-size="12" fill="#000000" xml:space="preserve" font-weight="bold" text-anchor="middle" x="800" y="332">current_saving</text>
	<line stroke="black" stroke-opacity="1" x1="737" y1="347" x2="863" y2="347" />
	<text font-family="Helvetica" font-size="12" fill="#000000" xml:space="preserve" x="741" y="361">tianshu</text>
	<text font-family="Helvetica" font-size="12" fill="#000000" xml:space="preserve" x="741" y="388">benjin</text>
	<line stroke="black" stroke-opacity="1" x1="737" y1="403" x2="863" y2="403" />
</g>
<g>
	<text font-family="Helvetica" font-size="12" fill="#000000" xml:space="preserve" x="657" y="282">&lt;&lt;vector&gt;&gt;</text>
</g>
<g>
	<line stroke="black" stroke-opacity="1" x1="736" y1="302" x2="734" y2="293" />
	<line stroke="black" stroke-opacity="1" x1="736" y1="302" x2="727" y2="303" />
	<line stroke="black" stroke-opacity="1" x1="666" y1="247" x2="736" y2="302" />
	<polygon fill="#ffffff" stroke="black" stroke-opacity="1" points="666,247 674,245 675,254 667,255" />
</g>
<g>
	<line stroke="black" stroke-opacity="1" x1="377" y1="189" x2="397" y2="189" />
	<ellipse fill="#ffffc0" stroke="black" stroke-width="1" stroke-opacity="1" cx="387" cy="179" rx="10" ry="10" />
	<text font-family="Helvetica" font-size="12" fill="#000000" xml:space="preserve" font-weight="bold" text-anchor="middle" x="387" y="203">saving_subaccount</text>
	<line stroke="black" stroke-opacity="1" x1="307" y1="218" x2="467" y2="218" />
	<text font-family="Helvetica" font-size="12" fill="#000000" xml:space="preserve" x="311" y="232">id</text>
	<line stroke="black" stroke-opacity="1" x1="307" y1="247" x2="467" y2="247" />
	<text font-family="Helvetica" font-size="12" fill="#000000" xml:space="preserve" x="311" y="261">add_huoqi()</text>
	<text font-family="Helvetica" font-size="12" fill="#000000" xml:space="preserve" x="311" y="288">add_dingqi()</text>
	<text font-family="Helvetica" font-size="12" fill="#000000" xml:space="preserve" x="311" y="315">add_dinghuo()</text>
	<text font-family="Helvetica" font-size="12" fill="#000000" xml:space="preserve" x="311" y="342">deposit()</text>
	<text font-family="Helvetica" font-size="12" fill="#000000" xml:space="preserve" x="311" y="369">withdrawal()</text>
	<text font-family="Helvetica" font-size="12" fill="#000000" xml:space="preserve" x="311" y="396">transfer_money()</text>
</g>
<g>
	<text font-family="Helvetica" font-size="12" fill="#000000" xml:space="preserve" x="239" y="102">&lt;&lt;vector&gt;&gt;</text>
</g>
<g>
	<line stroke="black" stroke-opacity="1" x1="306" y1="360" x2="297" y2="359" />
	<line stroke="black" stroke-opacity="1" x1="306" y1="360" x2="305" y2="368" />
	<line stroke="black" stroke-opacity="1" x1="251" y1="410" x2="306" y2="360" />
</g>
<g>
	<line stroke="black" stroke-opacity="1" x1="574" y1="228" x2="566" y2="224" />
	<line stroke="black" stroke-opacity="1" x1="574" y1="228" x2="570" y2="235" />
	<line stroke="black" stroke-opacity="1" x1="467" y1="262" x2="574" y2="228" />
	<polygon fill="#000000" stroke="black" stroke-opacity="1" points="467,262 470,254 478,258 474,265" />
</g>
</svg>
