<?xml version="1.0" encoding="UTF-8" standalone="no"?>
<!-- Created with Bouml (http://bouml.free.fr/) -->
<!DOCTYPE svg PUBLIC "-//W3C//DTD SVG 1.1//EN" "http://www.w3.org/Graphics/SVG/1.1/DTD/svg11.dtd">
<svg width="465" height="398" version="1.1" xmlns="http://www.w3.org/2000/svg">
<g>
	<ellipse fill="none" stroke="black" stroke-width="1" stroke-opacity="1" cx="188" cy="229" rx="6" ry="6" />
	<line stroke="black" stroke-opacity="1" x1="177" y1="240" x2="199" y2="240" />
	<line stroke="black" stroke-opacity="1" x1="188" y1="235" x2="188" y2="250" />
	<line stroke="black" stroke-opacity="1" x1="188" y1="250" x2="178" y2="262" />
	<line stroke="black" stroke-opacity="1" x1="188" y1="250" x2="198" y2="262" />
	<text font-family="Helvetica" font-size="12" fill="#000000" xml:space="preserve" text-anchor="middle" x="190" y="277">kehu</text>
</g>
<g>
	<ellipse fill="#cbcbcb" stroke="none" cx="414" cy="350" rx="31" ry="15" />
	<ellipse fill="#ffffc0" stroke="black" stroke-width="1" stroke-opacity="1" cx="411" cy="347" rx="31" ry="15" />
</g>
<g>
	<ellipse fill="#cbcbcb" stroke="none" cx="387" cy="114" rx="31" ry="15" />
	<ellipse fill="#ffffc0" stroke="black" stroke-dasharray="4,4" stroke-width="1" stroke-opacity="1" cx="384" cy="111" rx="31" ry="15" />
</g>
<g>
	<ellipse fill="#cbcbcb" stroke="none" cx="401" cy="225" rx="31" ry="15" />
	<ellipse fill="#ffffc0" stroke="black" stroke-dasharray="4,4" stroke-width="1" stroke-opacity="1" cx="398" cy="222" rx="31" ry="15" />
</g>
<g>
	<text font-family="Helvetica" font-size="12" fill="#000000" xml:space="preserve" x="370" y="376">loan_exten</text>
</g>
<g>
	<text font-family="Helvetica" font-size="12" fill="#000000" xml:space="preserve" x="342" y="140">apply_loan</text>
</g>
<g>
	<text font-family="Helvetica" font-size="12" fill="#000000" xml:space="preserve" x="364" y="251">pay_loan</text>
</g>
<g>
	<line stroke="black" stroke-opacity="1" x1="379" y1="334" x2="375" y2="326" />
	<line stroke="black" stroke-opacity="1" x1="379" y1="334" x2="371" y2="337" />
	<line stroke="black" stroke-opacity="1" x1="213" y1="268" x2="379" y2="334" />
</g>
<g>
	<line stroke="black" stroke-opacity="1" x1="360" y1="127" x2="351" y2="125" />
	<line stroke="black" stroke-opacity="1" x1="360" y1="127" x2="358" y2="135" />
	<line stroke="black" stroke-opacity="1" x1="213" y1="240" x2="360" y2="127" />
</g>
<g>
	<line stroke="black" stroke-opacity="1" x1="366" y1="227" x2="359" y2="222" />
	<line stroke="black" stroke-opacity="1" x1="366" y1="227" x2="361" y2="233" />
	<line stroke="black" stroke-opacity="1" x1="213" y1="254" x2="366" y2="227" />
</g>
</svg>
