<?xml version="1.0" encoding="UTF-8" standalone="no"?>
<!-- Created with Bouml (http://bouml.free.fr/) -->
<!DOCTYPE svg PUBLIC "-//W3C//DTD SVG 1.1//EN" "http://www.w3.org/Graphics/SVG/1.1/DTD/svg11.dtd">
<svg width="742" height="669" version="1.1" xmlns="http://www.w3.org/2000/svg">
<g>
	<line stroke="black" stroke-opacity="1" x1="577" y1="24" x2="597" y2="24" />
	<ellipse fill="#ffffc0" stroke="black" stroke-width="1" stroke-opacity="1" cx="587" cy="14" rx="10" ry="10" />
	<text font-family="Helvetica" font-size="12" fill="#000000" xml:space="preserve" text-anchor="middle" x="587" y="44">:entity_one_card</text>
</g>
<g>
	<ellipse fill="none" stroke="black" stroke-width="1" stroke-opacity="1" cx="73" cy="7" rx="3" ry="3" />
	<line stroke="black" stroke-opacity="1" x1="67" y1="12" x2="78" y2="12" />
	<line stroke="black" stroke-opacity="1" x1="73" y1="10" x2="73" y2="17" />
	<line stroke="black" stroke-opacity="1" x1="73" y1="17" x2="68" y2="23" />
	<line stroke="black" stroke-opacity="1" x1="73" y1="17" x2="78" y2="23" />
	<text font-family="Helvetica" font-size="12" fill="#000000" xml:space="preserve" text-anchor="middle" x="74" y="44">:kehu</text>
</g>
<g>
	<line stroke="black" stroke-dasharray="18,6"  stroke-opacity="1" x1="74" y1="45" x2="74" y2="669" />
</g>
<g>
	<line stroke="black" stroke-dasharray="18,6"  stroke-opacity="1" x1="587" y1="45" x2="587" y2="669" />
</g>
<g>
	<ellipse fill="#ffffc0" stroke="black" stroke-width="1" stroke-opacity="1" cx="311" cy="19" rx="10" ry="10" />
	<line stroke="black" stroke-opacity="1" x1="311" y1="9" x2="316" y2="4" />
	<line stroke="black" stroke-opacity="1" x1="311" y1="9" x2="316" y2="14" />
	<text font-family="Helvetica" font-size="12" fill="#000000" xml:space="preserve" text-anchor="middle" x="311" y="49">:control_forex</text>
</g>
<g>
	<line stroke="black" stroke-dasharray="18,6"  stroke-opacity="1" x1="311" y1="45" x2="311" y2="669" />
</g>
<g>
	<line stroke="black" stroke-opacity="1" x1="161" y1="14" x2="169" y2="14" />
	<line stroke="black" stroke-opacity="1" x1="161" y1="4" x2="161" y2="24" />
	<ellipse fill="#ffffc0" stroke="black" stroke-width="1" stroke-opacity="1" cx="179" cy="14" rx="10" ry="10" />
	<text font-family="Helvetica" font-size="12" fill="#000000" xml:space="preserve" text-anchor="middle" x="180" y="44">:boundry_forex</text>
</g>
<g>
	<line stroke="black" stroke-dasharray="18,6"  stroke-opacity="1" x1="179" y1="45" x2="179" y2="669" />
</g>
<g>
	<line stroke="black" stroke-opacity="1" x1="446" y1="24" x2="466" y2="24" />
	<ellipse fill="#ffffc0" stroke="black" stroke-width="1" stroke-opacity="1" cx="456" cy="14" rx="10" ry="10" />
	<text font-family="Helvetica" font-size="12" fill="#000000" xml:space="preserve" text-anchor="middle" x="457" y="44">:entity_loan</text>
</g>
<g>
	<line stroke="black" stroke-dasharray="18,6"  stroke-opacity="1" x1="456" y1="45" x2="456" y2="669" />
</g>
<g>
	<rect fill="#cbcbcb" stroke="none" stroke-opacity="1" x="726" y="8" width="3" height="31" />
	<rect fill="#cbcbcb" stroke="none" stroke-opacity="1" x="685" y="36" width="44" height="3" />
	<rect fill="#ffffc0" stroke="black" stroke-width="1" stroke-opacity="1" x="681" y="4" width="45" height="32" />
	<text font-family="Helvetica" font-size="12" fill="#000000" xml:space="preserve" text-decoration="underline" text-anchor="middle" x="704" y="26">:DB</text>
</g>
<g>
	<line stroke="black" stroke-dasharray="18,6"  stroke-opacity="1" x1="705" y1="45" x2="705" y2="669" />
</g>
<g>
	<rect fill="none" stroke="black" stroke-width="1" stroke-opacity="1" x="69" y="113" width="10" height="39" />
</g>
<g>
	<rect fill="none" stroke="black" stroke-width="1" stroke-opacity="1" x="174" y="113" width="10" height="24" />
</g>
<g>
	<rect fill="none" stroke="black" stroke-width="1" stroke-opacity="1" x="69" y="196" width="10" height="39" />
</g>
<g>
	<rect fill="none" stroke="black" stroke-width="1" stroke-opacity="1" x="174" y="196" width="10" height="24" />
</g>
<g>
	<rect fill="none" stroke="black" stroke-width="1" stroke-opacity="1" x="174" y="252" width="10" height="39" />
</g>
<g>
	<rect fill="none" stroke="black" stroke-width="1" stroke-opacity="1" x="306" y="252" width="10" height="24" />
</g>
<g>
	<rect fill="none" stroke="black" stroke-width="1" stroke-opacity="1" x="306" y="314" width="10" height="39" />
</g>
<g>
	<rect fill="none" stroke="black" stroke-width="1" stroke-opacity="1" x="451" y="314" width="10" height="24" />
</g>
<g>
	<rect fill="none" stroke="black" stroke-width="1" stroke-opacity="1" x="451" y="384" width="10" height="39" />
</g>
<g>
	<rect fill="none" stroke="black" stroke-width="1" stroke-opacity="1" x="306" y="384" width="10" height="24" />
</g>
<g>
	<rect fill="none" stroke="black" stroke-width="1" stroke-opacity="1" x="306" y="447" width="10" height="39" />
</g>
<g>
	<rect fill="none" stroke="black" stroke-width="1" stroke-opacity="1" x="451" y="447" width="10" height="24" />
</g>
<g>
	<rect fill="none" stroke="black" stroke-width="1" stroke-opacity="1" x="582" y="509" width="10" height="29" />
</g>
<g>
	<rect fill="none" stroke="black" stroke-width="1" stroke-opacity="1" x="306" y="562" width="10" height="39" />
</g>
<g>
	<rect fill="none" stroke="black" stroke-width="1" stroke-opacity="1" x="700" y="562" width="10" height="24" />
</g>
<g>
	<rect fill="none" stroke="black" stroke-width="1" stroke-opacity="1" x="306" y="618" width="10" height="39" />
</g>
<g>
	<rect fill="none" stroke="black" stroke-width="1" stroke-opacity="1" x="174" y="618" width="10" height="24" />
</g>
<g>
	<line stroke="black" stroke-opacity="1" x1="80" y1="201" x2="174" y2="201" />
	<polygon fill="#000000" stroke="none" points="174,201 170,197 170,205" />
</g>
<ellipse fill="black" stroke="none" cx="309.5" cy="515.5" rx="4.5" ry="4.5" />
<g>
	<line stroke="black" stroke-opacity="1" x1="80" y1="118" x2="174" y2="118" />
	<polygon fill="#000000" stroke="none" points="174,118 170,114 170,122" />
</g>
<g>
	<line stroke="black" stroke-opacity="1" x1="185" y1="257" x2="306" y2="257" />
	<polygon fill="#000000" stroke="none" points="306,257 302,253 302,261" />
</g>
<g>
	<line stroke="black" stroke-opacity="1" x1="317" y1="319" x2="451" y2="319" />
	<polygon fill="#000000" stroke="none" points="451,319 447,315 447,323" />
</g>
<g>
	<line stroke="black" stroke-opacity="1" stroke-dasharray="4,4" x1="317" y1="389" x2="451" y2="389" />
	<path fill="none" stroke="black" stroke-opacity="1" d="M 321 385 L 317 389 L 321 393" />
</g>
<g>
	<line stroke="black" stroke-opacity="1" x1="317" y1="452" x2="451" y2="452" />
	<polygon fill="#000000" stroke="none" points="451,452 447,448 447,456" />
</g>
<g>
	<line stroke="black" stroke-opacity="1" x1="314" y1="514" x2="582" y2="514" />
	<polygon fill="#000000" stroke="none" points="582,514 578,510 578,518" />
</g>
<g>
	<line stroke="black" stroke-opacity="1" x1="317" y1="567" x2="700" y2="567" />
	<polygon fill="#000000" stroke="none" points="700,567 696,563 696,571" />
</g>
<g>
	<line stroke="black" stroke-opacity="1" stroke-dasharray="4,4" x1="185" y1="623" x2="306" y2="623" />
	<path fill="none" stroke="black" stroke-opacity="1" d="M 189 619 L 185 623 L 189 627" />
</g>
<g>
	<text font-family="Helvetica" font-size="12" fill="#000000" xml:space="preserve" x="87" y="100">set_target</text>
</g>
<g>
	<text font-family="Helvetica" font-size="12" fill="#000000" xml:space="preserve" x="96" y="183">transfer</text>
</g>
<g>
	<text font-family="Helvetica" font-size="12" fill="#000000" xml:space="preserve" x="160" y="239">transfer_to_onecard()</text>
</g>
<g>
	<text font-family="Helvetica" font-size="12" fill="#000000" xml:space="preserve" x="308" y="301">checko_if_enough()</text>
</g>
<g>
	<text font-family="Helvetica" font-size="12" fill="#000000" xml:space="preserve" x="355" y="371">enough</text>
</g>
<g>
	<text font-family="Helvetica" font-size="12" fill="#000000" xml:space="preserve" x="344" y="434">decrease()</text>
</g>
<g>
	<text font-family="Helvetica" font-size="12" fill="#000000" xml:space="preserve" x="414" y="496">deposit()</text>
</g>
<g>
	<text font-family="Helvetica" font-size="12" fill="#000000" xml:space="preserve" x="475" y="549">update()</text>
</g>
<g>
	<text font-family="Helvetica" font-size="12" fill="#000000" xml:space="preserve" x="215" y="605">success</text>
</g>
</svg>
