<?xml version="1.0" encoding="UTF-8" standalone="no"?>
<!-- Created with Bouml (http://bouml.free.fr/) -->
<!DOCTYPE svg PUBLIC "-//W3C//DTD SVG 1.1//EN" "http://www.w3.org/Graphics/SVG/1.1/DTD/svg11.dtd">
<svg width="806" height="338" version="1.1" xmlns="http://www.w3.org/2000/svg">
<g>
	<rect fill="#cbcbcb" stroke="none" stroke-opacity="1" x="790" y="8" width="3" height="31" />
	<rect fill="#cbcbcb" stroke="none" stroke-opacity="1" x="611" y="36" width="182" height="3" />
	<rect fill="#ffffc0" stroke="black" stroke-width="1" stroke-opacity="1" x="607" y="4" width="183" height="32" />
	<text font-family="Helvetica" font-size="12" fill="#000000" xml:space="preserve" text-decoration="underline" text-anchor="middle" x="699" y="26">:one_card_account_db</text>
</g>
<g>
	<line stroke="black" stroke-dasharray="18,6"  stroke-opacity="1" x1="281" y1="45" x2="281" y2="338" />
</g>
<g>
	<line stroke="black" stroke-opacity="1" x1="263" y1="14" x2="271" y2="14" />
	<line stroke="black" stroke-opacity="1" x1="263" y1="4" x2="263" y2="24" />
	<ellipse fill="#ffffc0" stroke="black" stroke-width="1" stroke-opacity="1" cx="281" cy="14" rx="10" ry="10" />
	<text font-family="Helvetica" font-size="12" fill="#000000" xml:space="preserve" text-anchor="middle" x="281" y="44">:BankBoundry</text>
</g>
<g>
	<line stroke="black" stroke-dasharray="18,6"  stroke-opacity="1" x1="455" y1="45" x2="455" y2="338" />
</g>
<g>
	<ellipse fill="#ffffc0" stroke="black" stroke-width="1" stroke-opacity="1" cx="455" cy="19" rx="10" ry="10" />
	<line stroke="black" stroke-opacity="1" x1="455" y1="9" x2="460" y2="4" />
	<line stroke="black" stroke-opacity="1" x1="455" y1="9" x2="460" y2="14" />
	<text font-family="Helvetica" font-size="12" fill="#000000" xml:space="preserve" text-anchor="middle" x="455" y="49">:one_card_control</text>
</g>
<g>
	<line stroke="black" stroke-dasharray="18,6"  stroke-opacity="1" x1="700" y1="45" x2="700" y2="338" />
</g>
<g>
	<ellipse fill="none" stroke="black" stroke-width="1" stroke-opacity="1" cx="107" cy="7" rx="3" ry="3" />
	<line stroke="black" stroke-opacity="1" x1="101" y1="12" x2="112" y2="12" />
	<line stroke="black" stroke-opacity="1" x1="107" y1="10" x2="107" y2="17" />
	<line stroke="black" stroke-opacity="1" x1="107" y1="17" x2="102" y2="23" />
	<line stroke="black" stroke-opacity="1" x1="107" y1="17" x2="112" y2="23" />
	<text font-family="Helvetica" font-size="12" fill="#000000" xml:space="preserve" text-anchor="middle" x="108" y="44">:bank_assistant</text>
</g>
<g>
	<line stroke="black" stroke-dasharray="18,6"  stroke-opacity="1" x1="108" y1="45" x2="108" y2="338" />
</g>
<g>
	<rect fill="none" stroke="black" stroke-width="1" stroke-opacity="1" x="103" y="209" width="10" height="39" />
</g>
<g>
	<rect fill="none" stroke="black" stroke-width="1" stroke-opacity="1" x="103" y="110" width="10" height="39" />
</g>
<g>
	<rect fill="none" stroke="black" stroke-width="1" stroke-opacity="1" x="450" y="287" width="10" height="39" />
</g>
<g>
	<rect fill="none" stroke="black" stroke-width="1" stroke-opacity="1" x="450" y="215" width="10" height="24" />
</g>
<g>
	<rect fill="none" stroke="black" stroke-width="1" stroke-opacity="1" x="695" y="287" width="10" height="24" />
</g>
<g>
	<rect fill="none" stroke="black" stroke-width="1" stroke-opacity="1" x="276" y="110" width="10" height="24" />
</g>
<g>
	<rect fill="none" stroke="black" stroke-width="1" stroke-opacity="1" x="450" y="113" width="10" height="24" />
</g>
<g>
	<rect fill="none" stroke="black" stroke-width="1" stroke-opacity="1" x="276" y="209" width="10" height="24" />
</g>
<g>
	<rect fill="none" stroke="black" stroke-width="1" stroke-opacity="1" x="695" y="123" width="10" height="24" />
</g>
<g>
	<line stroke="black" stroke-opacity="1" x1="114" y1="115" x2="276" y2="115" />
	<polygon fill="#000000" stroke="none" points="276,115 272,111 272,119" />
</g>
<g>
	<line stroke="black" stroke-opacity="1" x1="114" y1="214" x2="276" y2="214" />
	<polygon fill="#000000" stroke="none" points="276,214 272,210 272,218" />
</g>
<g>
	<line stroke="black" stroke-opacity="1" x1="461" y1="292" x2="695" y2="292" />
	<polygon fill="#000000" stroke="none" points="695,292 691,288 691,296" />
</g>
<g>
	<line stroke="black" stroke-opacity="1" x1="287" y1="220" x2="450" y2="220" />
	<polygon fill="#000000" stroke="none" points="450,220 446,216 446,224" />
</g>
<g>
	<line stroke="black" stroke-opacity="1" x1="287" y1="118" x2="450" y2="118" />
	<polygon fill="#000000" stroke="none" points="450,118 446,114 446,122" />
</g>
<g>
	<line stroke="black" stroke-opacity="1" x1="461" y1="128" x2="695" y2="128" />
	<polygon fill="#000000" stroke="none" points="695,128 691,124 691,132" />
</g>
<g>
	<text font-family="Helvetica" font-size="12" fill="#000000" xml:space="preserve" x="159" y="203">submit</text>
</g>
<g>
	<text font-family="Helvetica" font-size="12" fill="#000000" xml:space="preserve" x="533" y="281">update()</text>
</g>
<g>
	<text font-family="Helvetica" font-size="12" fill="#000000" xml:space="preserve" x="512" y="117">check_if_exist()</text>
</g>
<g>
	<text font-family="Helvetica" font-size="12" fill="#000000" xml:space="preserve" x="317" y="107">set_idcard()</text>
</g>
<g>
	<text font-family="Helvetica" font-size="12" fill="#000000" xml:space="preserve" x="143" y="104">enter_idcard</text>
</g>
<g>
	<text font-family="Helvetica" font-size="12" fill="#000000" xml:space="preserve" x="324" y="209">set_loss()</text>
</g>
</svg>
