<?xml version="1.0" encoding="UTF-8" standalone="no"?>
<!-- Created with Bouml (http://bouml.free.fr/) -->
<!DOCTYPE svg PUBLIC "-//W3C//DTD SVG 1.1//EN" "http://www.w3.org/Graphics/SVG/1.1/DTD/svg11.dtd">
<svg width="910" height="619" version="1.1" xmlns="http://www.w3.org/2000/svg">
<g>
	<line stroke="black" stroke-opacity="1" x1="665" y1="24" x2="685" y2="24" />
	<ellipse fill="#ffffc0" stroke="black" stroke-width="1" stroke-opacity="1" cx="675" cy="14" rx="10" ry="10" />
	<text font-family="Helvetica" font-size="12" fill="#000000" xml:space="preserve" text-anchor="middle" x="676" y="44">:saving_subaccount</text>
</g>
<g>
	<line stroke="black" stroke-dasharray="18,6"  stroke-opacity="1" x1="293" y1="51" x2="293" y2="619" />
</g>
<g>
	<line stroke="black" stroke-opacity="1" x1="275" y1="20" x2="283" y2="20" />
	<line stroke="black" stroke-opacity="1" x1="275" y1="10" x2="275" y2="30" />
	<ellipse fill="#ffffc0" stroke="black" stroke-width="1" stroke-opacity="1" cx="293" cy="20" rx="10" ry="10" />
	<text font-family="Helvetica" font-size="12" fill="#000000" xml:space="preserve" text-anchor="middle" x="293" y="50">:BankBoundry</text>
</g>
<g>
	<line stroke="black" stroke-dasharray="18,6"  stroke-opacity="1" x1="804" y1="45" x2="804" y2="619" />
</g>
<g>
	<rect fill="#cbcbcb" stroke="none" stroke-opacity="1" x="894" y="8" width="3" height="31" />
	<rect fill="#cbcbcb" stroke="none" stroke-opacity="1" x="715" y="36" width="182" height="3" />
	<rect fill="#ffffc0" stroke="black" stroke-width="1" stroke-opacity="1" x="711" y="4" width="183" height="32" />
	<text font-family="Helvetica" font-size="12" fill="#000000" xml:space="preserve" text-decoration="underline" text-anchor="middle" x="803" y="26">:one_card_account_db</text>
</g>
<g>
	<line stroke="black" stroke-opacity="1" x1="539" y1="24" x2="559" y2="24" />
	<ellipse fill="#ffffc0" stroke="black" stroke-width="1" stroke-opacity="1" cx="549" cy="14" rx="10" ry="10" />
	<text font-family="Helvetica" font-size="12" fill="#000000" xml:space="preserve" text-anchor="middle" x="549" y="44">:one_card_account</text>
</g>
<g>
	<ellipse fill="none" stroke="black" stroke-width="1" stroke-opacity="1" cx="82" cy="7" rx="3" ry="3" />
	<line stroke="black" stroke-opacity="1" x1="76" y1="12" x2="87" y2="12" />
	<line stroke="black" stroke-opacity="1" x1="82" y1="10" x2="82" y2="17" />
	<line stroke="black" stroke-opacity="1" x1="82" y1="17" x2="77" y2="23" />
	<line stroke="black" stroke-opacity="1" x1="82" y1="17" x2="87" y2="23" />
	<text font-family="Helvetica" font-size="12" fill="#000000" xml:space="preserve" text-anchor="middle" x="83" y="44">:bank_assistant</text>
</g>
<g>
	<line stroke="black" stroke-dasharray="18,6"  stroke-opacity="1" x1="549" y1="45" x2="549" y2="619" />
</g>
<g>
	<ellipse fill="#ffffc0" stroke="black" stroke-width="1" stroke-opacity="1" cx="430" cy="19" rx="10" ry="10" />
	<line stroke="black" stroke-opacity="1" x1="430" y1="9" x2="435" y2="4" />
	<line stroke="black" stroke-opacity="1" x1="430" y1="9" x2="435" y2="14" />
	<text font-family="Helvetica" font-size="12" fill="#000000" xml:space="preserve" text-anchor="middle" x="430" y="49">:one_card_control</text>
</g>
<g>
	<line stroke="black" stroke-dasharray="18,6"  stroke-opacity="1" x1="430" y1="45" x2="430" y2="619" />
</g>
<g>
	<line stroke="black" stroke-dasharray="18,6"  stroke-opacity="1" x1="675" y1="45" x2="675" y2="619" />
</g>
<g>
	<line stroke="black" stroke-dasharray="18,6"  stroke-opacity="1" x1="83" y1="45" x2="83" y2="619" />
</g>
<g>
	<rect fill="none" stroke="black" stroke-width="1" stroke-opacity="1" x="78" y="297" width="10" height="39" />
</g>
<g>
	<rect fill="none" stroke="black" stroke-width="1" stroke-opacity="1" x="78" y="159" width="10" height="24" />
</g>
<g>
	<rect fill="none" stroke="black" stroke-width="1" stroke-opacity="1" x="288" y="223" width="10" height="24" />
</g>
<g>
	<rect fill="none" stroke="black" stroke-width="1" stroke-opacity="1" x="670" y="365" width="10" height="24" />
</g>
<g>
	<rect fill="none" stroke="black" stroke-width="1" stroke-opacity="1" x="799" y="568" width="10" height="24" />
</g>
<g>
	<rect fill="none" stroke="black" stroke-width="1" stroke-opacity="1" x="544" y="350" width="10" height="24" />
</g>
<g>
	<rect fill="none" stroke="black" stroke-width="1" stroke-opacity="1" x="288" y="334" width="10" height="39" />
</g>
<g>
	<rect fill="none" stroke="black" stroke-width="1" stroke-opacity="1" x="425" y="428" width="10" height="24" />
</g>
<g>
	<rect fill="none" stroke="black" stroke-width="1" stroke-opacity="1" x="78" y="97" width="10" height="40" />
</g>
<g>
	<rect fill="none" stroke="black" stroke-width="1" stroke-opacity="1" x="425" y="350" width="10" height="39" />
</g>
<g>
	<rect fill="none" stroke="black" stroke-width="1" stroke-opacity="1" x="799" y="149" width="10" height="25" />
</g>
<g>
	<rect fill="none" stroke="black" stroke-width="1" stroke-opacity="1" x="288" y="297" width="10" height="24" />
</g>
<g>
	<rect fill="none" stroke="black" stroke-width="1" stroke-opacity="1" x="425" y="139" width="10" height="24" />
</g>
<g>
	<rect fill="none" stroke="black" stroke-width="1" stroke-opacity="1" x="544" y="428" width="10" height="39" />
</g>
<g>
	<rect fill="none" stroke="black" stroke-width="1" stroke-opacity="1" x="288" y="97" width="10" height="25" />
</g>
<g>
	<rect fill="none" stroke="black" stroke-width="1" stroke-opacity="1" x="288" y="139" width="10" height="39" />
</g>
<g>
	<rect fill="none" stroke="black" stroke-width="1" stroke-opacity="1" x="425" y="568" width="10" height="39" />
</g>
<g>
	<rect fill="none" stroke="black" stroke-width="1" stroke-opacity="1" x="78" y="223" width="10" height="39" />
</g>
<g>
	<rect fill="none" stroke="black" stroke-width="1" stroke-opacity="1" x="425" y="334" width="10" height="24" />
</g>
<g>
	<rect fill="none" stroke="black" stroke-width="1" stroke-opacity="1" x="425" y="237" width="10" height="24" />
</g>
<g>
	<rect fill="none" stroke="black" stroke-width="1" stroke-opacity="1" x="288" y="159" width="10" height="39" />
</g>
<g>
	<rect fill="none" stroke="black" stroke-width="1" stroke-opacity="1" x="799" y="237" width="10" height="39" />
</g>
<g>
	<line stroke="black" stroke-opacity="1" x1="436" y1="355" x2="544" y2="355" />
	<polygon fill="#000000" stroke="none" points="544,355 540,351 540,359" />
</g>
<g>
	<line stroke="black" stroke-opacity="1" x1="89" y1="102" x2="288" y2="102" />
	<polygon fill="#000000" stroke="none" points="288,102 284,98 284,106" />
</g>
<g>
	<line stroke="black" stroke-opacity="1" x1="89" y1="302" x2="288" y2="302" />
	<polygon fill="#000000" stroke="none" points="288,302 284,298 284,306" />
</g>
<g>
	<line stroke="black" stroke-opacity="1" x1="89" y1="228" x2="288" y2="228" />
	<polygon fill="#000000" stroke="none" points="288,228 284,224 284,232" />
</g>
<g>
	<line stroke="black" stroke-opacity="1" x1="436" y1="573" x2="799" y2="573" />
	<polygon fill="#000000" stroke="none" points="799,573 795,569 795,577" />
</g>
<g>
	<line stroke="black" stroke-opacity="1" stroke-dasharray="4,4" x1="436" y1="242" x2="799" y2="242" />
	<path fill="none" stroke="black" stroke-opacity="1" d="M 440 238 L 436 242 L 440 246" />
</g>
<g>
	<line stroke="black" stroke-opacity="1" x1="436" y1="154" x2="799" y2="154" />
	<polygon fill="#000000" stroke="none" points="799,154 795,150 795,158" />
</g>
<g>
	<line stroke="black" stroke-opacity="1" x1="299" y1="339" x2="425" y2="339" />
	<polygon fill="#000000" stroke="none" points="425,339 421,335 421,343" />
</g>
<g>
	<line stroke="black" stroke-opacity="1" stroke-dasharray="4,4" x1="89" y1="164" x2="288" y2="164" />
	<path fill="none" stroke="black" stroke-opacity="1" d="M 93 160 L 89 164 L 93 168" />
</g>
<g>
	<line stroke="black" stroke-opacity="1" x1="555" y1="370" x2="670" y2="370" />
	<polygon fill="#000000" stroke="none" points="670,370 666,366 666,374" />
</g>
<g>
	<line stroke="black" stroke-opacity="1" stroke-dasharray="4,4" x1="436" y1="433" x2="544" y2="433" />
	<path fill="none" stroke="black" stroke-opacity="1" d="M 440 429 L 436 433 L 440 437" />
</g>
<g>
	<line stroke="black" stroke-opacity="1" x1="299" y1="144" x2="425" y2="144" />
	<polygon fill="#000000" stroke="none" points="425,144 421,140 421,148" />
</g>
<g>
	<text font-family="Helvetica" font-size="12" fill="#000000" xml:space="preserve" x="146" y="291">deposit</text>
</g>
<g>
	<text font-family="Helvetica" font-size="12" fill="#000000" xml:space="preserve" x="319" y="133">set_idcard()</text>
</g>
<g>
	<text font-family="Helvetica" font-size="12" fill="#000000" xml:space="preserve" x="115" y="90">enter_idcard</text>
</g>
<g>
	<text font-family="Helvetica" font-size="12" fill="#000000" xml:space="preserve" x="418" y="344">deposit()</text>
</g>
<g>
	<text font-family="Helvetica" font-size="12" fill="#000000" xml:space="preserve" x="320" y="328">deposit()</text>
</g>
<g>
	<text font-family="Helvetica" font-size="12" fill="#000000" xml:space="preserve" x="132" y="153">select_subaccount</text>
</g>
<g>
	<text font-family="Helvetica" font-size="12" fill="#000000" xml:space="preserve" x="572" y="562">update()</text>
</g>
<g>
	<text font-family="Helvetica" font-size="12" fill="#000000" xml:space="preserve" x="524" y="143">check_if_exist()</text>
</g>
<g>
	<text font-family="Helvetica" font-size="12" fill="#000000" xml:space="preserve" x="566" y="365">deposit()</text>
</g>
<g>
	<text font-family="Helvetica" font-size="12" fill="#000000" xml:space="preserve" x="129" y="217">enter_money</text>
</g>
</svg>
