<?xml version="1.0" encoding="UTF-8" standalone="no"?>
<!-- Created with Bouml (http://bouml.free.fr/) -->
<!DOCTYPE svg PUBLIC "-//W3C//DTD SVG 1.1//EN" "http://www.w3.org/Graphics/SVG/1.1/DTD/svg11.dtd">
<svg width="849" height="849" version="1.1" xmlns="http://www.w3.org/2000/svg">
<g>
	<line stroke="black" stroke-opacity="1" x1="373" y1="39" x2="393" y2="39" />
	<ellipse fill="#ffffc0" stroke="black" stroke-width="1" stroke-opacity="1" cx="383" cy="29" rx="10" ry="10" />
	<text font-family="Helvetica" font-size="12" fill="#000000" xml:space="preserve" font-weight="bold" text-anchor="middle" x="383" y="53">one_card_account</text>
	<line stroke="black" stroke-opacity="1" x1="282" y1="68" x2="484" y2="68" />
	<text font-family="Helvetica" font-size="12" fill="#000000" xml:space="preserve" x="286" y="82">id</text>
	<text font-family="Helvetica" font-size="12" fill="#000000" xml:space="preserve" x="286" y="109">owner_name</text>
	<text font-family="Helvetica" font-size="12" fill="#000000" xml:space="preserve" x="286" y="136">id_card</text>
	<text font-family="Helvetica" font-size="12" fill="#000000" xml:space="preserve" x="286" y="163">address</text>
	<text font-family="Helvetica" font-size="12" fill="#000000" xml:space="preserve" x="286" y="190">phone_number</text>
	<text font-family="Helvetica" font-size="12" fill="#000000" xml:space="preserve" x="286" y="217">passwd</text>
	<text font-family="Helvetica" font-size="12" fill="#000000" xml:space="preserve" x="286" y="244">online_bank</text>
	<text font-family="Helvetica" font-size="12" fill="#000000" xml:space="preserve" x="286" y="271">online_name</text>
	<text font-family="Helvetica" font-size="12" fill="#000000" xml:space="preserve" x="286" y="298">online_passwd</text>
	<text font-family="Helvetica" font-size="12" fill="#000000" xml:space="preserve" x="286" y="325">lost</text>
	<line stroke="black" stroke-opacity="1" x1="282" y1="340" x2="484" y2="340" />
	<text font-family="Helvetica" font-size="12" fill="#000000" xml:space="preserve" x="286" y="354">set_name()</text>
	<text font-family="Helvetica" font-size="12" fill="#000000" xml:space="preserve" x="286" y="381">set_idcard()</text>
	<text font-family="Helvetica" font-size="12" fill="#000000" xml:space="preserve" x="286" y="408">set_address()</text>
	<text font-family="Helvetica" font-size="12" fill="#000000" xml:space="preserve" x="286" y="435">set_phone_number()</text>
	<text font-family="Helvetica" font-size="12" fill="#000000" xml:space="preserve" x="286" y="462">set_passwd()</text>
	<text font-family="Helvetica" font-size="12" fill="#000000" xml:space="preserve" x="286" y="489">get_sub_account()</text>
	<text font-family="Helvetica" font-size="12" fill="#000000" xml:space="preserve" x="286" y="516">set_online_bank_status()</text>
	<text font-family="Helvetica" font-size="12" fill="#000000" xml:space="preserve" x="286" y="543">withdrawal_money()</text>
	<text font-family="Helvetica" font-size="12" fill="#000000" xml:space="preserve" x="286" y="570">change_passwd()</text>
	<text font-family="Helvetica" font-size="12" fill="#000000" xml:space="preserve" x="286" y="597">deposit()</text>
</g>
<g>
	<line stroke="black" stroke-opacity="1" x1="698" y1="-8" x2="718" y2="-8" />
	<ellipse fill="#ffffc0" stroke="black" stroke-width="1" stroke-opacity="1" cx="708" cy="-18" rx="10" ry="10" />
	<text font-family="Helvetica" font-size="12" fill="#000000" xml:space="preserve" font-weight="bold" text-anchor="middle" x="708" y="6">saving_subaccount</text>
	<line stroke="black" stroke-opacity="1" x1="628" y1="21" x2="788" y2="21" />
	<text font-family="Helvetica" font-size="12" fill="#000000" xml:space="preserve" x="632" y="35">id</text>
	<line stroke="black" stroke-opacity="1" x1="628" y1="50" x2="788" y2="50" />
	<text font-family="Helvetica" font-size="12" fill="#000000" xml:space="preserve" x="632" y="64">add_huoqi()</text>
	<text font-family="Helvetica" font-size="12" fill="#000000" xml:space="preserve" x="632" y="91">add_dingqi()</text>
	<text font-family="Helvetica" font-size="12" fill="#000000" xml:space="preserve" x="632" y="118">add_dinghuo()</text>
	<text font-family="Helvetica" font-size="12" fill="#000000" xml:space="preserve" x="632" y="145">deposit()</text>
	<text font-family="Helvetica" font-size="12" fill="#000000" xml:space="preserve" x="632" y="172">withdrawal()</text>
	<text font-family="Helvetica" font-size="12" fill="#000000" xml:space="preserve" x="632" y="199">transfer_money()</text>
</g>
<g>
	<line stroke="black" stroke-opacity="1" x1="685" y1="542" x2="705" y2="542" />
	<ellipse fill="#ffffc0" stroke="black" stroke-width="1" stroke-opacity="1" cx="695" cy="532" rx="10" ry="10" />
	<text font-family="Helvetica" font-size="12" fill="#000000" xml:space="preserve" font-weight="bold" text-anchor="middle" x="695" y="556">fixed_deposit</text>
	<line stroke="black" stroke-opacity="1" x1="630" y1="571" x2="760" y2="571" />
	<text font-family="Helvetica" font-size="12" fill="#000000" xml:space="preserve" x="634" y="585">dingqi_lilv</text>
	<text font-family="Helvetica" font-size="12" fill="#000000" xml:space="preserve" x="634" y="612">dingqi_nianxian</text>
	<text font-family="Helvetica" font-size="12" fill="#000000" xml:space="preserve" x="634" y="639">dingqi_shijian</text>
	<text font-family="Helvetica" font-size="12" fill="#000000" xml:space="preserve" x="634" y="666">benjin</text>
	<line stroke="black" stroke-opacity="1" x1="630" y1="681" x2="760" y2="681" />
</g>
<g>
	<line stroke="black" stroke-opacity="1" x1="724" y1="717" x2="744" y2="717" />
	<ellipse fill="#ffffc0" stroke="black" stroke-width="1" stroke-opacity="1" cx="734" cy="707" rx="10" ry="10" />
	<text font-family="Helvetica" font-size="12" fill="#000000" xml:space="preserve" font-weight="bold" text-anchor="middle" x="734" y="731">interest_table</text>
	<line stroke="black" stroke-opacity="1" x1="668" y1="746" x2="800" y2="746" />
	<text font-family="Helvetica" font-size="12" fill="#000000" xml:space="preserve" x="672" y="760">current_interest</text>
	<text font-family="Helvetica" font-size="12" fill="#000000" xml:space="preserve" x="672" y="787">fixed_interest_1</text>
	<text font-family="Helvetica" font-size="12" fill="#000000" xml:space="preserve" x="672" y="814">fixed_interest_5</text>
	<line stroke="black" stroke-opacity="1" x1="668" y1="829" x2="800" y2="829" />
</g>
<g>
	<line stroke="black" stroke-opacity="1" x1="354" y1="699" x2="374" y2="699" />
	<ellipse fill="#ffffc0" stroke="black" stroke-width="1" stroke-opacity="1" cx="364" cy="689" rx="10" ry="10" />
	<text font-family="Helvetica" font-size="12" fill="#000000" xml:space="preserve" font-weight="bold" text-anchor="middle" x="364" y="713">entity_consume_log</text>
	<line stroke="black" stroke-opacity="1" x1="280" y1="728" x2="448" y2="728" />
	<line stroke="black" stroke-opacity="1" x1="280" y1="736" x2="448" y2="736" />
	<text font-family="Helvetica" font-size="12" fill="#000000" xml:space="preserve" x="284" y="750">log_pay_info()</text>
	<text font-family="Helvetica" font-size="12" fill="#000000" xml:space="preserve" x="284" y="777">log_enchashment()</text>
	<text font-family="Helvetica" font-size="12" fill="#000000" xml:space="preserve" x="284" y="804">log_repayment()</text>
</g>
<g>
	<line stroke="black" stroke-opacity="1" x1="650" y1="337" x2="670" y2="337" />
	<ellipse fill="#ffffc0" stroke="black" stroke-width="1" stroke-opacity="1" cx="660" cy="327" rx="10" ry="10" />
	<text font-family="Helvetica" font-size="12" fill="#000000" xml:space="preserve" font-weight="bold" text-anchor="middle" x="660" y="351">saving_info</text>
	<line stroke="black" stroke-opacity="1" x1="611" y1="366" x2="709" y2="366" />
	<line stroke="black" stroke-opacity="1" x1="611" y1="374" x2="709" y2="374" />
</g>
<g>
	<line stroke="black" stroke-opacity="1" x1="520" y1="521" x2="540" y2="521" />
	<ellipse fill="#ffffc0" stroke="black" stroke-width="1" stroke-opacity="1" cx="530" cy="511" rx="10" ry="10" />
	<text font-family="Helvetica" font-size="12" fill="#000000" xml:space="preserve" font-weight="bold" text-anchor="middle" x="530" y="535">current_saving</text>
	<line stroke="black" stroke-opacity="1" x1="467" y1="550" x2="593" y2="550" />
	<text font-family="Helvetica" font-size="12" fill="#000000" xml:space="preserve" x="471" y="564">tianshu</text>
	<text font-family="Helvetica" font-size="12" fill="#000000" xml:space="preserve" x="471" y="591">benjin</text>
	<line stroke="black" stroke-opacity="1" x1="467" y1="606" x2="593" y2="606" />
</g>
<g>
	<line stroke="black" stroke-opacity="1" x1="627" y1="145" x2="618" y2="143" />
	<line stroke="black" stroke-opacity="1" x1="627" y1="145" x2="625" y2="153" />
	<line stroke="black" stroke-opacity="1" x1="484" y1="244" x2="627" y2="145" />
</g>
<g>
	<line stroke="black" stroke-opacity="1" x1="665" y1="316" x2="671" y2="311" />
	<line stroke="black" stroke-opacity="1" x1="665" y1="316" x2="660" y2="309" />
	<line stroke="black" stroke-opacity="1" x1="684" y1="214" x2="665" y2="316" />
	<polygon fill="#000000" stroke="black" stroke-opacity="1" points="684,214 688,220 681,225 677,218" />
</g>
<g>
	<line stroke="black" stroke-opacity="1" x1="563" y1="500" x2="571" y2="498" />
	<line stroke="black" stroke-opacity="1" x1="563" y1="500" x2="561" y2="491" />
	<line stroke="black" stroke-opacity="1" x1="638" y1="381" x2="563" y2="500" />
	<polygon fill="#ffffff" stroke="black" stroke-opacity="1" points="638,381 639,389 631,391 629,382" />
</g>
<g>
	<line stroke="black" stroke-opacity="1" x1="678" y1="521" x2="682" y2="514" />
	<line stroke="black" stroke-opacity="1" x1="678" y1="521" x2="671" y2="516" />
	<line stroke="black" stroke-opacity="1" x1="652" y1="381" x2="678" y2="521" />
	<polygon fill="#ffffff" stroke="black" stroke-opacity="1" points="652,381 658,385 654,392 647,387" />
</g>
<g>
	<line stroke="black" stroke-opacity="1" x1="697" y1="381" x2="752" y2="431" />
	<polygon fill="#ffffff" stroke="black" stroke-opacity="1" points="697,381 705,380 705,389 697,389" />
</g>
<g>
	<line stroke="black" stroke-opacity="1" x1="752" y1="431" x2="770" y2="436" />
</g>
<g>
	<line stroke="black" stroke-opacity="1" x1="770" y1="436" x2="744" y2="450" />
</g>
<g>
	<line stroke="black" stroke-opacity="1" x1="720" y1="521" x2="727" y2="517" />
	<line stroke="black" stroke-opacity="1" x1="720" y1="521" x2="716" y2="513" />
	<line stroke="black" stroke-opacity="1" x1="744" y1="450" x2="720" y2="521" />
</g>
<g>
	<line stroke="black" stroke-opacity="1" x1="82" y1="508" x2="102" y2="508" />
	<ellipse fill="#ffffc0" stroke="black" stroke-width="1" stroke-opacity="1" cx="92" cy="498" rx="10" ry="10" />
	<text font-family="Helvetica" font-size="12" fill="#000000" xml:space="preserve" font-weight="bold" text-anchor="middle" x="92" y="522">entity_credit_card</text>
	<line stroke="black" stroke-opacity="1" x1="0" y1="537" x2="184" y2="537" />
	<line stroke="black" stroke-opacity="1" x1="0" y1="545" x2="184" y2="545" />
	<text font-family="Helvetica" font-size="12" fill="#000000" xml:space="preserve" x="4" y="559">check_if_enough()</text>
	<text font-family="Helvetica" font-size="12" fill="#000000" xml:space="preserve" x="4" y="586">spend_money()</text>
	<text font-family="Helvetica" font-size="12" fill="#000000" xml:space="preserve" x="4" y="613">enchashment_money()</text>
	<text font-family="Helvetica" font-size="12" fill="#000000" xml:space="preserve" x="4" y="640">check_if_over()</text>
	<text font-family="Helvetica" font-size="12" fill="#000000" xml:space="preserve" x="4" y="667">repaymenty()</text>
</g>
<g>
	<text font-family="Helvetica" font-size="12" fill="#000000" xml:space="preserve" x="500" y="132">&lt;&lt;vector&gt;&gt;</text>
</g>
<g>
	<text font-family="Helvetica" font-size="12" fill="#000000" xml:space="preserve" x="532" y="118">subaccount</text>
</g>
<g>
	<text font-family="Helvetica" font-size="12" fill="#000000" xml:space="preserve" x="614" y="162">*</text>
</g>
<g>
	<text font-family="Helvetica" font-size="12" fill="#000000" xml:space="preserve" x="491" y="262">1</text>
</g>
<g>
	<text font-family="Helvetica" font-size="12" fill="#000000" xml:space="preserve" x="263" y="303">1</text>
</g>
<g>
	<text font-family="Helvetica" font-size="12" fill="#000000" xml:space="preserve" x="118" y="242">1</text>
</g>
<g>
	<text font-family="Helvetica" font-size="12" fill="#000000" xml:space="preserve" x="649" y="297">1</text>
</g>
<g>
	<text font-family="Helvetica" font-size="12" fill="#000000" xml:space="preserve" x="665" y="233">1</text>
</g>
<g>
	<text font-family="Helvetica" font-size="12" fill="#000000" xml:space="preserve" x="554" y="449">&lt;&lt;vector&gt;&gt;</text>
</g>
<g>
	<text font-family="Helvetica" font-size="12" fill="#000000" xml:space="preserve" x="580" y="479">current</text>
</g>
<g>
	<text font-family="Helvetica" font-size="12" fill="#000000" xml:space="preserve" x="552" y="479">*</text>
</g>
<g>
	<text font-family="Helvetica" font-size="12" fill="#000000" xml:space="preserve" x="618" y="460">&lt;&lt;vector&gt;&gt;</text>
</g>
<g>
	<text font-family="Helvetica" font-size="12" fill="#000000" xml:space="preserve" x="686" y="500">fixed</text>
</g>
<g>
	<text font-family="Helvetica" font-size="12" fill="#000000" xml:space="preserve" x="658" y="500">*</text>
</g>
<g>
	<text font-family="Helvetica" font-size="12" fill="#000000" xml:space="preserve" x="688" y="413">&lt;&lt;vector&gt;&gt;</text>
</g>
<g>
	<text font-family="Helvetica" font-size="12" fill="#000000" xml:space="preserve" x="734" y="500">fixed_current</text>
</g>
<g>
	<text font-family="Helvetica" font-size="12" fill="#000000" xml:space="preserve" x="706" y="500">*</text>
</g>
<g>
	<text font-family="Helvetica" font-size="12" fill="#000000" xml:space="preserve" x="78" y="469">*</text>
</g>
<g>
	<text font-family="Helvetica" font-size="12" fill="#000000" xml:space="preserve" x="70" y="272">1</text>
</g>
<g>
	<text font-family="Helvetica" font-size="12" fill="#000000" xml:space="preserve" x="305" y="660">1</text>
</g>
<g>
	<text font-family="Helvetica" font-size="12" fill="#000000" xml:space="preserve" x="97" y="272">1</text>
</g>
<g>
	<text font-family="Helvetica" font-size="12" fill="#000000" xml:space="preserve" x="127" y="169">1</text>
</g>
<g>
	<text font-family="Helvetica" font-size="12" fill="#000000" xml:space="preserve" x="118" y="202">1</text>
</g>
<g>
	<ellipse fill="none" stroke="black" stroke-width="1" stroke-opacity="1" cx="87" cy="172" rx="6" ry="6" />
	<line stroke="black" stroke-opacity="1" x1="76" y1="183" x2="98" y2="183" />
	<line stroke="black" stroke-opacity="1" x1="87" y1="178" x2="87" y2="193" />
	<line stroke="black" stroke-opacity="1" x1="87" y1="193" x2="77" y2="205" />
	<line stroke="black" stroke-opacity="1" x1="87" y1="193" x2="97" y2="205" />
	<text font-family="Helvetica" font-size="12" fill="#000000" xml:space="preserve" font-weight="bold" text-anchor="middle" x="89" y="220">kehu</text>
	<line stroke="black" stroke-opacity="1" x1="66" y1="235" x2="112" y2="235" />
	<line stroke="black" stroke-opacity="1" x1="66" y1="243" x2="112" y2="243" />
</g>
<g>
	<line stroke="black" stroke-opacity="1" x1="112" y1="215" x2="281" y2="277" />
</g>
<g>
	<line stroke="black" stroke-opacity="1" x1="89" y1="250" x2="92" y2="487" />
</g>
<g>
	<line stroke="black" stroke-opacity="1" x1="110" y1="250" x2="328" y2="678" />
</g>
<g>
	<line stroke="black" stroke-opacity="1" x1="215" y1="7" x2="235" y2="7" />
	<ellipse fill="#ffffc0" stroke="black" stroke-width="1" stroke-opacity="1" cx="225" cy="-3" rx="10" ry="10" />
	<text font-family="Helvetica" font-size="12" fill="#000000" xml:space="preserve" font-weight="bold" text-anchor="middle" x="225" y="21">entity_loan</text>
	<line stroke="black" stroke-opacity="1" x1="145" y1="36" x2="305" y2="36" />
	<line stroke="black" stroke-opacity="1" x1="145" y1="44" x2="305" y2="44" />
	<text font-family="Helvetica" font-size="12" fill="#000000" xml:space="preserve" x="149" y="58">set_info()</text>
	<text font-family="Helvetica" font-size="12" fill="#000000" xml:space="preserve" x="149" y="85">pay_loan()</text>
	<text font-family="Helvetica" font-size="12" fill="#000000" xml:space="preserve" x="149" y="112">checko_if_enough()</text>
	<text font-family="Helvetica" font-size="12" fill="#000000" xml:space="preserve" x="149" y="139">decrease()</text>
	<text font-family="Helvetica" font-size="12" fill="#000000" xml:space="preserve" x="149" y="166">read_info()</text>
</g>
<g>
	<line stroke="black" stroke-opacity="1" x1="112" y1="185" x2="144" y2="153" />
</g>
</svg>
