<?xml version="1.0" encoding="UTF-8" standalone="no"?>
<!-- Created with Bouml (http://bouml.free.fr/) -->
<!DOCTYPE svg PUBLIC "-//W3C//DTD SVG 1.1//EN" "http://www.w3.org/Graphics/SVG/1.1/DTD/svg11.dtd">
<svg width="891" height="497" version="1.1" xmlns="http://www.w3.org/2000/svg">
<g>
	<line stroke="black" stroke-dasharray="18,6"  stroke-opacity="1" x1="210" y1="45" x2="210" y2="497" />
</g>
<g>
	<line stroke="black" stroke-dasharray="18,6"  stroke-opacity="1" x1="726" y1="45" x2="726" y2="497" />
</g>
<g>
	<line stroke="black" stroke-dasharray="18,6"  stroke-opacity="1" x1="817" y1="46" x2="817" y2="497" />
</g>
<g>
	<line stroke="black" stroke-dasharray="18,6"  stroke-opacity="1" x1="62" y1="45" x2="62" y2="497" />
</g>
<g>
	<line stroke="black" stroke-opacity="1" x1="192" y1="14" x2="200" y2="14" />
	<line stroke="black" stroke-opacity="1" x1="192" y1="4" x2="192" y2="24" />
	<ellipse fill="#ffffc0" stroke="black" stroke-width="1" stroke-opacity="1" cx="210" cy="14" rx="10" ry="10" />
	<text font-family="Helvetica" font-size="12" fill="#000000" xml:space="preserve" text-anchor="middle" x="210" y="44">:boundry_loan</text>
</g>
<g>
	<ellipse fill="#ffffc0" stroke="black" stroke-width="1" stroke-opacity="1" cx="370" cy="19" rx="10" ry="10" />
	<line stroke="black" stroke-opacity="1" x1="370" y1="9" x2="375" y2="4" />
	<line stroke="black" stroke-opacity="1" x1="370" y1="9" x2="375" y2="14" />
	<text font-family="Helvetica" font-size="12" fill="#000000" xml:space="preserve" text-anchor="middle" x="370" y="49">:control_loan</text>
</g>
<g>
	<line stroke="black" stroke-dasharray="18,6"  stroke-opacity="1" x1="370" y1="45" x2="370" y2="497" />
</g>
<g>
	<line stroke="black" stroke-opacity="1" x1="504" y1="24" x2="524" y2="24" />
	<ellipse fill="#ffffc0" stroke="black" stroke-width="1" stroke-opacity="1" cx="514" cy="14" rx="10" ry="10" />
	<text font-family="Helvetica" font-size="12" fill="#000000" xml:space="preserve" text-anchor="middle" x="515" y="44">:entity_loan</text>
</g>
<g>
	<line stroke="black" stroke-dasharray="18,6"  stroke-opacity="1" x1="514" y1="45" x2="514" y2="497" />
</g>
<g>
	<ellipse fill="none" stroke="black" stroke-width="1" stroke-opacity="1" cx="61" cy="7" rx="3" ry="3" />
	<line stroke="black" stroke-opacity="1" x1="55" y1="12" x2="66" y2="12" />
	<line stroke="black" stroke-opacity="1" x1="61" y1="10" x2="61" y2="17" />
	<line stroke="black" stroke-opacity="1" x1="61" y1="17" x2="56" y2="23" />
	<line stroke="black" stroke-opacity="1" x1="61" y1="17" x2="66" y2="23" />
	<text font-family="Helvetica" font-size="12" fill="#000000" xml:space="preserve" text-anchor="middle" x="62" y="44">:kehu</text>
</g>
<g>
	<rect fill="#cbcbcb" stroke="none" stroke-opacity="1" x="747" y="8" width="3" height="31" />
	<rect fill="#cbcbcb" stroke="none" stroke-opacity="1" x="706" y="36" width="44" height="3" />
	<rect fill="#ffffc0" stroke="black" stroke-width="1" stroke-opacity="1" x="702" y="4" width="45" height="32" />
	<text font-family="Helvetica" font-size="12" fill="#000000" xml:space="preserve" text-decoration="underline" text-anchor="middle" x="725" y="26">:DB</text>
</g>
<g>
	<rect fill="#cbcbcb" stroke="none" stroke-opacity="1" x="875" y="9" width="3" height="31" />
	<rect fill="#cbcbcb" stroke="none" stroke-opacity="1" x="759" y="37" width="119" height="3" />
	<rect fill="#ffffc0" stroke="black" stroke-width="1" stroke-opacity="1" x="755" y="5" width="120" height="32" />
	<text font-family="Helvetica" font-size="12" fill="#000000" xml:space="preserve" text-decoration="underline" text-anchor="middle" x="815" y="27">:check_system</text>
</g>
<g>
	<rect fill="none" stroke="black" stroke-width="1" stroke-opacity="1" x="205" y="107" width="10" height="24" />
</g>
<g>
	<rect fill="none" stroke="black" stroke-width="1" stroke-opacity="1" x="205" y="173" width="10" height="39" />
</g>
<g>
	<rect fill="none" stroke="black" stroke-width="1" stroke-opacity="1" x="57" y="107" width="10" height="39" />
</g>
<g>
	<rect fill="none" stroke="black" stroke-width="1" stroke-opacity="1" x="365" y="300" width="10" height="39" />
</g>
<g>
	<rect fill="none" stroke="black" stroke-width="1" stroke-opacity="1" x="509" y="300" width="10" height="24" />
</g>
<g>
	<rect fill="none" stroke="black" stroke-width="1" stroke-opacity="1" x="365" y="378" width="10" height="39" />
</g>
<g>
	<rect fill="none" stroke="black" stroke-width="1" stroke-opacity="1" x="721" y="378" width="10" height="24" />
</g>
<g>
	<rect fill="none" stroke="black" stroke-width="1" stroke-opacity="1" x="365" y="446" width="10" height="39" />
</g>
<g>
	<rect fill="none" stroke="black" stroke-width="1" stroke-opacity="1" x="365" y="173" width="10" height="24" />
</g>
<g>
	<rect fill="none" stroke="black" stroke-width="1" stroke-opacity="1" x="365" y="208" width="10" height="39" />
</g>
<g>
	<rect fill="none" stroke="black" stroke-width="1" stroke-opacity="1" x="812" y="208" width="10" height="24" />
</g>
<g>
	<rect fill="none" stroke="black" stroke-width="1" stroke-opacity="1" x="812" y="256" width="10" height="39" />
</g>
<g>
	<rect fill="none" stroke="black" stroke-width="1" stroke-opacity="1" x="365" y="256" width="10" height="24" />
</g>
<g>
	<rect fill="none" stroke="black" stroke-width="1" stroke-opacity="1" x="205" y="446" width="10" height="24" />
</g>
<g>
	<line stroke="black" stroke-opacity="1" x1="376" y1="383" x2="721" y2="383" />
	<polygon fill="#000000" stroke="none" points="721,383 717,379 717,387" />
</g>
<g>
	<line stroke="black" stroke-opacity="1" stroke-dasharray="4,4" x1="216" y1="451" x2="365" y2="451" />
	<path fill="none" stroke="black" stroke-opacity="1" d="M 220 447 L 216 451 L 220 455" />
</g>
<g>
	<line stroke="black" stroke-opacity="1" x1="376" y1="305" x2="509" y2="305" />
	<polygon fill="#000000" stroke="none" points="509,305 505,301 505,309" />
</g>
<g>
	<line stroke="black" stroke-opacity="1" x1="68" y1="112" x2="205" y2="112" />
	<polygon fill="#000000" stroke="none" points="205,112 201,108 201,116" />
</g>
<g>
	<line stroke="black" stroke-opacity="1" x1="216" y1="178" x2="365" y2="178" />
	<polygon fill="#000000" stroke="none" points="365,178 361,174 361,182" />
</g>
<g>
	<line stroke="black" stroke-opacity="1" x1="376" y1="213" x2="812" y2="213" />
	<polygon fill="#000000" stroke="none" points="812,213 808,209 808,217" />
</g>
<g>
	<text font-family="Helvetica" font-size="12" fill="#000000" xml:space="preserve" x="402" y="287">delay_pay</text>
</g>
<g>
	<text font-family="Helvetica" font-size="12" fill="#000000" xml:space="preserve" x="515" y="365">update()</text>
</g>
<g>
	<text font-family="Helvetica" font-size="12" fill="#000000" xml:space="preserve" x="260" y="433">success</text>
</g>
<g>
	<text font-family="Helvetica" font-size="12" fill="#000000" xml:space="preserve" x="568" y="243">should</text>
</g>
<g>
	<text font-family="Helvetica" font-size="12" fill="#000000" xml:space="preserve" x="90" y="94">enten request</text>
</g>
<g>
	<text font-family="Helvetica" font-size="12" fill="#000000" xml:space="preserve" x="249" y="160">request_exent_loan()</text>
</g>
<g>
	<text font-family="Helvetica" font-size="12" fill="#000000" xml:space="preserve" x="532" y="195">should_accept()</text>
</g>
<g>
	<line stroke="black" stroke-opacity="1" stroke-dasharray="4,4" x1="376" y1="261" x2="812" y2="261" />
	<path fill="none" stroke="black" stroke-opacity="1" d="M 380 257 L 376 261 L 380 265" />
</g>
</svg>
