<?xml version="1.0" encoding="UTF-8" standalone="no"?>
<!-- Created with Bouml (http://bouml.free.fr/) -->
<!DOCTYPE svg PUBLIC "-//W3C//DTD SVG 1.1//EN" "http://www.w3.org/Graphics/SVG/1.1/DTD/svg11.dtd">
<svg width="900" height="863" version="1.1" xmlns="http://www.w3.org/2000/svg">
<g>
	<rect fill="#cbcbcb" stroke="none" stroke-opacity="1" x="884" y="8" width="3" height="31" />
	<rect fill="#cbcbcb" stroke="none" stroke-opacity="1" x="705" y="36" width="182" height="3" />
	<rect fill="#ffffc0" stroke="black" stroke-width="1" stroke-opacity="1" x="701" y="4" width="183" height="32" />
	<text font-family="Helvetica" font-size="12" fill="#000000" xml:space="preserve" text-decoration="underline" text-anchor="middle" x="793" y="26">:one_card_account_db</text>
</g>
<g>
	<ellipse fill="#ffffc0" stroke="black" stroke-width="1" stroke-opacity="1" cx="461" cy="20" rx="10" ry="10" />
	<line stroke="black" stroke-opacity="1" x1="461" y1="10" x2="466" y2="5" />
	<line stroke="black" stroke-opacity="1" x1="461" y1="10" x2="466" y2="15" />
	<text font-family="Helvetica" font-size="12" fill="#000000" xml:space="preserve" text-anchor="middle" x="461" y="50">:one_card_control</text>
</g>
<g>
	<line stroke="black" stroke-dasharray="18,6"  stroke-opacity="1" x1="618" y1="46" x2="618" y2="863" />
</g>
<g>
	<ellipse fill="none" stroke="black" stroke-width="1" stroke-opacity="1" cx="124" cy="7" rx="3" ry="3" />
	<line stroke="black" stroke-opacity="1" x1="118" y1="12" x2="129" y2="12" />
	<line stroke="black" stroke-opacity="1" x1="124" y1="10" x2="124" y2="17" />
	<line stroke="black" stroke-opacity="1" x1="124" y1="17" x2="119" y2="23" />
	<line stroke="black" stroke-opacity="1" x1="124" y1="17" x2="129" y2="23" />
	<text font-family="Helvetica" font-size="12" fill="#000000" xml:space="preserve" text-anchor="middle" x="125" y="44">:bank_assistant</text>
</g>
<g>
	<line stroke="black" stroke-dasharray="18,6"  stroke-opacity="1" x1="125" y1="45" x2="125" y2="863" />
</g>
<g>
	<line stroke="black" stroke-opacity="1" x1="279" y1="14" x2="287" y2="14" />
	<line stroke="black" stroke-opacity="1" x1="279" y1="4" x2="279" y2="24" />
	<ellipse fill="#ffffc0" stroke="black" stroke-width="1" stroke-opacity="1" cx="297" cy="14" rx="10" ry="10" />
	<text font-family="Helvetica" font-size="12" fill="#000000" xml:space="preserve" text-anchor="middle" x="297" y="44">:BankBoundry</text>
</g>
<g>
	<line stroke="black" stroke-opacity="1" x1="608" y1="25" x2="628" y2="25" />
	<ellipse fill="#ffffc0" stroke="black" stroke-width="1" stroke-opacity="1" cx="618" cy="15" rx="10" ry="10" />
	<text font-family="Helvetica" font-size="12" fill="#000000" xml:space="preserve" text-anchor="middle" x="618" y="45">:one_card_account</text>
</g>
<g>
	<line stroke="black" stroke-dasharray="18,6"  stroke-opacity="1" x1="461" y1="46" x2="461" y2="863" />
</g>
<g>
	<line stroke="black" stroke-dasharray="18,6"  stroke-opacity="1" x1="297" y1="45" x2="297" y2="863" />
</g>
<g>
	<line stroke="black" stroke-dasharray="18,6"  stroke-opacity="1" x1="794" y1="45" x2="794" y2="863" />
</g>
<g>
	<rect fill="none" stroke="black" stroke-width="1" stroke-opacity="1" x="292" y="370" width="10" height="25" />
</g>
<g>
	<rect fill="none" stroke="black" stroke-width="1" stroke-opacity="1" x="120" y="292" width="10" height="39" />
</g>
<g>
	<rect fill="none" stroke="black" stroke-width="1" stroke-opacity="1" x="292" y="173" width="10" height="81" />
</g>
<g>
	<rect fill="none" stroke="black" stroke-width="1" stroke-opacity="1" x="120" y="456" width="10" height="39" />
</g>
<g>
	<rect fill="none" stroke="black" stroke-width="1" stroke-opacity="1" x="292" y="292" width="10" height="24" />
</g>
<g>
	<rect fill="none" stroke="black" stroke-width="1" stroke-opacity="1" x="456" y="618" width="10" height="24" />
</g>
<g>
	<rect fill="none" stroke="black" stroke-width="1" stroke-opacity="1" x="292" y="657" width="10" height="49" />
</g>
<g>
	<rect fill="none" stroke="black" stroke-width="1" stroke-opacity="1" x="456" y="719" width="10" height="39" />
</g>
<g>
	<rect fill="none" stroke="black" stroke-width="1" stroke-opacity="1" x="613" y="719" width="10" height="24" />
</g>
<g>
	<rect fill="none" stroke="black" stroke-width="1" stroke-opacity="1" x="292" y="67" width="10" height="57" />
</g>
<g>
	<rect fill="none" stroke="black" stroke-width="1" stroke-opacity="1" x="292" y="457" width="10" height="24" />
</g>
<g>
	<rect fill="none" stroke="black" stroke-width="1" stroke-opacity="1" x="120" y="173" width="10" height="39" />
</g>
<g>
	<rect fill="none" stroke="black" stroke-width="1" stroke-opacity="1" x="456" y="657" width="10" height="39" />
</g>
<g>
	<rect fill="none" stroke="black" stroke-width="1" stroke-opacity="1" x="789" y="618" width="10" height="39" />
</g>
<g>
	<rect fill="none" stroke="black" stroke-width="1" stroke-opacity="1" x="789" y="754" width="10" height="30" />
</g>
<g>
	<rect fill="none" stroke="black" stroke-width="1" stroke-opacity="1" x="120" y="533" width="10" height="39" />
</g>
<g>
	<rect fill="none" stroke="black" stroke-width="1" stroke-opacity="1" x="292" y="533" width="10" height="24" />
</g>
<g>
	<rect fill="none" stroke="black" stroke-width="1" stroke-opacity="1" x="456" y="544" width="10" height="24" />
</g>
<g>
	<rect fill="none" stroke="black" stroke-width="1" stroke-opacity="1" x="789" y="551" width="10" height="24" />
</g>
<g>
	<rect fill="none" stroke="black" stroke-width="1" stroke-opacity="1" x="120" y="68" width="10" height="40" />
</g>
<g>
	<rect fill="none" stroke="black" stroke-width="1" stroke-opacity="1" x="456" y="747" width="10" height="39" />
</g>
<g>
	<rect fill="none" stroke="black" stroke-width="1" stroke-opacity="1" x="120" y="370" width="10" height="39" />
</g>
<g>
	<line stroke="black" stroke-opacity="1" x1="131" y1="299" x2="292" y2="299" />
	<polygon fill="#000000" stroke="none" points="292,299 288,295 288,303" />
</g>
<g>
	<line stroke="black" stroke-opacity="1" x1="131" y1="538" x2="292" y2="538" />
	<polygon fill="#000000" stroke="none" points="292,538 288,534 288,542" />
</g>
<g>
	<line stroke="black" stroke-opacity="1" x1="131" y1="376" x2="292" y2="376" />
	<polygon fill="#000000" stroke="none" points="292,376 288,372 288,380" />
</g>
<g>
	<line stroke="black" stroke-opacity="1" x1="131" y1="462" x2="292" y2="462" />
	<polygon fill="#000000" stroke="none" points="292,462 288,458 288,466" />
</g>
<g>
	<line stroke="black" stroke-opacity="1" x1="303" y1="549" x2="456" y2="549" />
	<polygon fill="#000000" stroke="none" points="456,549 452,545 452,553" />
</g>
<g>
	<line stroke="black" stroke-opacity="1" x1="131" y1="73" x2="292" y2="73" />
	<polygon fill="#000000" stroke="none" points="292,73 288,69 288,77" />
</g>
<g>
	<line stroke="black" stroke-opacity="1" stroke-dasharray="4,4" x1="467" y1="623" x2="789" y2="623" />
	<path fill="none" stroke="black" stroke-opacity="1" d="M 471 619 L 467 623 L 471 627" />
</g>
<g>
	<line stroke="black" stroke-opacity="1" x1="467" y1="556" x2="789" y2="556" />
	<polygon fill="#000000" stroke="none" points="789,556 785,552 785,560" />
</g>
<g>
	<line stroke="black" stroke-opacity="1" stroke-dasharray="4,4" x1="303" y1="662" x2="456" y2="662" />
	<path fill="none" stroke="black" stroke-opacity="1" d="M 307 658 L 303 662 L 307 666" />
</g>
<g>
	<line stroke="black" stroke-opacity="1" x1="467" y1="724" x2="613" y2="724" />
	<polygon fill="#000000" stroke="none" points="613,724 609,720 609,728" />
</g>
<g>
	<text font-family="Helvetica" font-size="12" fill="#000000" xml:space="preserve" x="167" y="168">set_idcard</text>
</g>
<g>
	<text font-family="Helvetica" font-size="12" fill="#000000" xml:space="preserve" x="567" y="545">check_if_exist()</text>
</g>
<g>
	<text font-family="Helvetica" font-size="12" fill="#000000" xml:space="preserve" x="140" y="365">set_phone_number</text>
</g>
<g>
	<text font-family="Helvetica" font-size="12" fill="#000000" xml:space="preserve" x="162" y="62">set_name</text>
</g>
<g>
	<text font-family="Helvetica" font-size="12" fill="#000000" xml:space="preserve" x="162" y="288">set_address</text>
</g>
<g>
	<text font-family="Helvetica" font-size="12" fill="#000000" xml:space="preserve" x="592" y="612">isexists</text>
</g>
<g>
	<text font-family="Helvetica" font-size="12" fill="#000000" xml:space="preserve" x="176" y="527">submit</text>
</g>
<g>
	<text font-family="Helvetica" font-size="12" fill="#000000" xml:space="preserve" x="337" y="538">register()</text>
</g>
<g>
	<text font-family="Helvetica" font-size="12" fill="#000000" xml:space="preserve" x="163" y="451">set_passwd</text>
</g>
<g>
	<text font-family="Helvetica" font-size="12" fill="#000000" xml:space="preserve" x="590" y="768">create()</text>
</g>
<g>
	<text font-family="Helvetica" font-size="12" fill="#000000" xml:space="preserve" x="347" y="651">exists</text>
</g>
<g>
	<text font-family="Helvetica" font-size="12" fill="#000000" xml:space="preserve" x="517" y="713">set_info</text>
</g>
<g>
	<line stroke="black" stroke-opacity="1" x1="131" y1="179" x2="292" y2="179" />
	<polygon fill="#000000" stroke="none" points="292,179 288,175 288,183" />
</g>
</svg>
