<?xml version="1.0" encoding="UTF-8" standalone="no"?>
<!-- Created with Bouml (http://bouml.free.fr/) -->
<!DOCTYPE svg PUBLIC "-//W3C//DTD SVG 1.1//EN" "http://www.w3.org/Graphics/SVG/1.1/DTD/svg11.dtd">
<svg width="874" height="624" version="1.1" xmlns="http://www.w3.org/2000/svg">
<g>
	<line stroke="black" stroke-opacity="1" x1="284" y1="14" x2="292" y2="14" />
	<line stroke="black" stroke-opacity="1" x1="284" y1="4" x2="284" y2="24" />
	<ellipse fill="#ffffc0" stroke="black" stroke-width="1" stroke-opacity="1" cx="302" cy="14" rx="10" ry="10" />
	<text font-family="Helvetica" font-size="12" fill="#000000" xml:space="preserve" text-anchor="middle" x="302" y="44">:BankBoundry</text>
</g>
<g>
	<rect fill="#cbcbcb" stroke="none" stroke-opacity="1" x="858" y="8" width="3" height="31" />
	<rect fill="#cbcbcb" stroke="none" stroke-opacity="1" x="679" y="36" width="182" height="3" />
	<rect fill="#ffffc0" stroke="black" stroke-width="1" stroke-opacity="1" x="675" y="4" width="183" height="32" />
	<text font-family="Helvetica" font-size="12" fill="#000000" xml:space="preserve" text-decoration="underline" text-anchor="middle" x="767" y="26">:one_card_account_db</text>
</g>
<g>
	<line stroke="black" stroke-dasharray="18,6"  stroke-opacity="1" x1="625" y1="45" x2="625" y2="624" />
</g>
<g>
	<ellipse fill="#ffffc0" stroke="black" stroke-width="1" stroke-opacity="1" cx="495" cy="19" rx="10" ry="10" />
	<line stroke="black" stroke-opacity="1" x1="495" y1="9" x2="500" y2="4" />
	<line stroke="black" stroke-opacity="1" x1="495" y1="9" x2="500" y2="14" />
	<text font-family="Helvetica" font-size="12" fill="#000000" xml:space="preserve" text-anchor="middle" x="495" y="49">:one_card_control</text>
</g>
<g>
	<line stroke="black" stroke-dasharray="18,6"  stroke-opacity="1" x1="768" y1="45" x2="768" y2="624" />
</g>
<g>
	<line stroke="black" stroke-dasharray="18,6"  stroke-opacity="1" x1="107" y1="45" x2="107" y2="624" />
</g>
<g>
	<ellipse fill="none" stroke="black" stroke-width="1" stroke-opacity="1" cx="106" cy="7" rx="3" ry="3" />
	<line stroke="black" stroke-opacity="1" x1="100" y1="12" x2="111" y2="12" />
	<line stroke="black" stroke-opacity="1" x1="106" y1="10" x2="106" y2="17" />
	<line stroke="black" stroke-opacity="1" x1="106" y1="17" x2="101" y2="23" />
	<line stroke="black" stroke-opacity="1" x1="106" y1="17" x2="111" y2="23" />
	<text font-family="Helvetica" font-size="12" fill="#000000" xml:space="preserve" text-anchor="middle" x="107" y="44">:bank_assistant</text>
</g>
<g>
	<line stroke="black" stroke-dasharray="18,6"  stroke-opacity="1" x1="495" y1="45" x2="495" y2="624" />
</g>
<g>
	<line stroke="black" stroke-opacity="1" x1="615" y1="24" x2="635" y2="24" />
	<ellipse fill="#ffffc0" stroke="black" stroke-width="1" stroke-opacity="1" cx="625" cy="14" rx="10" ry="10" />
	<text font-family="Helvetica" font-size="12" fill="#000000" xml:space="preserve" text-anchor="middle" x="626" y="44">:saving_subaccount</text>
</g>
<g>
	<line stroke="black" stroke-dasharray="18,6"  stroke-opacity="1" x1="302" y1="45" x2="302" y2="624" />
</g>
<g>
	<rect fill="none" stroke="black" stroke-width="1" stroke-opacity="1" x="297" y="406" width="10" height="72" />
</g>
<g>
	<rect fill="none" stroke="black" stroke-width="1" stroke-opacity="1" x="763" y="223" width="10" height="24" />
</g>
<g>
	<rect fill="none" stroke="black" stroke-width="1" stroke-opacity="1" x="102" y="131" width="10" height="39" />
</g>
<g>
	<rect fill="none" stroke="black" stroke-width="1" stroke-opacity="1" x="102" y="402" width="10" height="76" />
</g>
<g>
	<rect fill="none" stroke="black" stroke-width="1" stroke-opacity="1" x="297" y="510" width="10" height="39" />
</g>
<g>
	<rect fill="none" stroke="black" stroke-width="1" stroke-opacity="1" x="490" y="573" width="10" height="39" />
</g>
<g>
	<rect fill="none" stroke="black" stroke-width="1" stroke-opacity="1" x="297" y="345" width="10" height="24" />
</g>
<g>
	<rect fill="none" stroke="black" stroke-width="1" stroke-opacity="1" x="763" y="573" width="10" height="24" />
</g>
<g>
	<rect fill="none" stroke="black" stroke-width="1" stroke-opacity="1" x="297" y="131" width="10" height="24" />
</g>
<g>
	<rect fill="none" stroke="black" stroke-width="1" stroke-opacity="1" x="490" y="510" width="10" height="26" />
</g>
<g>
	<rect fill="none" stroke="black" stroke-width="1" stroke-opacity="1" x="620" y="526" width="10" height="24" />
</g>
<g>
	<rect fill="none" stroke="black" stroke-width="1" stroke-opacity="1" x="763" y="300" width="10" height="39" />
</g>
<g>
	<rect fill="none" stroke="black" stroke-width="1" stroke-opacity="1" x="297" y="165" width="10" height="101" />
</g>
<g>
	<rect fill="none" stroke="black" stroke-width="1" stroke-opacity="1" x="490" y="300" width="10" height="24" />
</g>
<g>
	<rect fill="none" stroke="black" stroke-width="1" stroke-opacity="1" x="490" y="345" width="10" height="39" />
</g>
<g>
	<rect fill="none" stroke="black" stroke-width="1" stroke-opacity="1" x="490" y="174" width="10" height="84" />
</g>
<g>
	<line stroke="black" stroke-opacity="1" x1="308" y1="179" x2="490" y2="179" />
	<polygon fill="#000000" stroke="none" points="490,179 486,175 486,183" />
</g>
<g>
	<line stroke="black" stroke-opacity="1" stroke-dasharray="4,4" x1="501" y1="305" x2="763" y2="305" />
	<path fill="none" stroke="black" stroke-opacity="1" d="M 505 301 L 501 305 L 505 309" />
</g>
<g>
	<line stroke="black" stroke-opacity="1" x1="113" y1="473" x2="297" y2="473" />
	<polygon fill="#000000" stroke="none" points="297,473 293,469 293,477" />
</g>
<g>
	<line stroke="black" stroke-opacity="1" x1="113" y1="136" x2="297" y2="136" />
	<polygon fill="#000000" stroke="none" points="297,136 293,132 293,140" />
</g>
<g>
	<line stroke="black" stroke-opacity="1" x1="501" y1="228" x2="763" y2="228" />
	<polygon fill="#000000" stroke="none" points="763,228 759,224 759,232" />
</g>
<g>
	<line stroke="black" stroke-opacity="1" x1="308" y1="515" x2="490" y2="515" />
	<polygon fill="#000000" stroke="none" points="490,515 486,511 486,519" />
</g>
<g>
	<line stroke="black" stroke-opacity="1" stroke-dasharray="4,4" x1="308" y1="350" x2="490" y2="350" />
	<path fill="none" stroke="black" stroke-opacity="1" d="M 312 346 L 308 350 L 312 354" />
</g>
<g>
	<line stroke="black" stroke-opacity="1" x1="501" y1="578" x2="763" y2="578" />
	<polygon fill="#000000" stroke="none" points="763,578 759,574 759,582" />
</g>
<g>
	<line stroke="black" stroke-opacity="1" x1="501" y1="531" x2="620" y2="531" />
	<polygon fill="#000000" stroke="none" points="620,531 616,527 616,535" />
</g>
<g>
	<text font-family="Helvetica" font-size="12" fill="#000000" xml:space="preserve" x="151" y="462">enter_money</text>
</g>
<g>
	<text font-family="Helvetica" font-size="12" fill="#000000" xml:space="preserve" x="343" y="504">transfer_money()</text>
</g>
<g>
	<text font-family="Helvetica" font-size="12" fill="#000000" xml:space="preserve" x="505" y="526">transfer_money()</text>
</g>
<g>
	<text font-family="Helvetica" font-size="12" fill="#000000" xml:space="preserve" x="359" y="168">set_target_idcard()</text>
</g>
<g>
	<text font-family="Helvetica" font-size="12" fill="#000000" xml:space="preserve" x="554" y="217">check_if_exist()</text>
</g>
<g>
	<text font-family="Helvetica" font-size="12" fill="#000000" xml:space="preserve" x="358" y="339">display_info</text>
</g>
<g>
	<text font-family="Helvetica" font-size="12" fill="#000000" xml:space="preserve" x="129" y="125">enter_other_account</text>
</g>
<g>
	<text font-family="Helvetica" font-size="12" fill="#000000" xml:space="preserve" x="585" y="573">update()</text>
</g>
</svg>
