<?xml version="1.0" encoding="UTF-8" standalone="no"?>
<!-- Created with Bouml (http://bouml.free.fr/) -->
<!DOCTYPE svg PUBLIC "-//W3C//DTD SVG 1.1//EN" "http://www.w3.org/Graphics/SVG/1.1/DTD/svg11.dtd">
<svg width="855" height="509" version="1.1" xmlns="http://www.w3.org/2000/svg">
<g>
	<ellipse fill="none" stroke="black" stroke-width="1" stroke-opacity="1" cx="92" cy="7" rx="3" ry="3" />
	<line stroke="black" stroke-opacity="1" x1="86" y1="12" x2="97" y2="12" />
	<line stroke="black" stroke-opacity="1" x1="92" y1="10" x2="92" y2="17" />
	<line stroke="black" stroke-opacity="1" x1="92" y1="17" x2="87" y2="23" />
	<line stroke="black" stroke-opacity="1" x1="92" y1="17" x2="97" y2="23" />
	<text font-family="Helvetica" font-size="12" fill="#000000" xml:space="preserve" text-anchor="middle" x="93" y="44">:bank_assistant</text>
</g>
<g>
	<line stroke="black" stroke-dasharray="18,6"  stroke-opacity="1" x1="93" y1="45" x2="93" y2="509" />
</g>
<g>
	<rect fill="#cbcbcb" stroke="none" stroke-opacity="1" x="839" y="9" width="3" height="31" />
	<rect fill="#cbcbcb" stroke="none" stroke-opacity="1" x="660" y="37" width="182" height="3" />
	<rect fill="#ffffc0" stroke="black" stroke-width="1" stroke-opacity="1" x="656" y="5" width="183" height="32" />
	<text font-family="Helvetica" font-size="12" fill="#000000" xml:space="preserve" text-decoration="underline" text-anchor="middle" x="748" y="27">:one_card_account_db</text>
</g>
<g>
	<line stroke="black" stroke-dasharray="18,6"  stroke-opacity="1" x1="749" y1="46" x2="749" y2="509" />
</g>
<g>
	<line stroke="black" stroke-dasharray="18,6"  stroke-opacity="1" x1="418" y1="45" x2="418" y2="509" />
</g>
<g>
	<ellipse fill="#ffffc0" stroke="black" stroke-width="1" stroke-opacity="1" cx="418" cy="19" rx="10" ry="10" />
	<line stroke="black" stroke-opacity="1" x1="418" y1="9" x2="423" y2="4" />
	<line stroke="black" stroke-opacity="1" x1="418" y1="9" x2="423" y2="14" />
	<text font-family="Helvetica" font-size="12" fill="#000000" xml:space="preserve" text-anchor="middle" x="418" y="49">:one_card_control</text>
</g>
<g>
	<line stroke="black" stroke-opacity="1" x1="223" y1="14" x2="231" y2="14" />
	<line stroke="black" stroke-opacity="1" x1="223" y1="4" x2="223" y2="24" />
	<ellipse fill="#ffffc0" stroke="black" stroke-width="1" stroke-opacity="1" cx="241" cy="14" rx="10" ry="10" />
	<text font-family="Helvetica" font-size="12" fill="#000000" xml:space="preserve" text-anchor="middle" x="241" y="44">:BankBoundry</text>
</g>
<g>
	<line stroke="black" stroke-dasharray="18,6"  stroke-opacity="1" x1="241" y1="45" x2="241" y2="509" />
</g>
<g>
	<rect fill="none" stroke="black" stroke-width="1" stroke-opacity="1" x="413" y="251" width="10" height="24" />
</g>
<g>
	<rect fill="none" stroke="black" stroke-width="1" stroke-opacity="1" x="413" y="400" width="10" height="24" />
</g>
<g>
	<rect fill="none" stroke="black" stroke-width="1" stroke-opacity="1" x="744" y="458" width="10" height="24" />
</g>
<g>
	<rect fill="none" stroke="black" stroke-width="1" stroke-opacity="1" x="413" y="311" width="10" height="39" />
</g>
<g>
	<rect fill="none" stroke="black" stroke-width="1" stroke-opacity="1" x="236" y="237" width="10" height="24" />
</g>
<g>
	<rect fill="none" stroke="black" stroke-width="1" stroke-opacity="1" x="413" y="458" width="10" height="39" />
</g>
<g>
	<rect fill="none" stroke="black" stroke-width="1" stroke-opacity="1" x="236" y="129" width="10" height="24" />
</g>
<g>
	<rect fill="none" stroke="black" stroke-width="1" stroke-opacity="1" x="744" y="311" width="10" height="24" />
</g>
<g>
	<rect fill="none" stroke="black" stroke-width="1" stroke-opacity="1" x="88" y="129" width="10" height="39" />
</g>
<g>
	<rect fill="none" stroke="black" stroke-width="1" stroke-opacity="1" x="744" y="400" width="10" height="39" />
</g>
<g>
	<rect fill="none" stroke="black" stroke-width="1" stroke-opacity="1" x="88" y="237" width="10" height="39" />
</g>
<g>
	<line stroke="black" stroke-opacity="1" x1="424" y1="463" x2="744" y2="463" />
	<polygon fill="#000000" stroke="none" points="744,463 740,459 740,467" />
</g>
<g>
	<line stroke="black" stroke-opacity="1" x1="99" y1="134" x2="236" y2="134" />
	<polygon fill="#000000" stroke="none" points="236,134 232,130 232,138" />
</g>
<g>
	<line stroke="black" stroke-opacity="1" x1="424" y1="316" x2="744" y2="316" />
	<polygon fill="#000000" stroke="none" points="744,316 740,312 740,320" />
</g>
<g>
	<line stroke="black" stroke-opacity="1" stroke-dasharray="4,4" x1="424" y1="405" x2="744" y2="405" />
	<path fill="none" stroke="black" stroke-opacity="1" d="M 428 401 L 424 405 L 428 409" />
</g>
<g>
	<line stroke="black" stroke-opacity="1" x1="99" y1="242" x2="236" y2="242" />
	<polygon fill="#000000" stroke="none" points="236,242 232,238 232,246" />
</g>
<g>
	<line stroke="black" stroke-opacity="1" x1="247" y1="256" x2="413" y2="256" />
	<polygon fill="#000000" stroke="none" points="413,256 409,252 409,260" />
</g>
<g>
	<text font-family="Helvetica" font-size="12" fill="#000000" xml:space="preserve" x="256" y="245">delete_account_of()</text>
</g>
<g>
	<text font-family="Helvetica" font-size="12" fill="#000000" xml:space="preserve" x="547" y="394">exists</text>
</g>
<g>
	<text font-family="Helvetica" font-size="12" fill="#000000" xml:space="preserve" x="109" y="231">confirm_delete</text>
</g>
<g>
	<text font-family="Helvetica" font-size="12" fill="#000000" xml:space="preserve" x="518" y="305">check_if_exist()</text>
</g>
<g>
	<text font-family="Helvetica" font-size="12" fill="#000000" xml:space="preserve" x="116" y="123">enter_idcard</text>
</g>
<g>
	<text font-family="Helvetica" font-size="12" fill="#000000" xml:space="preserve" x="541" y="452">delete()</text>
</g>
</svg>
