<?xml version="1.0" encoding="UTF-8" standalone="no"?>
<!-- Created with Bouml (http://bouml.free.fr/) -->
<!DOCTYPE svg PUBLIC "-//W3C//DTD SVG 1.1//EN" "http://www.w3.org/Graphics/SVG/1.1/DTD/svg11.dtd">
<svg width="806" height="517" version="1.1" xmlns="http://www.w3.org/2000/svg">
<g>
	<line stroke="black" stroke-dasharray="18,6"  stroke-opacity="1" x1="75" y1="45" x2="75" y2="517" />
</g>
<g>
	<line stroke="black" stroke-opacity="1" x1="538" y1="24" x2="558" y2="24" />
	<ellipse fill="#ffffc0" stroke="black" stroke-width="1" stroke-opacity="1" cx="548" cy="14" rx="10" ry="10" />
	<text font-family="Helvetica" font-size="12" fill="#000000" xml:space="preserve" text-anchor="middle" x="548" y="44">:interest_table</text>
</g>
<g>
	<line stroke="black" stroke-dasharray="18,6"  stroke-opacity="1" x1="346" y1="53" x2="346" y2="517" />
</g>
<g>
	<line stroke="black" stroke-dasharray="18,6"  stroke-opacity="1" x1="769" y1="45" x2="769" y2="517" />
</g>
<g>
	<line stroke="black" stroke-dasharray="18,6"  stroke-opacity="1" x1="219" y1="48" x2="219" y2="517" />
</g>
<g>
	<line stroke="black" stroke-dasharray="18,6"  stroke-opacity="1" x1="548" y1="45" x2="548" y2="517" />
</g>
<g>
	<ellipse fill="none" stroke="black" stroke-width="1" stroke-opacity="1" cx="74" cy="7" rx="3" ry="3" />
	<line stroke="black" stroke-opacity="1" x1="68" y1="12" x2="79" y2="12" />
	<line stroke="black" stroke-opacity="1" x1="74" y1="10" x2="74" y2="17" />
	<line stroke="black" stroke-opacity="1" x1="74" y1="17" x2="69" y2="23" />
	<line stroke="black" stroke-opacity="1" x1="74" y1="17" x2="79" y2="23" />
	<text font-family="Helvetica" font-size="12" fill="#000000" xml:space="preserve" text-anchor="middle" x="75" y="44">:bank_assistant</text>
</g>
<g>
	<line stroke="black" stroke-opacity="1" x1="201" y1="17" x2="209" y2="17" />
	<line stroke="black" stroke-opacity="1" x1="201" y1="7" x2="201" y2="27" />
	<ellipse fill="#ffffc0" stroke="black" stroke-width="1" stroke-opacity="1" cx="219" cy="17" rx="10" ry="10" />
	<text font-family="Helvetica" font-size="12" fill="#000000" xml:space="preserve" text-anchor="middle" x="219" y="47">:sys_boundry</text>
</g>
<g>
	<ellipse fill="#ffffc0" stroke="black" stroke-width="1" stroke-opacity="1" cx="346" cy="27" rx="10" ry="10" />
	<line stroke="black" stroke-opacity="1" x1="346" y1="17" x2="351" y2="12" />
	<line stroke="black" stroke-opacity="1" x1="346" y1="17" x2="351" y2="22" />
	<text font-family="Helvetica" font-size="12" fill="#000000" xml:space="preserve" text-anchor="middle" x="346" y="57">:bank_info_ctrl</text>
</g>
<g>
	<rect fill="#cbcbcb" stroke="none" stroke-opacity="1" x="790" y="8" width="3" height="31" />
	<rect fill="#cbcbcb" stroke="none" stroke-opacity="1" x="749" y="36" width="44" height="3" />
	<rect fill="#ffffc0" stroke="black" stroke-width="1" stroke-opacity="1" x="745" y="4" width="45" height="32" />
	<text font-family="Helvetica" font-size="12" fill="#000000" xml:space="preserve" text-decoration="underline" text-anchor="middle" x="768" y="26">:DB</text>
</g>
<g>
	<rect fill="none" stroke="black" stroke-width="1" stroke-opacity="1" x="543" y="254" width="10" height="24" />
</g>
<g>
	<rect fill="none" stroke="black" stroke-width="1" stroke-opacity="1" x="341" y="466" width="10" height="39" />
</g>
<g>
	<rect fill="none" stroke="black" stroke-width="1" stroke-opacity="1" x="214" y="466" width="10" height="24" />
</g>
<g>
	<rect fill="none" stroke="black" stroke-width="1" stroke-opacity="1" x="341" y="395" width="10" height="24" />
</g>
<g>
	<rect fill="none" stroke="black" stroke-width="1" stroke-opacity="1" x="70" y="126" width="10" height="39" />
</g>
<g>
	<rect fill="none" stroke="black" stroke-width="1" stroke-opacity="1" x="764" y="322" width="10" height="24" />
</g>
<g>
	<rect fill="none" stroke="black" stroke-width="1" stroke-opacity="1" x="214" y="190" width="10" height="39" />
</g>
<g>
	<rect fill="none" stroke="black" stroke-width="1" stroke-opacity="1" x="214" y="126" width="10" height="24" />
</g>
<g>
	<rect fill="none" stroke="black" stroke-width="1" stroke-opacity="1" x="341" y="190" width="10" height="24" />
</g>
<g>
	<rect fill="none" stroke="black" stroke-width="1" stroke-opacity="1" x="341" y="322" width="10" height="39" />
</g>
<g>
	<rect fill="none" stroke="black" stroke-width="1" stroke-opacity="1" x="764" y="395" width="10" height="39" />
</g>
<g>
	<rect fill="none" stroke="black" stroke-width="1" stroke-opacity="1" x="341" y="254" width="10" height="39" />
</g>
<g>
	<line stroke="black" stroke-opacity="1" x1="352" y1="327" x2="764" y2="327" />
	<polygon fill="#000000" stroke="none" points="764,327 760,323 760,331" />
</g>
<g>
	<line stroke="black" stroke-opacity="1" x1="81" y1="131" x2="214" y2="131" />
	<polygon fill="#000000" stroke="none" points="214,131 210,127 210,135" />
</g>
<g>
	<line stroke="black" stroke-opacity="1" x1="352" y1="259" x2="543" y2="259" />
	<polygon fill="#000000" stroke="none" points="543,259 539,255 539,263" />
</g>
<g>
	<line stroke="black" stroke-opacity="1" stroke-dasharray="4,4" x1="225" y1="471" x2="341" y2="471" />
	<path fill="none" stroke="black" stroke-opacity="1" d="M 229 467 L 225 471 L 229 475" />
</g>
<g>
	<line stroke="black" stroke-opacity="1" stroke-dasharray="4,4" x1="352" y1="400" x2="764" y2="400" />
	<path fill="none" stroke="black" stroke-opacity="1" d="M 356 396 L 352 400 L 356 404" />
</g>
<g>
	<line stroke="black" stroke-opacity="1" x1="225" y1="195" x2="341" y2="195" />
	<polygon fill="#000000" stroke="none" points="341,195 337,191 337,199" />
</g>
<g>
	<text font-family="Helvetica" font-size="12" fill="#000000" xml:space="preserve" x="418" y="241">set info</text>
</g>
<g>
	<text font-family="Helvetica" font-size="12" fill="#000000" xml:space="preserve" x="73" y="113">enter bank info</text>
</g>
<g>
	<text font-family="Helvetica" font-size="12" fill="#000000" xml:space="preserve" x="525" y="309">update()</text>
</g>
<g>
	<text font-family="Helvetica" font-size="12" fill="#000000" xml:space="preserve" x="198" y="177">modity_bank_config()</text>
</g>
<g>
	<text font-family="Helvetica" font-size="12" fill="#000000" xml:space="preserve" x="503" y="382">success or not</text>
</g>
<g>
	<text font-family="Helvetica" font-size="12" fill="#000000" xml:space="preserve" x="246" y="453">if success</text>
</g>
</svg>
